<?xml version="1.0" encoding="UTF-8" standalone="no"?>
<!-- Created with Inkscape (http://www.inkscape.org/) -->

<svg
   xmlns:osb="http://www.openswatchbook.org/uri/2009/osb"
   xmlns:dc="http://purl.org/dc/elements/1.1/"
   xmlns:cc="http://creativecommons.org/ns#"
   xmlns:rdf="http://www.w3.org/1999/02/22-rdf-syntax-ns#"
   xmlns:svg="http://www.w3.org/2000/svg"
   xmlns="http://www.w3.org/2000/svg"
   xmlns:xlink="http://www.w3.org/1999/xlink"
   xmlns:sodipodi="http://sodipodi.sourceforge.net/DTD/sodipodi-0.dtd"
   xmlns:inkscape="http://www.inkscape.org/namespaces/inkscape"
   width="200mm"
   height="200mm"
   viewBox="0 0 200 200"
   version="1.1"
   id="svg8"
   inkscape:version="0.92.5 (2060ec1f9f, 2020-04-08)"
   sodipodi:docname="LOGO.svg">
  <defs
     id="defs2">
    <linearGradient
       id="linearGradient4310"
       inkscape:collect="always">
      <stop
         id="stop4306"
         offset="0"
         style="stop-color:#c71122;stop-opacity:1;" />
      <stop
         id="stop4308"
         offset="1"
         style="stop-color:#1504d4;stop-opacity:1" />
    </linearGradient>
    <linearGradient
       inkscape:collect="always"
       id="linearGradient4304">
      <stop
         style="stop-color:#c71122;stop-opacity:1;"
         offset="0"
         id="stop4300" />
      <stop
         style="stop-color:#0b026d;stop-opacity:1"
         offset="1"
         id="stop4302" />
    </linearGradient>
    <linearGradient
       id="linearGradient4286"
       inkscape:collect="always">
      <stop
         id="stop4282"
         offset="0"
         style="stop-color:#c71122;stop-opacity:1;" />
      <stop
         id="stop4284"
         offset="1"
         style="stop-color:#0b026d;stop-opacity:0.78431374" />
    </linearGradient>
    <linearGradient
       inkscape:collect="always"
       id="linearGradient3533">
      <stop
         style="stop-color:#00c4d8;stop-opacity:1;"
         offset="0"
         id="stop3529" />
      <stop
         style="stop-color:#00c4d8;stop-opacity:0;"
         offset="1"
         id="stop3531" />
    </linearGradient>
    <linearGradient
       inkscape:collect="always"
       id="linearGradient3525">
      <stop
         style="stop-color:#c71122;stop-opacity:1;"
         offset="0"
         id="stop3521" />
      <stop
         style="stop-color:#1504d4;stop-opacity:0.78500003"
         offset="1"
         id="stop3523" />
    </linearGradient>
    <linearGradient
       inkscape:collect="always"
       id="linearGradient871">
      <stop
         style="stop-color:#ffffff;stop-opacity:1;"
         offset="0"
         id="stop867" />
      <stop
         style="stop-color:#ffffff;stop-opacity:0;"
         offset="1"
         id="stop869" />
    </linearGradient>
    <linearGradient
       inkscape:collect="always"
       id="linearGradient861">
      <stop
         style="stop-color:#f80000;stop-opacity:0.61"
         offset="0"
         id="stop857" />
      <stop
         style="stop-color:#002ad8;stop-opacity:0.71"
         offset="1"
         id="stop859" />
    </linearGradient>
    <linearGradient
       inkscape:collect="always"
       id="linearGradient6666">
      <stop
         style="stop-color:#e27600;stop-opacity:1"
         offset="0"
         id="stop852" />
      <stop
         style="stop-color:#05008d;stop-opacity:1"
         offset="1"
         id="stop854" />
    </linearGradient>
    <linearGradient
       inkscape:collect="always"
       id="linearGradient6718">
      <stop
         style="stop-color:#fe0000;stop-opacity:1"
         offset="0"
         id="stop6714" />
      <stop
         style="stop-color:#0500d2;stop-opacity:1"
         offset="1"
         id="stop6716" />
    </linearGradient>
    <linearGradient
       id="linearGradient6666-3"
       inkscape:collect="always">
      <stop
         id="stop6662"
         offset="0"
         style="stop-color:#e20000;stop-opacity:1" />
      <stop
         id="stop6664"
         offset="1"
         style="stop-color:#05008d;stop-opacity:1" />
    </linearGradient>
    <linearGradient
       inkscape:collect="always"
       id="linearGradient6562">
      <stop
         style="stop-color:#cd0000;stop-opacity:1;"
         offset="0"
         id="stop6558" />
      <stop
         style="stop-color:#cd0000;stop-opacity:0;"
         offset="1"
         id="stop6560" />
    </linearGradient>
    <linearGradient
       id="linearGradient6298"
       osb:paint="solid">
      <stop
         style="stop-color:#3e4a18;stop-opacity:1;"
         offset="0"
         id="stop6296" />
    </linearGradient>
    <inkscape:perspective
       sodipodi:type="inkscape:persp3d"
       inkscape:vp_x="0 : 67.733332 : 1"
       inkscape:vp_y="0 : 999.99994 : 0"
       inkscape:vp_z="135.46668 : 67.733332 : 1"
       inkscape:persp3d-origin="67.733332 : 45.155553 : 1"
       id="perspective4771" />
    <linearGradient
       id="linearGradient4758"
       osb:paint="solid">
      <stop
         style="stop-color:#ff0000;stop-opacity:1;"
         offset="0"
         id="stop4756" />
    </linearGradient>
    <clipPath
       clipPathUnits="userSpaceOnUse"
       id="clipPath3867">
      <g
         style="fill:#ffffff"
         id="use3869"
         inkscape:label="Clip">
        <circle
           r="48"
           style="fill:#ffffff;stroke-width:0.26458332"
           id="circle4795"
           cx="19.315588"
           cy="14.293535" />
      </g>
    </clipPath>
    <linearGradient
       inkscape:collect="always"
       xlink:href="#linearGradient4758"
       id="linearGradient4760"
       x1="17.73333"
       y1="229.26666"
       x2="117.73333"
       y2="229.26666"
       gradientUnits="userSpaceOnUse" />
    <linearGradient
       inkscape:collect="always"
       xlink:href="#linearGradient6718"
       id="linearGradient4818"
       x1="72.987419"
       y1="98.890343"
       x2="119.14142"
       y2="98.890343"
       gradientUnits="userSpaceOnUse"
       gradientTransform="matrix(1.202712,-1.0286212,0.32395186,3.1745006,-4.7475096,-153.14752)" />
    <linearGradient
       inkscape:collect="always"
       xlink:href="#linearGradient6562"
       id="linearGradient6580"
       x1="17.761438"
       y1="230.02711"
       x2="119.06144"
       y2="230.02711"
       gradientUnits="userSpaceOnUse" />
    <linearGradient
       inkscape:collect="always"
       xlink:href="#linearGradient6718"
       id="linearGradient6822"
       x1="25.060455"
       y1="55.468498"
       x2="124.35416"
       y2="114.3"
       gradientUnits="userSpaceOnUse"
       gradientTransform="matrix(0.95368279,-0.11320142,-0.21495379,1.0155393,24.278271,8.2529213)" />
    <radialGradient
       inkscape:collect="always"
       xlink:href="#linearGradient6666"
       id="radialGradient850"
       cx="52.916668"
       cy="246.72916"
       fx="52.916668"
       fy="246.72916"
       r="50"
       gradientUnits="userSpaceOnUse"
       gradientTransform="matrix(1.5490192,0,0,1.5490192,-7.7933301,-162.78649)" />
    <radialGradient
       inkscape:collect="always"
       xlink:href="#linearGradient861"
       id="radialGradient865"
       cx="68.142578"
       cy="230.29597"
       fx="68.142578"
       fy="230.29597"
       r="50"
       gradientUnits="userSpaceOnUse"
       gradientTransform="matrix(1.5490192,0,0,1.5490192,-7.7933301,-162.78649)" />
    <linearGradient
       inkscape:collect="always"
       xlink:href="#linearGradient871"
       id="linearGradient873"
       x1="-60.854168"
       y1="61.383335"
       x2="-60.762787"
       y2="61.529644"
       gradientUnits="userSpaceOnUse"
       gradientTransform="matrix(0.97561685,0.22273725,-0.22257704,0.97491509,16.639543,-13.519968)" />
    <filter
       inkscape:collect="always"
       style="color-interpolation-filters:sRGB"
       id="filter2177"
       x="-0.092445418"
       width="1.1848907"
       y="-0.10292154"
       height="1.2058431">
      <feGaussianBlur
         inkscape:collect="always"
         stdDeviation="3.3419793"
         id="feGaussianBlur2179" />
    </filter>
    <linearGradient
       inkscape:collect="always"
       xlink:href="#linearGradient6666-3"
       id="linearGradient2803"
       gradientUnits="userSpaceOnUse"
       gradientTransform="translate(0.53772379,0.26886189)"
       x1="95.25"
       y1="270.54166"
       x2="79.375"
       y2="254.66666" />
    <filter
       inkscape:collect="always"
       style="color-interpolation-filters:sRGB"
       id="filter3261"
       x="-0.054000001"
       width="1.108"
       y="-0.054000001"
       height="1.108">
      <feGaussianBlur
         inkscape:collect="always"
         stdDeviation="2.25"
         id="feGaussianBlur3263" />
    </filter>
    <radialGradient
       inkscape:collect="always"
       xlink:href="#linearGradient6666-3"
       id="radialGradient3273"
       gradientUnits="userSpaceOnUse"
       gradientTransform="matrix(0.80192049,-0.4528703,0.21871605,1.9486225,-2.4603639,-55.807307)"
       cx="96.064423"
       cy="98.890343"
       fx="96.064423"
       fy="98.890343"
       r="23.077003" />
    <linearGradient
       inkscape:collect="always"
       xlink:href="#linearGradient6666-3"
       id="linearGradient3275"
       gradientUnits="userSpaceOnUse"
       gradientTransform="matrix(0.80192049,-0.4528703,0.21853193,1.9469824,-2.442157,-55.645083)"
       x1="72.987419"
       y1="98.890343"
       x2="119.14142"
       y2="98.890343" />
    <filter
       inkscape:collect="always"
       style="color-interpolation-filters:sRGB"
       id="filter3477"
       x="-0.089388959"
       width="1.1787779"
       y="-0.052312292"
       height="1.1046246">
      <feGaussianBlur
         inkscape:collect="always"
         stdDeviation="1.6785131"
         id="feGaussianBlur3479" />
    </filter>
    <linearGradient
       inkscape:collect="always"
       xlink:href="#linearGradient4286"
       id="linearGradient3527"
       x1="31.622992"
       y1="198.3031"
       x2="104.5653"
       y2="279.00595"
       gradientUnits="userSpaceOnUse"
       gradientTransform="matrix(1.1316034,0,0,1.1316034,-11.848909,-38.822832)" />
    <linearGradient
       inkscape:collect="always"
       xlink:href="#linearGradient3533"
       id="linearGradient3535"
       x1="30.381393"
       y1="197.78996"
       x2="31.622992"
       y2="198.3031"
       gradientUnits="userSpaceOnUse"
       gradientTransform="matrix(1.1316034,0,0,1.1316034,-11.848909,-38.822832)" />
    <linearGradient
       inkscape:collect="always"
       xlink:href="#linearGradient3525"
       id="linearGradient3543"
       x1="13.549165"
       y1="230.29597"
       x2="124.34917"
       y2="230.29597"
       gradientUnits="userSpaceOnUse" />
    <linearGradient
       inkscape:collect="always"
       xlink:href="#linearGradient4304"
       id="linearGradient3551"
       x1="79.250237"
       y1="58.339306"
       x2="112.8799"
       y2="93.473427"
       gradientUnits="userSpaceOnUse"
       gradientTransform="matrix(1.4987531,-0.34034402,-0.00183542,1.6686729,2.13809,-43.171244)" />
    <linearGradient
       inkscape:collect="always"
       xlink:href="#linearGradient4310"
       id="linearGradient3597"
       x1="26.007996"
       y1="58.661015"
       x2="115.5861"
       y2="58.661015"
       gradientUnits="userSpaceOnUse"
       gradientTransform="matrix(1.5490192,0,0,1.5490192,-7.7933301,-74.101621)" />
    <linearGradient
       inkscape:collect="always"
       xlink:href="#linearGradient4304"
       id="linearGradient4292"
       gradientUnits="userSpaceOnUse"
       gradientTransform="matrix(1.5490192,0,0,1.5490192,-7.7933301,-162.78649)"
       x1="30.553368"
       y1="200.44235"
       x2="104.5653"
       y2="279.00595" />
  </defs>
  <sodipodi:namedview
     id="base"
     pagecolor="#ffffff"
     bordercolor="#666666"
     borderopacity="1.0"
     inkscape:pageopacity="0.0"
     inkscape:pageshadow="2"
     inkscape:zoom="0.46640478"
     inkscape:cx="608.77397"
     inkscape:cy="338.16523"
     inkscape:document-units="mm"
     inkscape:current-layer="layer2"
     showgrid="false"
     units="mm"
     inkscape:window-width="1366"
     inkscape:window-height="704"
     inkscape:window-x="0"
     inkscape:window-y="27"
     inkscape:window-maximized="1"
     width="5000mm"
     inkscape:snap-text-baseline="true"
     showguides="false">
    <inkscape:grid
       type="xygrid"
       id="grid3721" />
  </sodipodi:namedview>
  <metadata
     id="metadata5">
    <rdf:RDF>
      <cc:Work
         rdf:about="">
        <dc:format>image/svg+xml</dc:format>
        <dc:type
           rdf:resource="http://purl.org/dc/dcmitype/StillImage" />
        <dc:title></dc:title>
      </cc:Work>
    </rdf:RDF>
  </metadata>
  <g
     id="g846"
     inkscape:groupmode="layer"
     inkscape:label="Circle copy"
     style="display:inline;opacity:0.27600002"
     transform="translate(0,-97)">
    <circle
       cy="193.94637"
       cx="97.760826"
       id="circle844"
       style="opacity:1;fill:url(#radialGradient865);fill-opacity:1;stroke:url(#radialGradient850);stroke-width:8.51960564;stroke-miterlimit:4;stroke-dasharray:0, 93.71565805;stroke-dashoffset:55;stroke-opacity:1"
       r="77.450958" />
  </g>
  <g
     inkscape:label="Q copy"
     id="g3271"
     inkscape:groupmode="layer"
     transform="translate(0,64.5333)">
    <path
       inkscape:connector-curvature="0"
       d="m 73.542723,65.35843 c 1.780775,-3.226592 3.483719,-7.055156 5.646256,-8.741087 0.536704,-0.714633 1.11461,-1.249865 1.745368,-1.181009 0.688093,0.03027 1.345788,0.432467 1.976152,1.117171 0.804444,0.964788 1.480301,2.360685 2.126647,3.832183 0.739322,2.076243 1.347886,4.380432 1.892856,6.754483 0.620412,2.801031 1.163306,5.684498 1.788442,8.48156 0.565451,2.914861 1.216514,5.717235 1.922411,8.460767 0.649387,2.957795 1.372604,5.811157 2.115195,8.64705 0.816995,3.233864 1.803108,6.206809 2.828928,9.087872 1.053544,3.10898 2.259128,5.88965 3.495574,8.58521 1.304868,2.85344 2.671188,5.53117 4.115228,7.97323 1.41401,2.25492 2.88421,3.98537 4.4752,5.34622 1.37663,1.08207 2.79365,1.58739 4.22455,1.73926 1.13281,0.12052 2.23315,-0.48559 3.27321,-1.41248 0.98889,-1.07594 1.92814,-2.38432 2.86119,-3.69901 0.19302,-0.29246 0.38606,-0.58482 0.57911,-0.87725 0,0 -3.26867,7.38746 -3.26867,7.38746 v 0 c -0.20774,0.30887 -0.41546,0.61772 -0.62318,0.92658 -0.94859,1.30321 -1.8992,2.64766 -2.93451,3.55424 -1.08937,0.77625 -2.20771,1.27741 -3.36632,1.03566 -1.45128,-0.26634 -2.89204,-0.89972 -4.27954,-2.06058 -1.60109,-1.45322 -3.11754,-3.30885 -4.544588,-5.60615 -1.443549,-2.51127 -2.819667,-5.22387 -4.142267,-8.08943 -1.254815,-2.72114 -2.483016,-5.52148 -3.547352,-8.67438 -1.042957,-2.91736 -2.041322,-5.93685 -2.877189,-9.205764 -0.753333,-2.823392 -1.511946,-5.630906 -2.144265,-8.615109 -0.713966,-2.758718 -1.361887,-5.593145 -1.930381,-8.528977 -0.630841,-2.781991 -1.181006,-5.649884 -1.805859,-8.436516 -0.529507,-2.257272 -1.110754,-4.460132 -1.832371,-6.41643 -0.616423,-1.357884 -1.271075,-2.638888 -2.046232,-3.444268 -0.598057,-0.518504 -1.217473,-0.806751 -1.848689,-0.689766 -0.579134,0.265825 -1.097919,0.860532 -1.634541,1.401697 -1.493815,1.556771 -3.161139,4.940127 2.790895,-4.891205 0.199328,-0.329234 -0.396013,0.667211 -0.591299,1.009444 -0.07332,0.128491 -0.151607,0.24067 -0.227412,0.361021 0,0 -4.212546,4.868311 -4.212546,4.868311 z"
       id="path3269"
       style="opacity:0.98999999;fill:url(#radialGradient3273);fill-opacity:1;stroke:url(#linearGradient3275);stroke-width:1.25631011;stroke-miterlimit:4;stroke-dasharray:0, 13.81941177;stroke-dashoffset:0;stroke-opacity:1;filter:url(#filter3477)"
       transform="matrix(1.747863,-0.25946878,-0.06701642,1.564117,-17.09482,-60.723039)" />
  </g>
  <g
     inkscape:groupmode="layer"
     id="layer5"
     inkscape:label="Q"
     style="display:inline"
     transform="translate(0,64.5333)">
    <path
       style="opacity:1;fill:url(#linearGradient3551);fill-opacity:1;stroke:url(#linearGradient4818);stroke-width:1.36887109;stroke-miterlimit:4;stroke-dasharray:none;stroke-dashoffset:0;stroke-opacity:1"
       id="path4810"
       d="m 108.91298,22.906753 c 2.67486,-5.990204 5.23419,-12.9584118 8.47839,-16.5076863 0.8057,-1.3751515 1.67282,-2.4649672 2.61804,-2.5647442 1.03123,-0.1836751 2.01621,0.2636172 2.95971,1.1916255 1.2039,1.3361263 2.21428,3.4353955 3.18029,5.670866 1.10425,3.212947 2.01211,6.850764 2.82452,10.626799 0.9247,4.462852 1.73309,9.089645 2.66487,13.544266 0.84213,4.6715 1.81277,9.126163 2.86569,13.46397 0.96784,4.714579 2.04653,9.229764 3.15429,13.709204 1.21854,5.118205 2.69102,9.74346 4.22318,14.201875 1.5733,4.829301 3.37506,9.059017 5.22319,13.136172 1.95045,4.317406 3.99332,8.320642 6.1531,11.90415 2.1151,3.28148 4.31541,5.66867 6.69738,7.398 2.06125,1.33709 4.18408,1.69802 6.32836,1.46445 1.69761,-0.18444 3.34786,-1.57036 4.90836,-3.47098 1.48405,-2.13195 2.89419,-4.63489 4.29503,-7.146235 0.28977,-0.553735 0.57967,-1.107293 0.86954,-1.660933 0,0 -4.91252,13.439738 -4.91252,13.439738 v 0 c -0.31192,0.58609 -0.62378,1.17215 -0.93569,1.75823 -1.42408,2.4975 -2.8513,5.06448 -4.4046,6.92962 -1.63415,1.66607 -3.31116,2.88295 -5.04719,2.87386 -2.17459,0.0496 -4.33282,-0.51703 -6.41019,-1.9819 -2.39697,-1.88004 -4.66635,-4.46035 -6.80095,-7.80811 -2.1589,-3.69917 -4.21634,-7.75729 -6.19334,-12.08882 -1.87566,-4.113612 -3.71129,-8.368474 -5.30067,-13.267376 -1.55779,-4.513154 -3.04855,-9.211928 -4.29532,-14.382169 -1.12387,-4.454927 -2.25569,-8.881562 -3.1979,-13.646015 -1.065,-4.360403 -2.03087,-8.869617 -2.87751,-13.575081 -0.94037,-4.42753 -1.75967,-9.025858 -2.69106,-13.46317 -0.78945,-3.586433 -1.65656,-7.064462 -2.73449,-10.083287 -0.92137,-2.056068 -1.90018,-3.970838 -3.06048,-5.050933 -0.89538,-0.661667 -1.82321,-0.931841 -2.76946,-0.521803 -0.86847,0.640678 -1.64709,1.809613 -2.45235,2.895282 -2.24171,3.106151 -4.74683,9.31933 4.19184,-9.111688 0.29935,-0.617221 -0.59475,1.248139 -0.88806,1.885677 -0.1101,0.239362 -0.22766,0.453197 -0.3415,0.679825 0,0 -6.3225,9.557334 -6.3225,9.557334 z"
       inkscape:connector-curvature="0" />
  </g>
  <g
     inkscape:groupmode="layer"
     id="layer3"
     inkscape:label="4"
     transform="translate(0,64.5333)"
     style="display:inline">
    <path
       style="fill:url(#linearGradient873);fill-opacity:1;stroke:url(#linearGradient6822);stroke-width:5.81399965;stroke-linecap:butt;stroke-linejoin:bevel;stroke-miterlimit:4;stroke-dasharray:none;stroke-opacity:1;paint-order:normal;filter:url(#filter2177)"
       d="M 80.0378,20.494273 29.104167,98.425 115.86618,86.901974 v 0 0 0"
       id="path4793"
       inkscape:connector-curvature="0"
       sodipodi:nodetypes="cccccc"
       transform="matrix(1.5490191,0,0,1.5490191,-7.7933301,-74.10162)" />
    <path
       style="opacity:0.61000001;fill:#ffffff;fill-opacity:0.02577317;stroke:#e27600;stroke-width:32.99410629;stroke-linecap:butt;stroke-linejoin:bevel;stroke-miterlimit:4;stroke-dasharray:0, 362.93519187;stroke-dashoffset:213;stroke-opacity:1;paint-order:normal"
       id="path875"
       d="m 49.127797,37.302316 c -0.240203,0.624053 -0.473743,1.25499 -0.764838,1.851725 -0.213738,0.458902 -0.410097,0.930817 -0.650547,1.37332 -0.208223,0.314534 -0.395956,0.660869 -0.531805,1.020426 -0.121488,0.412486 -0.248121,0.824241 -0.401241,1.222928 -0.207869,0.461825 -0.382111,0.941003 -0.591552,1.402041 -0.25763,0.543998 -0.473535,1.110318 -0.722111,1.659124 -0.273618,0.539504 -0.466573,1.123787 -0.743526,1.66127 -0.282688,0.595845 -0.605072,1.168475 -0.847031,1.786705 -0.272573,0.608677 -0.544857,1.215878 -0.839428,1.81183 -0.280682,0.576975 -0.626287,1.113059 -0.92384,1.679013 -0.275722,0.580625 -0.521577,1.18035 -0.813935,1.751275 -0.354974,0.663797 -0.628792,1.372952 -0.908059,2.078399 -0.265705,0.689495 -0.465007,1.407486 -0.806948,2.056095 -0.391933,0.652272 -0.675961,1.368958 -1.014397,2.053161 -0.327965,0.661001 -0.610827,1.346602 -0.93911,2.007415 -0.242571,0.673371 -0.492143,1.341589 -0.759883,2.002743 -0.291808,0.66755 -0.622622,1.311681 -0.90314,1.985795 -0.313006,0.830398 -0.658144,1.644699 -1.039934,2.438096 -0.403889,0.787252 -0.736101,1.614173 -1.068816,2.440451 -0.314263,0.635909 -0.566942,1.303768 -0.834931,1.96444 -0.288562,0.734919 -0.550957,1.482665 -0.8105,2.231643 -0.236675,0.776533 -0.545832,1.515258 -0.868259,2.248644 -0.272211,0.686667 -0.603651,1.340382 -0.914489,2.00564 -0.297107,0.569122 -0.586262,1.145978 -0.804497,1.758739 -0.187543,0.746514 -0.515619,1.425761 -0.806875,2.121285 -0.188009,0.593693 -0.531015,1.098902 -0.763728,1.667312 -0.226913,0.486127 -0.436372,0.977538 -0.711155,1.434933 -0.251658,0.5051 -0.591104,0.949504 -0.881603,1.42854 -0.368899,0.61168 -0.621002,1.295513 -0.92115,1.948793 -0.31779,0.772071 -0.791157,1.447472 -1.171796,2.181693 -0.316632,0.696934 -0.670142,1.372116 -0.977615,2.074196 -0.360574,0.683039 -0.764436,1.334841 -1.094374,2.037373 -0.296246,0.768908 -0.713175,1.467142 -1.087486,2.190153 -0.314958,0.68089 -0.669396,1.338068 -0.974435,2.024628 -0.309088,0.69294 -0.646921,1.36979 -0.989861,2.0431 -0.399658,0.78502 -0.78933,1.57464 -1.15342,2.38045 -0.314728,0.70074 -0.70309,1.35412 -1.106261,1.99824 -0.347749,0.56545 -0.691152,1.13403 -1.040055,1.69891 -0.324832,0.60905 -0.654767,1.21406 -0.95785,1.83632 -0.330262,0.61219 -0.625333,1.24507 -0.952936,1.8589 -0.302223,0.58404 -0.629914,1.15306 -0.967237,1.71465 -0.271559,0.54487 -0.661373,1.00702 -0.920099,1.55872 -0.225483,0.45705 -0.469293,0.90877 -0.658204,1.38632 -0.294458,0.54518 -0.552327,1.10561 -0.891422,1.62154 -0.339489,0.5156 -0.6835276,1.02712 -0.9658236,1.58159 -0.313113,0.55575 -0.647292,1.09906 -0.943038,1.66589 -0.340755,0.62974 -0.668922,1.26427 -0.949536,1.92929 -0.3919306,0.79404 -0.7161286,1.62547 -1.0817171,2.43392 -0.3203884,0.68827 -0.7090191,1.33461 -1.0870643,1.98647 -0.3250234,0.56396 -0.6667839,1.1162 -0.9949337,1.6779 -0.3194932,0.59177 -0.6267582,1.1913 -0.9588709,1.77524 -0.2722685,0.4707 -0.5793884,0.92058 -0.7790328,1.43468 -0.219174,0.47723 -0.4723002,0.93345 -0.7257617,1.39024 -0.1757932,0.38906 -0.4354831,0.72045 -0.6110764,1.10868 -0.243076,0.49315 -0.52437757,0.95911 -0.85031617,1.39499 -0.3821043,0.51992 -0.7318325,1.06358 -1.0910068,1.60089 -0.319431,0.4371 -0.62789023,0.88049 -0.90452183,1.34827 -0.3133662,0.31378 -0.4166379,0.76538 -0.6634495,1.12359 -0.2181597,0.41752 -0.4651314,0.82263 -0.7077816,1.22704 -0.2625891,0.32523 -0.4050695,0.7232 -0.5814444,1.10377 -0.1930711,0.37561 -0.4253,0.72071 -0.6265843,1.09068 -0.2529564,0.43441 -0.4154305,0.91877 -0.6285322,1.37639 -0.1834328,0.44601 -0.3827555,0.88838 -0.6160084,1.30666 -0.1983754,0.42234 -0.3994051,0.84749 -0.6307635,1.2511 -0.084884,0.37872 -0.4105052,0.58711 -0.5029725,0.95131 -0.1256624,0.25951 -0.3440589,0.22337 -0.3538751,0.54911 -0.1959237,0.0736 -0.1754276,0.28526 -0.2690694,0.4273 -0.049457,0.075 -0.1457478,0.10705 -0.2062204,0.17307 -0.1687968,0.23766 -0.322543,0.50015 -0.4380675,0.7797 -0.2172549,0.29003 -0.4415416,0.57051 -0.6386235,0.88011 -0.1542676,0.33882 -0.2825035,0.69917 -0.4575506,1.02493 -0.1293857,0.12922 -0.2596625,0.20361 -0.3363152,0.38521 -0.087731,0.12567 -0.048116,0.15521 0.011909,0.37416 -0.5523696,2.03066 -3.1350986,2.74513 -5.1155296,3.42011 -1.38465,-1.02095 4.1939837,-5.31941 4.7191743,-3.03358 0.0272,0.092 0.046624,0.18415 0.063406,0.27834 0.6835075,2.29042 -2.8468133,3.62817 -5.0517873,3.5525 -2.102977,-1.38764 4.265798,-5.4435 4.6929419,-3.13945 0.013141,0.0694 0.029157,0.13879 0.045748,0.20801 0.00383,0.0123 -0.00246,3.5e-4 -0.00329,4e-4 -1.5853449,1.13875 -4.7138239,1.3464 -4.7560319,3.41622 -0.03981,1.9518 6.3917794,-3.72051 4.669255,-2.98268 -0.06483,0.10705 -0.2171111,0.0634 -0.2272298,0.13018 1.382e-4,0.0836 0.015496,0.16831 0.029526,0.25262 -0.1596692,-0.11157 -0.2271322,-0.3146 -0.3373362,-0.47391 0.169971,0.0864 0.341076,0.0921 0.514642,0.0964 0.1310146,0.16036 0.2091074,-0.18135 0.1619894,-0.15335 -3.3061284,1.9683 -9.5061944,6.00354 0.3078372,-0.20063 0.3072938,-0.0955 0.6505807,-0.0634 0.9847864,-0.0557 0.4123779,-0.30908 1.0031293,-0.23729 1.4651561,-0.45512 0.7052629,-0.17199 1.378189,-0.419 2.0986764,-0.55244 0.9238894,-0.26961 1.829399,-0.57599 2.7766934,-0.78936 1.01302903,-0.14776 1.99204183,-0.38967 3.0053676,-0.53772 1.1302139,0.0587 2.2645289,0.1656 3.3950768,0.22532 1.1469701,0.0475 2.2891794,0.0584 3.4298901,0.0619 1.190949,0.0801 2.3194076,-0.0845 3.4648036,-0.21299 1.180155,-0.13552 2.38404,-0.1717 3.588457,-0.19601 1.066897,-0.0201 2.13816,-0.014 3.207983,-0.0174 0.921739,0.0821 1.761812,-0.0827 2.625805,-0.23277 0.842719,-0.0479 1.62292,-0.25153 2.429313,-0.41117 0.83948,-0.0598 1.621514,-0.26051 2.428714,-0.41889 0.840591,-0.0586 1.623563,-0.25855 2.431606,-0.41671 0.851142,-0.15841 1.663877,-0.42992 2.489528,-0.65862 0.860157,-0.22362 1.678641,-0.53384 2.565564,-0.69563 0.675913,-0.29874 1.434122,-0.39764 2.198077,-0.45986 0.782769,-0.0449 1.573759,-0.0502 2.364267,-0.0539 0.756155,0.0461 1.461332,-0.004 2.168578,-0.15196 0.779953,-0.19696 1.639267,-0.12744 2.417158,-0.31668 0.792619,-0.20516 1.627011,-0.28164 2.466855,-0.32623 0.658765,-0.24293 1.367851,-0.34397 2.091675,-0.40049 0.747168,-0.24298 1.545283,-0.34724 2.352357,-0.41114 0.778004,-0.23544 1.598439,-0.35022 2.432043,-0.41641 0.805892,-0.0851 1.583337,-0.27535 2.384325,-0.39244 0.681865,-0.0739 1.380332,-0.079 2.076516,-0.0845 0.687785,0.003 1.374934,0.003 2.062044,0.003 0.74537,0.0479 1.438495,-0.008 2.134913,-0.15336 0.809756,-0.121 1.612188,-0.21023 2.398554,-0.39679 0.802261,-0.18444 1.646018,-0.23264 2.490227,-0.26193 0.825336,-0.053 1.608549,-0.26014 2.429916,-0.3472 0.726857,-0.0756 1.467052,-0.0862 2.208801,-0.0884 0.808407,0.0569 1.53926,-0.1747 2.308754,-0.2822 0.83252,-0.0602 1.644712,-0.11416 2.443473,-0.2846 0.804445,-0.16968 1.644908,-0.21711 2.486476,-0.24582 0.825063,-0.053 1.607891,-0.26066 2.428966,-0.34798 0.814186,0.01 1.544206,-0.24174 2.313235,-0.38442 0.716371,-0.16147 1.411081,-0.36003 2.158126,-0.44932 0.759376,-0.26503 1.575167,-0.38063 2.402499,-0.44899 0.684811,-0.2263 1.39262,-0.36453 2.13528,-0.42473 0.675668,-0.0626 1.36756,-0.0498 2.055665,-0.0482 0.802656,0.0554 1.539029,-0.15071 2.293308,-0.28942 0.740183,-0.0235 1.411528,-0.21532 2.115604,-0.35273 0.786065,-0.088 1.458494,-0.14684 2.203805,-0.352 0.571,-0.19032 1.201677,-0.22443 1.824117,-0.24955 0.62032,-0.0584 1.182201,-0.27558 1.807991,-0.3471 0.58825,-0.0743 1.1942,-0.0804 1.79835,-0.0802 0.55877,-0.003 1.11826,-0.003 1.67823,0.001 0.56529,0.19188 1.13633,0.30789 1.7096,0.37864 0.53554,0.0426 1.0662,0.04 1.59693,0.0445 0.56708,-0.003 1.13521,-8.2e-4 1.70169,-0.008 0.44986,-0.003 0.90067,-8.2e-4 1.3504,-0.004 0.39495,0.004 0.78758,-0.004 1.18204,-0.001 0.37446,3.2e-4 0.74869,-8.2e-4 1.12361,0.003 0.47058,8.2e-4 0.94119,0.001 1.41227,0.007 0.49094,-4e-5 0.98097,-0.007 1.47224,-0.003 0.3858,-0.003 0.772,-0.003 1.15774,-0.007 2.59505,-0.20273 -6.46223,4.25799 -4.33427,2.70279 0.0678,-0.0502 0.13508,-0.10116 0.20292,-0.1515 0.3375,0.49897 0.088,-0.1484 0.051,-0.2542 0.90024,10.73733 3.05727,-3.97616 5.22516,-3.17248 0.16045,0.0517 0.3295,0.0366 0.48934,0.0378 0.25294,8.2e-4 0.50611,0.003 0.75886,0.003 0.35171,0.008 0.70095,-2.3e-4 1.05191,0.003 0.23692,-0.003 0.47392,-0.007 0.71142,-0.007 2.16255,-0.0197 2.8587,-1.66242 -4.55441,3.27846 -0.0727,-0.0934 -0.0446,-0.10431 -0.0881,-0.0517 -0.23005,0.0331 -0.48997,0.003 -0.73038,-0.003 0,0 4.41624,-3.58853 4.41624,-3.58853 v 0 c 0.36541,0.0265 0.70037,0.0474 1.03462,0.27551 1.91192,1.78457 -2.32568,3.85263 -4.51886,3.74404 -0.23226,7e-5 -0.46463,-0.001 -0.69759,-0.007 -0.35265,0.003 -0.70709,-0.004 -1.05905,0.003 -0.25679,-8.2e-4 -0.51303,0.001 -0.77026,-0.001 -0.15134,-0.001 -0.33423,-0.0308 -0.46677,0.0224 -0.0108,0.0746 -0.0767,0.10513 -0.13584,0.1498 1.56616,-1.02575 3.13234,-2.0515 4.69851,-3.07724 -0.42215,-0.40528 0.006,0.23783 0.0286,0.36493 -0.0737,0.0572 -0.14824,0.11307 -0.22318,0.16874 -1.6824,1.26485 -3.1992,3.31413 -5.519,3.2045 -0.38162,-0.003 -0.76283,-0.003 -1.14432,-0.007 -0.48715,0.001 -0.97548,-0.003 -1.46291,-0.003 -0.47512,0.003 -0.95065,0.004 -1.42628,0.007 -0.37605,0.003 -0.75287,0.001 -1.12937,0.003 -0.39195,0.003 -0.78585,-0.008 -1.17736,-0.001 -0.44725,-0.003 -0.89337,-4.1e-4 -1.34035,-0.003 -0.56499,-0.004 -1.12811,0.001 -1.69356,-0.008 -0.5552,-0.004 -1.11386,-0.0123 -1.67719,-0.11033 -0.54288,-0.1039 -1.09015,-0.2827 -1.630321,-0.30657 -0.55646,10e-4 -1.11384,-0.001 -1.6694,0.007 -0.583571,0.0177 -1.166962,0.0408 -1.729906,0.14205 -0.612793,0.12402 -1.200785,0.3199 -1.854471,0.31118 -0.597581,0.0563 -1.17693,0.15671 -1.738076,0.32126 -0.722247,0.15636 -1.495315,0.14654 -2.210529,0.32882 -0.700591,0.1549 -1.417252,0.23875 -2.134695,0.34207 -0.775827,0.1273 -1.545802,0.2603 -2.36511,0.2087 -0.674798,0.01 -1.349783,0.0218 -2.009279,0.10157 -0.721409,0.10745 -1.402017,0.32171 -2.128651,0.41237 -0.81533,0.10636 -1.591948,0.30827 -2.386881,0.47312 -0.7266,0.13442 -1.414935,0.3626 -2.148258,0.47826 -0.76354,0.16117 -1.533955,0.28741 -2.330566,0.33997 -0.817245,0.11759 -1.613764,0.31314 -2.462794,0.31142 -0.823361,0.0497 -1.636309,0.13957 -2.424707,0.31133 -0.808154,0.13539 -1.652215,0.13032 -2.459976,0.26951 -0.780629,0.13114 -1.554872,0.27038 -2.379646,0.22327 -0.722457,0.0156 -1.443926,0.0431 -2.149497,0.13333 -0.817383,0.11732 -1.61407,0.31215 -2.462884,0.3115 -0.823236,0.0517 -1.636151,0.14469 -2.416506,0.3398 -0.795728,0.16237 -1.62653,0.21179 -2.420378,0.38202 -0.725663,0.10787 -1.478037,0.0794 -2.227128,0.0805 -0.686419,-0.003 -1.373235,-0.008 -2.056921,0.007 -0.676794,0.0123 -1.353913,0.0316 -2.00839,0.14003 -0.799159,0.11923 -1.572164,0.32243 -2.394642,0.36219 -0.82472,0.10075 -1.615244,0.29406 -2.432224,0.41733 -0.800833,0.0994 -1.566258,0.29172 -2.356983,0.42032 -0.710934,0.0984 -1.382433,0.30391 -2.100153,0.3761 -0.824318,0.0719 -1.627673,0.20609 -2.422902,0.37306 -0.812132,0.0879 -1.631352,0.15134 -2.419076,0.32214 -0.734485,0.10786 -1.496144,0.0752 -2.253357,0.0797 -0.774595,0.003 -1.551203,0.007 -2.307494,0.0968 -0.747207,0.10678 -1.447867,0.31419 -2.16139,0.50938 -0.849992,0.20613 -1.665844,0.48785 -2.51124,0.7052 -0.832103,0.24446 -1.667411,0.48716 -2.536573,0.63786 -0.801252,0.17208 -1.621695,0.27044 -2.431365,0.41703 -0.800334,0.17256 -1.619805,0.27195 -2.428439,0.41946 -0.802701,0.17326 -1.622978,0.27478 -2.44356,0.39346 -0.875537,0.14436 -1.767356,0.17675 -2.683502,0.13972 -1.062149,-0.004 -2.123411,-0.003 -3.181867,0.0156 -1.1905796,0.0305 -2.3768776,0.0879 -3.5409872,0.23426 -1.1580772,0.13957 -2.3258625,0.21128 -3.5238258,0.16017 -1.1484336,-0.01 -2.2968809,-0.014 -3.45350717,-0.0849 -1.10757203,-0.0632 -2.23679023,-0.21742 -3.31758373,-0.11102 -0.9950653,0.1702 -1.9795998,0.37442 -2.9644765,0.57338 -0.9362435,0.25524 -1.8528477,0.55685 -2.7962189,0.79592 -0.7005731,0.20092 -1.4078317,0.38564 -2.0956727,0.61481 -0.536946,0.10691 -1.046768,0.30092 -1.598591,0.34222 -0.304652,0.0309 -0.583533,0.0869 -0.818077,0.26347 11.7548883,-7.51109 0.523266,-0.30453 -0.321453,0.19677 -0.05167,0.0307 -0.28764,-0.1143 -0.371508,-0.0667 -0.127346,-0.007 -0.326089,-0.0565 -0.362625,0.0873 -0.110878,-0.11115 -0.379466,-0.29674 -0.448009,-0.49503 -0.02187,-0.10801 -0.03804,-0.216 -0.0573,-0.32403 -0.04881,-0.22228 -0.140326,-0.34865 -0.02051,-0.5404 0.01394,-0.0351 0.01054,-0.0845 0.04159,-0.10486 9.8418164,-6.47926 3.220228,-1.99424 0.322384,0.15429 -0.01191,-0.0763 -0.02333,-0.15259 -0.03603,-0.22881 -0.385096,-2.25486 6.2671908,-1.49917 4.707235,-3.51326 1.5436224,-1.55129 -6.667675,1.93299 -4.355208,3.09699 -0.01342,-0.0849 -0.0082,-0.14561 -0.03733,-0.22414 -0.621699,-2.28721 3.712369,-1.6494 4.6110306,-3.72514 1.6498812,-1.26716 -6.8789626,3.33851 -4.4500366,2.9458 0.291612,0.19149 0.03324,-0.0775 0.06635,-0.23339 0.01628,-0.22373 0.01369,-0.55985 0.197599,-0.66644 0.08372,-0.0509 0.195984,-0.0726 0.252043,-0.15196 0.139458,-0.19774 0.08702,-0.54377 0.339416,-0.67771 0.034,-0.2123 0.0921,-0.45614 0.219149,-0.62537 0.03489,-0.0465 0.106362,-0.0578 0.139026,-0.10595 0.273095,-0.40271 -0.143239,-0.0218 0.185336,-0.29282 0.268919,-0.19762 0.01054,0.0368 0.169609,-0.28056 0.04015,-0.0802 0.171005,-0.0883 0.202941,-0.173 0.02223,-0.0589 3.23e-4,-0.13209 4.68e-4,-0.19813 0.0206,-0.0379 0.04122,-0.076 0.06182,-0.11389 0.04953,-0.0921 0.05237,-0.22269 0.137119,-0.28356 0.03482,-0.0249 0.101351,0.0246 0.139148,0.003 0.09593,-0.0533 0.09333,-0.2966 0.153074,-0.37762 0.321174,0.0798 0.0079,-0.5097 0.394321,-0.50346 0.213099,-0.0875 0.113398,-0.22292 0.211312,-0.40992 0.08721,-0.16659 0.306261,-0.25679 0.385089,-0.43293 0.128907,-0.44917 0.400979,-0.86119 0.632585,-1.24904 0.13289,-0.46152 0.4128936,-0.87594 0.6330231,-1.2879 0.1342725,-0.49922 0.3973791,-0.95444 0.5837345,-1.42709 0.1743052,-0.39346 0.3668136,-0.75092 0.6156183,-1.09407 0.2103571,-0.38095 0.3506623,-0.79459 0.5648195,-1.16538 0.2666109,-0.37076 0.4538136,-0.80559 0.7386154,-1.15084 0.069936,-0.22668 0.220239,-0.32507 0.3098453,-0.53131 0.1013102,-0.23321 0.127086,-0.511 0.3056635,-0.70692 0.3866499,-0.38292 0.5493717,-0.93264 0.9287557,-1.32949 0.3778823,-0.52412 0.6963009,-1.0954 1.1081833,-1.58896 0.2605632,-0.4646 0.6284076,-0.83719 0.8507519,-1.32812 0.1017893,-0.17998 0.1402477,-0.39715 0.2431334,-0.57256 0.1200774,-0.2047 0.1616596,-0.10143 0.2770007,-0.32159 0.040163,-0.0767 0.052729,-0.16774 0.079093,-0.25162 0.2766694,-0.43713 0.5284267,-0.89479 0.7552349,-1.35603 0.2922841,-0.46868 0.4053967,-1.0551 0.7697463,-1.48493 0.364503,-0.56065 0.68169873,-1.15962 0.96616523,-1.76707 0.3292859,-0.56673 0.6523167,-1.12611 0.9995154,-1.68088 0.3841971,-0.6522 0.77124177,-1.29428 1.13692197,-1.95927 0.398555,-0.78101 0.6684171,-1.63087 1.0792413,-2.40478 0.2870961,-0.66502 0.5292357,-1.35322 0.9167247,-1.95978 0.2925538,-0.57312 0.60585,-1.12766 0.9056821,-1.69691 0.3695513,-0.49127 0.5390531,-1.13808 0.9848287,-1.57847 0.2875232,-0.53842 0.6813255,-0.99581 0.8688731,-1.59728 0.3106037,-0.38995 0.4337706,-0.94489 0.6714888,-1.39132 0.3340771,-0.49986 0.521878,-1.10137 0.9409139,-1.54789 0.267344,-0.59935 0.653117,-1.13925 0.98163,-1.69933 0.271372,-0.64488 0.645936,-1.23896 0.943698,-1.86847 0.3181886,-0.61627 0.6061856,-1.246 0.9504196,-1.84638 0.276554,-0.61124 0.676673,-1.1631 1.041848,-1.71481 0.342746,-0.68279 0.854396,-1.25876 1.127673,-1.98722 0.44217,-0.75151 0.709965,-1.61498 1.164445,-2.3623 0.301089,-0.69366 0.671822,-1.34782 0.989769,-2.03195 0.313364,-0.68999 0.630998,-1.37489 0.95923,-2.05364 0.374063,-0.71518 0.785791,-1.406406 1.113346,-2.149552 0.272011,-0.733304 0.626838,-1.430867 1.085696,-2.04727 0.317747,-0.705256 0.638702,-1.406748 0.965755,-2.104242 0.374318,-0.734701 0.7887,-1.436781 1.194143,-2.148197 0.268948,-0.674635 0.593753,-1.318045 0.838157,-2.005465 0.300833,-0.46918 0.570948,-0.949175 0.913657,-1.383394 0.203215,-0.498105 0.563633,-0.905577 0.706921,-1.440888 0.320617,-0.502581 0.48507,-1.111496 0.821258,-1.610696 0.217355,-0.723735 0.635449,-1.33855 0.82362,-2.078795 0.132671,-0.670623 0.431765,-1.277444 0.750978,-1.85508 0.330597,-0.650173 0.632731,-1.314527 0.94548,-1.975021 0.276374,-0.753207 0.67776,-1.437312 0.899207,-2.218047 0.226868,-0.760805 0.50347,-1.501091 0.778813,-2.238666 0.222877,-0.698138 0.532377,-1.356606 0.825117,-2.019345 0.425264,-0.779955 0.650653,-1.679248 1.075185,-2.463297 0.410818,-0.7609 0.759047,-1.566385 1.043616,-2.395442 0.287989,-0.667776 0.535313,-1.355579 0.894864,-1.982741 0.290004,-0.648914 0.57098,-1.309175 0.750643,-2.011616 0.280203,-0.687474 0.656739,-1.32717 0.934961,-2.016394 0.314999,-0.701204 0.645634,-1.396599 1.001941,-2.074249 0.110714,-0.211821 0.256586,-0.401004 0.365806,-0.613737 0.220692,-0.429866 0.278377,-0.95478 0.470002,-1.400059 0.303711,-0.69503 0.532974,-1.42857 0.880653,-2.098143 0.26029,-0.582118 0.54122,-1.154189 0.82905,-1.720879 0.198935,-0.637269 0.607828,-1.143257 0.906791,-1.725848 0.31059,-0.583057 0.598318,-1.170173 0.83762,-1.793513 0.327176,-0.56418 0.499021,-1.228132 0.844935,-1.785705 0.247251,-0.557193 0.553512,-1.078613 0.736753,-1.674761 0.296508,-0.513048 0.456819,-1.091229 0.738962,-1.611961 0.174857,-0.483811 0.394733,-0.936694 0.571764,-1.411881 0.186124,-0.368522 0.310012,-0.759083 0.429975,-1.155236 0.09917,-0.425449 0.290447,-0.777147 0.442817,-1.178781 0.328773,-0.375372 0.499297,-0.84994 0.72791,-1.300126 0.257107,-0.594552 0.577228,-1.155824 0.76912,-1.787119 0,0 5.223693,-2.549095 5.223693,-2.549095 z"
       inkscape:connector-curvature="0" />
    <path
       style="opacity:0.61000001;fill:#ffffff;fill-opacity:0.02577317;stroke:#e27600;stroke-width:4.9568615;stroke-linecap:butt;stroke-linejoin:bevel;stroke-miterlimit:4;stroke-dasharray:0, 54.52547393;stroke-dashoffset:0;stroke-opacity:1;paint-order:normal"
       id="path877"
       d="m 2.7341623,-54.716648 c 0.087868,1.123774 0.2804762,2.231289 0.4698116,3.341009 0.1355045,1.265717 0.3691763,2.517093 0.5130186,3.781497 0.1614077,1.428985 0.1654089,2.869215 0.1758083,4.305371 0.013004,1.536926 0.010266,3.073842 0.00548,4.610801 0.019643,1.52145 -0.052099,3.046944 0.04557,4.566005 0.1374592,1.381873 0.2668586,2.763742 0.3297938,4.151226 -0.01273,1.269457 0.1704751,2.523677 0.2962647,3.783349 0.070292,1.210753 0.1828388,2.411762 0.3483942,3.613158 0.098244,0.981948 0.2319155,1.952229 0.4194289,2.920726 0.066377,0.672469 0.2743601,1.304653 0.4869745,1.94052 0.1125212,0.30279 0.1694854,0.622595 0.2252396,0.93977 0.030361,0.136558 0.019698,0.277457 0.022285,0.416468 1.93e-4,0.05158 0.00356,0.103035 0.00671,0.154467 -0.4594602,-0.750652 -4.503e-4,-0.339298 0.192247,-0.05233 0,0 -5.35220367,3.174824 -5.35220367,3.174824 v 0 c 0.11783247,0.334743 -0.387166,-0.07557 -0.4109063,-0.300059 0.00506,-0.05152 0.010403,-0.103103 0.011499,-0.154971 0.00479,-0.119626 0.00301,-0.239398 0.012183,-0.358701 -0.00315,-0.288356 -0.041121,-0.576794 -0.1227467,-0.853778 -0.1874956,-0.671115 -0.431816,-1.323556 -0.4719197,-2.027012 -0.179166,-0.985849 -0.3415666,-1.964853 -0.3997351,-2.967391 -0.1572615,-1.210883 -0.3069532,-2.415502 -0.3452658,-3.637802 -0.126856,-1.271157 -0.33281063,-2.536139 -0.30475633,-3.817551 -0.056236,-1.384738 -0.1495089,-2.766845 -0.309352,-4.143955 -0.113463,-1.534373 -0.020373,-3.074257 -0.049181,-4.61169 -0.00201,-1.534841 0.00226,-3.069701 -0.00364,-4.6045 -0.017431,-1.412913 -0.037615,-2.827819 -0.1735408,-4.235391 -0.1453444,-1.252914 -0.3893016,-2.490027 -0.5161794,-3.745043 -0.1778263,-1.094006 -0.3743702,-2.183549 -0.5469876,-3.277479 0,0 5.445728,-2.911536 5.445728,-2.911536 z"
       inkscape:connector-curvature="0" />
    <path
       style="opacity:0.61000001;fill:#ffffff;fill-opacity:0.02577317;stroke:#e27600;stroke-width:4.9568615;stroke-linecap:butt;stroke-linejoin:bevel;stroke-miterlimit:4;stroke-dasharray:0, 54.52547393;stroke-dashoffset:0;stroke-opacity:1;paint-order:normal"
       id="path879"
       d="m 6.0789415,-16.192281 c -0.2879858,-0.571183 -0.53703,-1.150532 -0.6704991,-1.77736 -0.1144732,-0.644953 -0.1179857,-1.299452 -0.1193819,-1.952086 0.00311,-0.792915 0.00795,-1.585821 0.010431,-2.378742 -0.015616,-0.916528 0.1970667,-1.814358 0.2992749,-2.721762 0.093412,-0.956517 0.1185716,-1.917917 0.1282084,-2.878373 -0.028815,-0.927239 0.1670352,-1.838813 0.2810169,-2.754577 0.032853,-0.792922 0.1813878,-1.565702 0.3429844,-2.339804 0.062407,-0.661617 0.2555655,-1.293423 0.4030531,-1.937893 0.077382,-0.599529 0.2591163,-1.170244 0.4099482,-1.752632 0.1198309,-0.445328 0.1695114,-0.904943 0.1860254,-1.364652 -0.024982,-0.515808 0.084117,-1.001153 0.2317362,-1.49039 0.1195572,-0.401565 0.1566014,-0.816364 0.1836834,-1.232103 0.0115,-0.360273 -0.0021,-0.720624 0.0144,-1.080585 0.06204,-0.280779 0.226989,-0.508493 0.312679,-0.781471 0.06836,-0.133479 0.07113,-0.28674 0.07689,-0.43366 0,0 5.5603396,-2.806737 5.5603396,-2.806737 v 0 c -0.007,0.191424 -0.02327,0.382596 -0.01979,0.574267 -0.07584,0.283579 -0.115081,0.581364 -0.32294,0.801364 -0.224944,0.18329 -0.03577,0.67195 -0.100243,0.939181 -0.0048,0.453771 -0.02664,0.912514 -0.132,1.355276 -0.101775,0.465263 -0.346688,0.878929 -0.281034,1.36573 -0.01862,0.500692 -0.03918,1.001392 -0.145359,1.493226 -0.150302,0.585249 -0.37577,1.138223 -0.424261,1.742546 -0.150395,0.642147 -0.36905,1.263617 -0.423541,1.922878 -0.137955,0.771009 -0.398035,1.515284 -0.383336,2.308903 -0.100037,0.903439 -0.317541,1.795413 -0.327528,2.704434 -0.0088,0.976926 -0.0057,1.955236 -0.09974,2.928839 -0.08622,0.888976 -0.261014,1.768348 -0.307911,2.655912 -4.51e-4,0.788861 -0.0019,1.577734 0.0029,2.366582 0.006,0.615078 0.0048,1.23278 0.07911,1.844272 0.0989,0.57714 0.300641,1.118982 0.608697,1.619568 0,0 -5.3739672,3.059849 -5.3739672,3.059849 z"
       inkscape:connector-curvature="0" />
  </g>
  <g
     inkscape:label="4 copy"
     id="g1475"
     inkscape:groupmode="layer"
     style="display:inline"
     transform="translate(0,64.5333)">
    <path
       sodipodi:nodetypes="cccccc"
       inkscape:connector-curvature="0"
       id="path1467"
       d="M 115.16007,-44.592806 36.262892,76.123386 170.65892,58.273997 v 0 0 0"
       style="fill:#ffffff;fill-opacity:0.04500002;stroke:url(#linearGradient3597);stroke-width:9.00599766;stroke-linecap:butt;stroke-linejoin:bevel;stroke-miterlimit:4;stroke-dasharray:none;stroke-opacity:1;paint-order:normal" />
    <path
       inkscape:connector-curvature="0"
       d="m 46.993798,38.19806 c -0.240201,0.624053 -0.473743,1.25499 -0.764837,1.851725 -0.213739,0.458902 -0.410096,0.930816 -0.650548,1.37332 -0.208222,0.314532 -0.395956,0.660869 -0.531805,1.020426 -0.121488,0.412486 -0.24812,0.82424 -0.401241,1.222926 -0.207869,0.461827 -0.382111,0.941003 -0.591552,1.402043 -0.25763,0.543997 -0.473535,1.110316 -0.722111,1.659124 -0.273618,0.539502 -0.466573,1.123787 -0.743526,1.66127 -0.282688,0.595844 -0.605071,1.168474 -0.847031,1.786705 -0.272572,0.608677 -0.544857,1.215878 -0.839427,1.811829 -0.280683,0.576976 -0.626288,1.11306 -0.923841,1.679014 -0.275722,0.580623 -0.521576,1.180351 -0.813934,1.751275 -0.354973,0.663797 -0.628793,1.372952 -0.90806,2.0784 -0.265705,0.689494 -0.465007,1.407485 -0.806948,2.056093 -0.391933,0.652273 -0.675961,1.368959 -1.014397,2.053162 -0.327965,0.661 -0.610826,1.3466 -0.93911,2.007413 -0.24257,0.673371 -0.492143,1.341591 -0.759883,2.002745 -0.291808,0.667549 -0.622622,1.311685 -0.90314,1.985799 -0.313006,0.830385 -0.658144,1.644699 -1.039934,2.438097 -0.403888,0.787251 -0.736101,1.614172 -1.068816,2.44045 -0.314261,0.635909 -0.566941,1.303768 -0.834931,1.96444 -0.288562,0.734919 -0.550957,1.482679 -0.810499,2.231643 -0.236676,0.776533 -0.545833,1.515258 -0.86826,2.248644 -0.272211,0.686664 -0.603651,1.340382 -0.914489,2.00564 -0.297107,0.569122 -0.58626,1.145978 -0.804496,1.758739 -0.187544,0.746528 -0.51562,1.425762 -0.806876,2.121285 -0.188009,0.593693 -0.531015,1.098916 -0.763727,1.667312 -0.226913,0.486128 -0.436372,0.977539 -0.711155,1.434933 -0.251657,0.5051 -0.591103,0.949504 -0.881602,1.428554 -0.3689,0.611666 -0.621002,1.2955 -0.92115,1.94878 -0.317792,0.77207 -0.791159,1.447471 -1.171796,2.181693 -0.316634,0.696933 -0.670144,1.372115 -0.977617,2.074195 -0.360574,0.683039 -0.764436,1.334841 -1.094374,2.037387 -0.296245,0.768895 -0.713175,1.467128 -1.087486,2.190139 -0.314956,0.6809 -0.669395,1.33807 -0.974435,2.02463 -0.309088,0.69294 -0.646921,1.36981 -0.98986,2.0431 -0.399658,0.78502 -0.789332,1.57464 -1.15342,2.38045 -0.314728,0.70074 -0.70309,1.35413 -1.106261,1.99824 -0.34775,0.56545 -0.691153,1.13404 -1.040056,1.69892 -0.324832,0.60904 -0.654767,1.21405 -0.95785,1.83631 -0.330262,0.61219 -0.625333,1.24507 -0.952934,1.8589 -0.302225,0.58404 -0.629916,1.15306 -0.967239,1.71466 -0.271559,0.54487 -0.661373,1.00701 -0.920099,1.55871 -0.2254826,0.45705 -0.4692926,0.90876 -0.6582036,1.38632 -0.294456,0.54518 -0.552327,1.10563 -0.891422,1.62154 -0.339488,0.5156 -0.683528,1.02712 -0.9658236,1.58159 -0.3131115,0.55576 -0.6472926,1.09906 -0.9430372,1.66589 -0.3407558,0.62974 -0.6689235,1.26426 -0.9495366,1.92929 -0.3919297,0.79404 -0.716129,1.62546 -1.0817174,2.43393 -0.3203884,0.68826 -0.7090191,1.3346 -1.0870643,1.98647 -0.3250234,0.56395 -0.6667826,1.1162 -0.9949338,1.67789 -0.3194918,0.59176 -0.6267569,1.1913 -0.958871,1.77524 -0.2722671,0.4707 -0.57938837,0.92058 -0.77903207,1.43468 -0.2191737,0.47725 -0.4723006,0.93346 -0.725762,1.39024 -0.1757934,0.38906 -0.4354834,0.72045 -0.6110772,1.10869 -0.2430752,0.49314 -0.52437693,0.9591 -0.85031543,1.39498 -0.3821036,0.51993 -0.7318324,1.0636 -1.0910064,1.60089 -0.3194315,0.4371 -0.6278902,0.88049 -0.9045226,1.34827 -0.3133661,0.31377 -0.4166378,0.76538 -0.6634494,1.12358 -0.2181583,0.41752 -0.4651314,0.82264 -0.7077802,1.22705 -0.2625906,0.32523 -0.4050709,0.7232 -0.5814444,1.10379 -0.1930725,0.3756 -0.4253014,0.72071 -0.6265843,1.09066 -0.2529565,0.43442 -0.4154319,0.91878 -0.6285336,1.3764 -0.1834315,0.446 -0.3827555,0.88837 -0.6160084,1.30665 -0.1983741,0.42234 -0.3994051,0.84748 -0.6307635,1.2511 -0.084884,0.37874 -0.4105052,0.58711 -0.5029725,0.95131 -0.1256623,0.25951 -0.3440589,0.22337 -0.3538751,0.54912 -0.1959224,0.0736 -0.1754276,0.28524 -0.2690694,0.42729 -0.049457,0.075 -0.1457464,0.10705 -0.2062204,0.17307 -0.1687968,0.23766 -0.322543,0.50014 -0.4380675,0.77969 -0.2172549,0.29005 -0.4415411,0.57054 -0.6386231,0.88012 -0.154267,0.33882 -0.282504,0.69916 -0.457552,1.02494 -0.129385,0.12922 -0.259662,0.20359 -0.336315,0.3852 -0.08773,0.12566 -0.04812,0.1552 0.01191,0.37416 -0.552369,2.03066 -3.135098,2.74514 -5.115527,3.42011 -1.384652,-1.02095 4.193981,-5.31941 4.719172,-3.03359 0.0272,0.092 0.04662,0.18417 0.06341,0.27835 0.683508,2.29042 -2.846812,3.62817 -5.051787,3.55251 -2.102976,-1.38765 4.265798,-5.44351 4.692943,-3.13947 0.01314,0.0694 0.02916,0.13879 0.04575,0.20802 0.0038,0.0123 -0.0025,3.5e-4 -0.0033,4.1e-4 -1.585346,1.13873 -4.713825,1.34641 -4.756032,3.41622 -0.03981,1.95179 6.39178,-3.72052 4.669254,-2.98269 -0.06483,0.10705 -0.21711,0.0634 -0.22723,0.13018 1.4e-4,0.0836 0.0155,0.16831 0.02953,0.25263 -0.159668,-0.11157 -0.227133,-0.31461 -0.337335,-0.47392 0.169971,0.0865 0.341076,0.0921 0.514642,0.0964 0.131015,0.16036 0.209107,-0.18135 0.16199,-0.15336 -3.306128,1.96832 -9.506194,6.00356 0.307838,-0.2006 0.307292,-0.0956 0.650579,-0.0634 0.984785,-0.0557 0.412379,-0.30907 1.0031298,-0.23729 1.4651567,-0.45512 0.7052629,-0.17198 1.3781889,-0.41898 2.0986764,-0.55243 0.9238894,-0.26962 1.829399,-0.576 2.7766934,-0.78936 1.0130289,-0.14777 1.9920414,-0.38968 3.0053668,-0.53772 1.13021383,0.0587 2.2645296,0.16559 3.3950789,0.22531 1.1469689,0.0475 2.2891782,0.0584 3.4298885,0.0619 1.1909493,0.0801 2.3194087,-0.0845 3.4648047,-0.213 1.1801536,-0.13552 2.3840386,-0.1717 3.5884576,-0.196 1.066896,-0.0201 2.138158,-0.014 3.207981,-0.0174 0.921739,0.0821 1.761813,-0.0827 2.625807,-0.23276 0.842717,-0.0479 1.622919,-0.25153 2.429311,-0.41118 0.839482,-0.0598 1.621514,-0.26051 2.428716,-0.41889 0.840592,-0.0586 1.623563,-0.25856 2.431605,-0.41671 0.851142,-0.15841 1.663877,-0.42991 2.489527,-0.65861 0.860159,-0.22362 1.678641,-0.53386 2.565564,-0.69563 0.675913,-0.29876 1.434123,-0.39766 2.198077,-0.45986 0.78277,-0.0449 1.573761,-0.0502 2.364269,-0.0539 0.756154,0.0461 1.46133,-0.004 2.168577,-0.15196 0.779952,-0.19697 1.639267,-0.12744 2.417158,-0.31669 0.792618,-0.20517 1.627012,-0.28165 2.466854,-0.32622 0.658766,-0.24293 1.367853,-0.34398 2.091675,-0.4005 0.747168,-0.24298 1.545283,-0.34724 2.352357,-0.41114 0.778005,-0.23543 1.598439,-0.35023 2.432043,-0.41641 0.805893,-0.0851 1.583338,-0.27535 2.384326,-0.39244 0.681865,-0.0739 1.380331,-0.079 2.076516,-0.0845 0.687785,0.003 1.374935,0.003 2.062044,0.003 0.745369,0.0479 1.438494,-0.008 2.134913,-0.15335 0.809757,-0.12101 1.612189,-0.21023 2.398555,-0.39679 0.80226,-0.18445 1.646017,-0.23263 2.490226,-0.26192 0.825336,-0.053 1.608549,-0.26014 2.429915,-0.34722 0.726857,-0.0756 1.467054,-0.0862 2.208801,-0.0884 0.808409,0.0571 1.53926,-0.17469 2.308755,-0.28219 0.83252,-0.0602 1.644712,-0.11416 2.443473,-0.2846 0.804444,-0.16969 1.644908,-0.21712 2.486476,-0.24582 0.825062,-0.053 1.607891,-0.26066 2.428966,-0.34798 0.814185,0.01 1.544205,-0.24175 2.313234,-0.38442 0.716372,-0.16148 1.411082,-0.36003 2.158128,-0.44931 0.759376,-0.26504 1.575166,-0.38064 2.402498,-0.449 0.68481,-0.2263 1.392619,-0.36453 2.135281,-0.42472 0.675667,-0.0626 1.367558,-0.0498 2.055664,-0.0482 0.802655,0.0554 1.539029,-0.15071 2.293308,-0.28942 0.740183,-0.0235 1.411528,-0.21532 2.115604,-0.35271 0.786064,-0.088 1.458494,-0.14686 2.203804,-0.35202 0.571,-0.19032 1.201683,-0.22443 1.824126,-0.24955 0.620319,-0.0584 1.182198,-0.27557 1.807988,-0.3471 0.58826,-0.0743 1.1942,-0.0804 1.798351,-0.0802 0.55878,-0.003 1.11827,-0.003 1.67824,0.001 0.56528,0.19189 1.13633,0.30789 1.70959,0.37864 0.53554,0.0426 1.0662,0.04 1.59693,0.0445 0.56708,-0.003 1.13521,-8.2e-4 1.70169,-0.008 0.44986,-0.003 0.90068,-8.2e-4 1.3504,-0.004 0.39496,0.004 0.78759,-0.004 1.18204,-0.001 0.37446,3e-4 0.74869,-8.2e-4 1.12362,0.003 0.47057,8.2e-4 0.94118,0.001 1.41227,0.007 0.49093,-6e-5 0.98096,-0.007 1.47223,-0.003 0.3858,-0.003 0.772,-0.003 1.15774,-0.007 2.59505,-0.20274 -6.46223,4.25797 -4.33427,2.70277 0.0678,-0.0502 0.13509,-0.10116 0.20293,-0.15149 0.3375,0.49896 0.088,-0.1484 0.051,-0.2542 0.90024,10.73733 3.05727,-3.97616 5.22517,-3.17248 0.16044,0.0517 0.32949,0.0366 0.48933,0.0378 0.25294,8.2e-4 0.50611,0.003 0.75887,0.003 0.3517,0.008 0.70094,-2.4e-4 1.0519,0.003 0.23693,-0.003 0.47393,-0.007 0.71142,-0.007 2.16256,-0.0197 2.8587,-1.66241 -4.55441,3.27846 -0.0727,-0.0934 -0.0446,-0.10431 -0.0881,-0.0517 -0.23005,0.0331 -0.48997,0.003 -0.73038,-0.003 0,0 4.41624,-3.58854 4.41624,-3.58854 v 0 c 0.36541,0.0266 0.70037,0.0474 1.03462,0.27551 1.91192,1.78457 -2.32568,3.85264 -4.51886,3.74404 -0.23226,7e-5 -0.46463,-0.001 -0.69759,-0.007 -0.35265,0.003 -0.70709,-0.004 -1.05905,0.003 -0.25679,-8.1e-4 -0.51303,0.001 -0.77026,-0.001 -0.15134,-0.001 -0.33423,-0.0308 -0.46677,0.0224 -0.0108,0.0746 -0.0767,0.10513 -0.13584,0.14979 1.56616,-1.02575 3.13234,-2.0515 4.69851,-3.07723 -0.42215,-0.40527 0.006,0.23783 0.0286,0.36492 -0.0737,0.0572 -0.14824,0.11307 -0.22318,0.16875 -1.6824,1.26485 -3.1992,3.31414 -5.519,3.2045 -0.38162,-0.003 -0.76283,-0.003 -1.14432,-0.007 -0.48715,0.001 -0.97548,-0.003 -1.46291,-0.003 -0.47512,0.003 -0.95065,0.004 -1.42628,0.007 -0.37605,0.003 -0.75287,0.001 -1.12937,0.003 -0.39195,0.003 -0.78585,-0.008 -1.17736,-0.001 -0.44725,-0.003 -0.89337,-4.1e-4 -1.34035,-0.003 -0.56499,-0.004 -1.12811,0.001 -1.69356,-0.008 -0.5552,-0.004 -1.113861,-0.0123 -1.677191,-0.11034 -0.54288,-0.10389 -1.09015,-0.28271 -1.630329,-0.30658 -0.556454,0.001 -1.113838,-0.001 -1.669393,0.007 -0.583577,0.0177 -1.166969,0.0408 -1.729913,0.14204 -0.612793,0.12415 -1.200785,0.3199 -1.854472,0.31118 -0.59758,0.0563 -1.176929,0.15672 -1.738076,0.32128 -0.722246,0.15634 -1.495315,0.14653 -2.210528,0.3288 -0.700589,0.1549 -1.417251,0.23876 -2.134695,0.34207 -0.775826,0.1273 -1.545802,0.2603 -2.36511,0.20871 -0.674799,0.01 -1.349783,0.0216 -2.009278,0.10157 -0.72141,0.10745 -1.402018,0.32171 -2.128652,0.41237 -0.81533,0.10636 -1.591946,0.30827 -2.38688,0.47312 -0.726601,0.13443 -1.414936,0.36262 -2.14826,0.47826 -0.763538,0.16118 -1.533954,0.28741 -2.330566,0.33999 -0.817244,0.11758 -1.613763,0.31313 -2.462793,0.3114 -0.823361,0.0497 -1.636309,0.13957 -2.424707,0.31135 -0.808154,0.13538 -1.652215,0.13032 -2.459975,0.26949 -0.78063,0.13114 -1.554873,0.27038 -2.379647,0.22328 -0.722457,0.0156 -1.443926,0.0431 -2.149497,0.13332 -0.817383,0.11732 -1.61407,0.31215 -2.462883,0.31152 -0.823237,0.0517 -1.636151,0.14467 -2.416507,0.33979 -0.795728,0.16237 -1.626529,0.21178 -2.420378,0.38201 -0.725663,0.10787 -1.478037,0.0794 -2.227128,0.0805 -0.686419,-0.003 -1.373235,-0.008 -2.05692,0.007 -0.676794,0.0123 -1.353914,0.0316 -2.008391,0.14003 -0.799159,0.11923 -1.572165,0.32243 -2.394642,0.36219 -0.824721,0.10075 -1.615242,0.29406 -2.432223,0.41734 -0.800835,0.0994 -1.566258,0.29171 -2.356984,0.42033 -0.710934,0.0984 -1.382434,0.3039 -2.100153,0.37608 -0.824316,0.0719 -1.627673,0.20609 -2.422902,0.37306 -0.812132,0.0879 -1.631352,0.15134 -2.419076,0.32214 -0.734485,0.10787 -1.496144,0.0752 -2.253357,0.0797 -0.774595,0.003 -1.551204,0.007 -2.307494,0.0968 -0.747208,0.10677 -1.447866,0.31419 -2.16139,0.50937 -0.849991,0.20614 -1.665843,0.48786 -2.511239,0.7052 -0.832104,0.24447 -1.667412,0.48717 -2.536574,0.63786 -0.801252,0.17209 -1.621695,0.27044 -2.431366,0.41703 -0.800333,0.17258 -1.619804,0.27196 -2.428439,0.41946 -0.8027,0.17326 -1.622977,0.27479 -2.443559,0.39346 -0.875537,0.14436 -1.767356,0.17676 -2.683502,0.13972 -1.062148,-0.004 -2.1234096,-0.003 -3.1818666,0.0156 -1.1905801,0.0305 -2.3768779,0.0879 -3.5409864,0.23426 -1.1580785,0.13957 -2.3258624,0.21129 -3.5238259,0.16017 -1.14843477,-0.01 -2.29688207,-0.014 -3.4535086,-0.0849 -1.1075714,-0.0632 -2.2367901,-0.21742 -3.3175836,-0.11101 -0.9950652,0.17019 -1.9795997,0.37441 -2.9644764,0.57339 -0.9362435,0.25522 -1.8528475,0.55683 -2.7962195,0.79592 -0.700573,0.20092 -1.407832,0.38562 -2.095672,0.6148 -0.536947,0.10691 -1.046769,0.30093 -1.598591,0.34221 -0.304652,0.0309 -0.583533,0.0869 -0.818077,0.26347 11.7548881,-7.51109 0.523266,-0.30452 -0.321453,0.19679 -0.05167,0.0307 -0.28764,-0.1143 -0.371508,-0.0667 -0.127346,-0.007 -0.326089,-0.0565 -0.362625,0.0873 -0.110878,-0.11115 -0.379466,-0.29674 -0.448009,-0.49504 -0.02188,-0.108 -0.03804,-0.21599 -0.0573,-0.32402 -0.04881,-0.22228 -0.140326,-0.34866 -0.02051,-0.54041 0.01394,-0.035 0.01054,-0.0845 0.04159,-0.10485 9.8418172,-6.47927 3.220229,-1.99424 0.322385,0.15428 -0.01191,-0.0762 -0.02333,-0.15257 -0.03603,-0.2288 -0.385096,-2.25486 6.26719,-1.49918 4.707234,-3.51325 1.543623,-1.5513 -6.667674,1.93298 -4.355207,3.09697 -0.01342,-0.0849 -0.0082,-0.1456 -0.03733,-0.22414 -0.621699,-2.2872 3.712369,-1.64939 4.61103,-3.72512 1.649882,-1.26718 -6.878962,3.3385 -4.450036,2.94578 0.291612,0.1915 0.03324,-0.0775 0.06635,-0.23339 0.01628,-0.22373 0.01369,-0.55983 0.1976,-0.66643 0.08372,-0.0509 0.195985,-0.0726 0.252044,-0.15196 0.139458,-0.19775 0.08702,-0.54377 0.339415,-0.67772 0.034,-0.21228 0.09211,-0.45613 0.21915,-0.62537 0.03489,-0.0465 0.106362,-0.0578 0.139024,-0.10595 0.273096,-0.40269 -0.143237,-0.0216 0.185337,-0.29281 0.268919,-0.19762 0.01054,0.0368 0.169609,-0.28055 0.04015,-0.0802 0.171006,-0.0883 0.202942,-0.17301 0.02223,-0.0589 3.22e-4,-0.1321 4.68e-4,-0.19812 0.0206,-0.0379 0.04122,-0.076 0.06182,-0.11389 0.04953,-0.0921 0.05237,-0.22269 0.137119,-0.28356 0.03482,-0.0249 0.101351,0.0246 0.139148,0.003 0.09593,-0.0532 0.09333,-0.29658 0.153074,-0.37762 0.321174,0.0798 0.0079,-0.5097 0.394321,-0.50346 0.213099,-0.0875 0.113398,-0.22292 0.211312,-0.40992 0.08721,-0.16659 0.306261,-0.25677 0.385089,-0.43293 0.128907,-0.44917 0.400979,-0.86117 0.632584,-1.24904 0.13289,-0.46152 0.412894,-0.87594 0.633024,-1.2879 0.134272,-0.49922 0.397379,-0.95442 0.583734,-1.42709 0.174307,-0.39346 0.366814,-0.75093 0.615619,-1.09407 0.210357,-0.38095 0.350662,-0.79459 0.56482,-1.16538 0.2666105,-0.37076 0.4538132,-0.80558 0.738615,-1.15082 0.069936,-0.22669 0.220239,-0.32508 0.3098453,-0.53132 0.1013102,-0.23322 0.127086,-0.51101 0.3056635,-0.70692 0.3866513,-0.38293 0.5493717,-0.93265 0.9287557,-1.3295 0.3778823,-0.52412 0.6963023,-1.0954 1.1081833,-1.58895 0.2605632,-0.46461 0.6284076,-0.8372 0.850752,-1.32813 0.1017892,-0.17998 0.1402476,-0.39715 0.2431334,-0.57255 0.1200773,-0.2047 0.1616595,-0.10143 0.2770006,-0.3216 0.040163,-0.0767 0.052729,-0.16774 0.079093,-0.25161 0.2766693,-0.43714 0.5284266,-0.89479 0.7552349,-1.35605 0.2922841,-0.46867 0.4053966,-1.05509 0.7697463,-1.48492 0.364503,-0.56065 0.6816992,-1.15963 0.9661656,-1.76708 0.3292861,-0.56672 0.6523164,-1.1261 0.9995154,-1.68086 0.3841968,-0.6522 0.771241,-1.29429 1.13692093,-1.95928 0.3985551,-0.78101 0.6684173,-1.63087 1.0792421,-2.40478 0.2870952,-0.66502 0.5292355,-1.35322 0.91672587,-1.95978 0.2925538,-0.57311 0.6058487,-1.12766 0.9056822,-1.69691 0.36955,-0.49127 0.5390518,-1.13808 0.9848288,-1.57846 0.2875217,-0.53843 0.6813254,-0.99582 0.8688717,-1.59729 0.3106037,-0.38995 0.4337706,-0.94489 0.67149,-1.39131 0.3340758,-0.49987 0.5218767,-1.10138 0.9409127,-1.5479 0.2673433,-0.59935 0.6531172,-1.13925 0.9816298,-1.69934 0.2713718,-0.64486 0.6459374,-1.23895 0.9436983,-1.86846 0.318188,-0.61627 0.606185,-1.246 0.950419,-1.84638 0.276555,-0.61124 0.676674,-1.1631 1.041849,-1.7148 0.342745,-0.68279 0.8543946,-1.25877 1.1276716,-1.98723 0.44217,-0.75149 0.709965,-1.61496 1.164445,-2.3623 0.301089,-0.69366 0.671823,-1.34782 0.98977,-2.03195 0.313363,-0.68999 0.630997,-1.3749 0.95923,-2.05362 0.374063,-0.7152 0.785791,-1.40643 1.113344,-2.14957 0.272011,-0.733307 0.626839,-1.430857 1.085697,-2.047259 0.317746,-0.70527 0.638702,-1.406762 0.965756,-2.104256 0.374317,-0.734701 0.788699,-1.436781 1.194144,-2.148197 0.268946,-0.674621 0.593752,-1.318045 0.838157,-2.005464 0.300831,-0.469181 0.570946,-0.949176 0.913655,-1.383395 0.203215,-0.498105 0.563633,-0.905577 0.706922,-1.440888 0.320616,-0.502581 0.48507,-1.111496 0.821257,-1.610695 0.217355,-0.723736 0.63545,-1.338537 0.82362,-2.078782 0.132671,-0.670637 0.431767,-1.277458 0.750979,-1.855094 0.330596,-0.650172 0.632732,-1.314527 0.945481,-1.975021 0.276373,-0.753207 0.677759,-1.437314 0.899207,-2.21805 0.226867,-0.760802 0.503469,-1.501074 0.778812,-2.238662 0.222877,-0.698138 0.532378,-1.356593 0.825116,-2.019345 0.425266,-0.779942 0.650653,-1.679249 1.075185,-2.463298 0.410818,-0.760886 0.759048,-1.566385 1.043617,-2.395428 0.287988,-0.66779 0.535312,-1.355593 0.894864,-1.982755 0.290004,-0.648913 0.570979,-1.309175 0.750642,-2.011624 0.280204,-0.687469 0.656739,-1.327168 0.934962,-2.016391 0.314999,-0.701203 0.645634,-1.396598 1.001941,-2.074248 0.110701,-0.21182 0.256585,-0.401004 0.365805,-0.613739 0.220692,-0.429865 0.278378,-0.954778 0.470002,-1.400056 0.303711,-0.695032 0.532974,-1.428572 0.880653,-2.098144 0.26029,-0.582118 0.541222,-1.154189 0.82905,-1.720881 0.198937,-0.637267 0.607828,-1.143256 0.906793,-1.725846 0.310588,-0.583057 0.598317,-1.170173 0.837619,-1.793514 0.327176,-0.564179 0.49902,-1.228132 0.844934,-1.785705 0.247251,-0.557192 0.553512,-1.078613 0.736754,-1.67476 0.296507,-0.513048 0.456818,-1.091229 0.738963,-1.611961 0.174855,-0.483811 0.394732,-0.936695 0.571762,-1.411881 0.186124,-0.368523 0.310014,-0.759083 0.429976,-1.155235 0.09917,-0.42545 0.290447,-0.777148 0.442816,-1.178782 0.328773,-0.375373 0.499297,-0.849941 0.727911,-1.300126 0.257106,-0.594553 0.577227,-1.155824 0.76912,-1.787119 0,0 5.223692,-2.549095 5.223692,-2.549095 z"
       id="path1469"
       style="opacity:0.61000001;fill:#ffffff;fill-opacity:0.02577317;stroke:#e27600;stroke-width:32.99410629;stroke-linecap:butt;stroke-linejoin:bevel;stroke-miterlimit:4;stroke-dasharray:0, 362.93519187;stroke-dashoffset:213;stroke-opacity:1;paint-order:normal" />
    <path
       inkscape:connector-curvature="0"
       d="m 2.7341623,-54.716648 c 0.087868,1.123774 0.2804762,2.231289 0.4698116,3.341009 0.1355045,1.265717 0.3691763,2.517093 0.5130186,3.781497 0.1614077,1.428985 0.1654089,2.869215 0.1758083,4.305371 0.013004,1.536926 0.010266,3.073842 0.00548,4.610801 0.019643,1.52145 -0.052099,3.046944 0.04557,4.566005 0.1374592,1.381873 0.2668586,2.763742 0.3297938,4.151226 -0.01273,1.269457 0.1704751,2.523677 0.2962647,3.783349 0.070292,1.210753 0.1828388,2.411762 0.3483942,3.613158 0.098244,0.981948 0.2319155,1.952229 0.4194289,2.920726 0.066377,0.672469 0.2743601,1.304653 0.4869745,1.94052 0.1125212,0.30279 0.1694854,0.622595 0.2252396,0.93977 0.030361,0.136558 0.019698,0.277457 0.022285,0.416468 1.93e-4,0.05158 0.00356,0.103035 0.00671,0.154467 -0.4594602,-0.750652 -4.503e-4,-0.339298 0.192247,-0.05233 0,0 -5.35220367,3.174824 -5.35220367,3.174824 v 0 c 0.11783247,0.334743 -0.387166,-0.07557 -0.4109063,-0.300059 0.00506,-0.05152 0.010403,-0.103103 0.011499,-0.154971 0.00479,-0.119626 0.00301,-0.239398 0.012183,-0.358701 -0.00315,-0.288356 -0.041121,-0.576794 -0.1227467,-0.853778 -0.1874956,-0.671115 -0.431816,-1.323556 -0.4719197,-2.027012 -0.179166,-0.985849 -0.3415666,-1.964853 -0.3997351,-2.967391 -0.1572615,-1.210883 -0.3069532,-2.415502 -0.3452658,-3.637802 -0.126856,-1.271157 -0.33281063,-2.536139 -0.30475633,-3.817551 -0.056236,-1.384738 -0.1495089,-2.766845 -0.309352,-4.143955 -0.113463,-1.534373 -0.020373,-3.074257 -0.049181,-4.61169 -0.00201,-1.534841 0.00226,-3.069701 -0.00364,-4.6045 -0.017431,-1.412913 -0.037615,-2.827819 -0.1735408,-4.235391 -0.1453444,-1.252914 -0.3893016,-2.490027 -0.5161794,-3.745043 -0.1778263,-1.094006 -0.3743702,-2.183549 -0.5469876,-3.277479 0,0 5.445728,-2.911536 5.445728,-2.911536 z"
       id="path1471"
       style="opacity:0.61000001;fill:#ffffff;fill-opacity:0.02577317;stroke:#e27600;stroke-width:4.9568615;stroke-linecap:butt;stroke-linejoin:bevel;stroke-miterlimit:4;stroke-dasharray:0, 54.52547393;stroke-dashoffset:0;stroke-opacity:1;paint-order:normal" />
    <path
       inkscape:connector-curvature="0"
       d="m 6.0789415,-16.192281 c -0.2879858,-0.571183 -0.53703,-1.150532 -0.6704991,-1.77736 -0.1144732,-0.644953 -0.1179857,-1.299452 -0.1193819,-1.952086 0.00311,-0.792915 0.00795,-1.585821 0.010431,-2.378742 -0.015616,-0.916528 0.1970667,-1.814358 0.2992749,-2.721762 0.093412,-0.956517 0.1185716,-1.917917 0.1282084,-2.878373 -0.028815,-0.927239 0.1670352,-1.838813 0.2810169,-2.754577 0.032853,-0.792922 0.1813878,-1.565702 0.3429844,-2.339804 0.062407,-0.661617 0.2555655,-1.293423 0.4030531,-1.937893 0.077382,-0.599529 0.2591163,-1.170244 0.4099482,-1.752632 0.1198309,-0.445328 0.1695114,-0.904943 0.1860254,-1.364652 -0.024982,-0.515808 0.084117,-1.001153 0.2317362,-1.49039 0.1195572,-0.401565 0.1566014,-0.816364 0.1836834,-1.232103 0.0115,-0.360273 -0.0021,-0.720624 0.0144,-1.080585 0.06204,-0.280779 0.226989,-0.508493 0.312679,-0.781471 0.06836,-0.133479 0.07113,-0.28674 0.07689,-0.43366 0,0 5.5603396,-2.806737 5.5603396,-2.806737 v 0 c -0.007,0.191424 -0.02327,0.382596 -0.01979,0.574267 -0.07584,0.283579 -0.115081,0.581364 -0.32294,0.801364 -0.224944,0.18329 -0.03577,0.67195 -0.100243,0.939181 -0.0048,0.453771 -0.02664,0.912514 -0.132,1.355276 -0.101775,0.465263 -0.346688,0.878929 -0.281034,1.36573 -0.01862,0.500692 -0.03918,1.001392 -0.145359,1.493226 -0.150302,0.585249 -0.37577,1.138223 -0.424261,1.742546 -0.150395,0.642147 -0.36905,1.263617 -0.423541,1.922878 -0.137955,0.771009 -0.398035,1.515284 -0.383336,2.308903 -0.100037,0.903439 -0.317541,1.795413 -0.327528,2.704434 -0.0088,0.976926 -0.0057,1.955236 -0.09974,2.928839 -0.08622,0.888976 -0.261014,1.768348 -0.307911,2.655912 -4.51e-4,0.788861 -0.0019,1.577734 0.0029,2.366582 0.006,0.615078 0.0048,1.23278 0.07911,1.844272 0.0989,0.57714 0.300641,1.118982 0.608697,1.619568 0,0 -5.3739672,3.059849 -5.3739672,3.059849 z"
       id="path1473"
       style="opacity:0.61000001;fill:#ffffff;fill-opacity:0.02577317;stroke:#e27600;stroke-width:4.9568615;stroke-linecap:butt;stroke-linejoin:bevel;stroke-miterlimit:4;stroke-dasharray:0, 54.52547393;stroke-dashoffset:0;stroke-opacity:1;paint-order:normal" />
  </g>
  <g
     style="display:inline;opacity:1"
     id="g2801"
     inkscape:groupmode="layer"
     inkscape:label="Circle copy 1"
     transform="translate(0,-97)">
    <path
       sodipodi:open="true"
       d="m 95.716325,272.52771 a 50,50 0 0 1 -68.115352,-14.11898 50,50 0 0 1 11.918981,-68.53455 50,50 0 0 1 68.882716,9.70663 50,50 0 0 1 -7.48422,69.15948"
       sodipodi:end="0.8770974"
       sodipodi:start="1.0058823"
       sodipodi:ry="50"
       sodipodi:rx="50"
       sodipodi:cy="230.29597"
       sodipodi:cx="68.949165"
       sodipodi:type="arc"
       id="path2799"
       style="opacity:1;fill:#5f2ad8;fill-opacity:0.00952382;stroke:url(#linearGradient3543);stroke-width:3.70000005;stroke-miterlimit:4;stroke-dasharray:none;stroke-opacity:1;filter:url(#filter3261)"
       transform="matrix(1.5490191,0,0,1.5490191,-7.7933301,-162.78649)" />
  </g>
  <g
     inkscape:label="Circle copy 1 copy"
     inkscape:groupmode="layer"
     id="g2939"
     style="display:none;opacity:1"
     transform="translate(0,-97)">
    <path
       style="opacity:1;fill:url(#linearGradient3535);fill-opacity:1;stroke:url(#linearGradient3527);stroke-width:8.10000038;stroke-miterlimit:4;stroke-dasharray:none;stroke-opacity:1"
       id="path2937"
       sodipodi:type="arc"
       sodipodi:cx="66.174202"
       sodipodi:cy="221.78087"
       sodipodi:rx="56.58017"
       sodipodi:ry="56.58017"
       sodipodi:start="1.00613"
       sodipodi:end="0.8870985"
       d="m 96.452173,269.57794 a 56.58017,56.58017 0 0 1 -77.153007,-16.11038 56.58017,56.58017 0 0 1 13.807674,-77.59818 56.58017,56.58017 0 0 1 77.97466,11.49274 56.58017,56.58017 0 0 1 -9.16764,78.28209"
       sodipodi:open="true" />
    <text
       xml:space="preserve"
       style="font-style:normal;font-weight:normal;font-size:10.58333302px;line-height:1.25;font-family:sans-serif;letter-spacing:0px;word-spacing:0px;fill:#000000;fill-opacity:1;stroke:none;stroke-width:0.26458332"
       x="187.8327"
       y="262.01901"
       id="text3650"><tspan
         sodipodi:role="line"
         id="tspan3648"
         x="187.8327"
         y="271.38278"
         style="stroke-width:0.26458332" /></text>
  </g>
  <g
     transform="translate(0,-97)"
     style="display:inline;opacity:1"
     id="g4280"
     inkscape:groupmode="layer"
     inkscape:label="Circle copy 1 copy copy">
    <path
       sodipodi:open="true"
       d="M 140.45689,259.3744 A 77.450958,77.450958 0 0 1 34.844373,237.32137 77.450958,77.450958 0 0 1 53.745298,131.09945 77.450958,77.450958 0 0 1 160.48255,146.83154 77.450958,77.450958 0 0 1 147.93324,253.98962"
       sodipodi:end="0.8870985"
       sodipodi:start="1.00613"
       sodipodi:ry="77.450958"
       sodipodi:rx="77.450958"
       sodipodi:cy="193.94637"
       sodipodi:cx="99.010254"
       sodipodi:type="arc"
       id="path4274"
       style="opacity:1;fill:#00c4d8;fill-opacity:0;stroke:url(#linearGradient4292);stroke-width:8.89766216;stroke-miterlimit:4;stroke-dasharray:none;stroke-opacity:1" />
    <text
       id="text4278"
       y="262.01901"
       x="187.8327"
       style="font-style:normal;font-weight:normal;font-size:10.58333302px;line-height:1.25;font-family:sans-serif;letter-spacing:0px;word-spacing:0px;fill:#000000;fill-opacity:1;stroke:none;stroke-width:0.26458332"
       xml:space="preserve"><tspan
         style="stroke-width:0.26458332"
         y="271.38278"
         x="187.8327"
         id="tspan4276"
         sodipodi:role="line" /></text>
  </g>
  <g
     inkscape:groupmode="layer"
     id="layer2"
     inkscape:label="Countours"
     transform="translate(0,64.5333)"
     style="display:inline" />
</svg>
