<?xml version="1.0" encoding="UTF-8" standalone="no"?>
<!-- Created with Inkscape (http://www.inkscape.org/) -->

<svg
   xmlns:osb="http://www.openswatchbook.org/uri/2009/osb"
   xmlns:dc="http://purl.org/dc/elements/1.1/"
   xmlns:cc="http://creativecommons.org/ns#"
   xmlns:rdf="http://www.w3.org/1999/02/22-rdf-syntax-ns#"
   xmlns:svg="http://www.w3.org/2000/svg"
   xmlns="http://www.w3.org/2000/svg"
   xmlns:xlink="http://www.w3.org/1999/xlink"
   xmlns:sodipodi="http://sodipodi.sourceforge.net/DTD/sodipodi-0.dtd"
   xmlns:inkscape="http://www.inkscape.org/namespaces/inkscape"
   width="433mm"
   height="150mm"
   viewBox="0 0 433 150"
   version="1.1"
   id="svg8"
   inkscape:version="0.92.5 (2060ec1f9f, 2020-04-08)"
   sodipodi:docname="Title.svg">
  <defs
     id="defs2">
    <linearGradient
       id="linearGradient4310"
       inkscape:collect="always">
      <stop
         id="stop4306"
         offset="0"
         style="stop-color:#c71122;stop-opacity:1;" />
      <stop
         id="stop4308"
         offset="1"
         style="stop-color:#1504d4;stop-opacity:1" />
    </linearGradient>
    <linearGradient
       inkscape:collect="always"
       id="linearGradient4304">
      <stop
         style="stop-color:#c71122;stop-opacity:1;"
         offset="0"
         id="stop4300" />
      <stop
         style="stop-color:#0b026d;stop-opacity:1"
         offset="1"
         id="stop4302" />
    </linearGradient>
    <linearGradient
       id="linearGradient4286"
       inkscape:collect="always">
      <stop
         id="stop4282"
         offset="0"
         style="stop-color:#c71122;stop-opacity:1;" />
      <stop
         id="stop4284"
         offset="1"
         style="stop-color:#0b026d;stop-opacity:0.78431374" />
    </linearGradient>
    <linearGradient
       inkscape:collect="always"
       id="linearGradient3533">
      <stop
         style="stop-color:#00c4d8;stop-opacity:1;"
         offset="0"
         id="stop3529" />
      <stop
         style="stop-color:#00c4d8;stop-opacity:0;"
         offset="1"
         id="stop3531" />
    </linearGradient>
    <linearGradient
       inkscape:collect="always"
       id="linearGradient3525">
      <stop
         style="stop-color:#c71122;stop-opacity:1;"
         offset="0"
         id="stop3521" />
      <stop
         style="stop-color:#1504d4;stop-opacity:0.78500003"
         offset="1"
         id="stop3523" />
    </linearGradient>
    <linearGradient
       inkscape:collect="always"
       id="linearGradient871">
      <stop
         style="stop-color:#ffffff;stop-opacity:1;"
         offset="0"
         id="stop867" />
      <stop
         style="stop-color:#ffffff;stop-opacity:0;"
         offset="1"
         id="stop869" />
    </linearGradient>
    <linearGradient
       inkscape:collect="always"
       id="linearGradient861">
      <stop
         style="stop-color:#f80000;stop-opacity:0.61"
         offset="0"
         id="stop857" />
      <stop
         style="stop-color:#002ad8;stop-opacity:0.71"
         offset="1"
         id="stop859" />
    </linearGradient>
    <linearGradient
       inkscape:collect="always"
       id="linearGradient6666">
      <stop
         style="stop-color:#e27600;stop-opacity:1"
         offset="0"
         id="stop852" />
      <stop
         style="stop-color:#05008d;stop-opacity:1"
         offset="1"
         id="stop854" />
    </linearGradient>
    <linearGradient
       inkscape:collect="always"
       id="linearGradient6718">
      <stop
         style="stop-color:#fe0000;stop-opacity:1"
         offset="0"
         id="stop6714" />
      <stop
         style="stop-color:#0500d2;stop-opacity:1"
         offset="1"
         id="stop6716" />
    </linearGradient>
    <linearGradient
       id="linearGradient6666-3"
       inkscape:collect="always">
      <stop
         id="stop6662"
         offset="0"
         style="stop-color:#e20000;stop-opacity:1" />
      <stop
         id="stop6664"
         offset="1"
         style="stop-color:#05008d;stop-opacity:1" />
    </linearGradient>
    <linearGradient
       inkscape:collect="always"
       id="linearGradient6562">
      <stop
         style="stop-color:#cd0000;stop-opacity:1;"
         offset="0"
         id="stop6558" />
      <stop
         style="stop-color:#cd0000;stop-opacity:0;"
         offset="1"
         id="stop6560" />
    </linearGradient>
    <linearGradient
       id="linearGradient6298"
       osb:paint="solid">
      <stop
         style="stop-color:#3e4a18;stop-opacity:1;"
         offset="0"
         id="stop6296" />
    </linearGradient>
    <inkscape:perspective
       sodipodi:type="inkscape:persp3d"
       inkscape:vp_x="0 : 67.733332 : 1"
       inkscape:vp_y="0 : 999.99994 : 0"
       inkscape:vp_z="135.46668 : 67.733332 : 1"
       inkscape:persp3d-origin="67.733334 : 45.155553 : 1"
       id="perspective4771" />
    <linearGradient
       id="linearGradient4758"
       osb:paint="solid">
      <stop
         style="stop-color:#ff0000;stop-opacity:1;"
         offset="0"
         id="stop4756" />
    </linearGradient>
    <clipPath
       clipPathUnits="userSpaceOnUse"
       id="clipPath3867">
      <g
         style="fill:#ffffff"
         id="use3869"
         inkscape:label="Clip">
        <circle
           r="48"
           style="fill:#ffffff;stroke-width:0.26458332"
           id="circle4795"
           cx="19.315588"
           cy="14.293535" />
      </g>
    </clipPath>
    <linearGradient
       inkscape:collect="always"
       xlink:href="#linearGradient4758"
       id="linearGradient4760"
       x1="17.73333"
       y1="229.26666"
       x2="117.73333"
       y2="229.26666"
       gradientUnits="userSpaceOnUse" />
    <linearGradient
       inkscape:collect="always"
       xlink:href="#linearGradient6718"
       id="linearGradient4818"
       x1="72.987419"
       y1="98.890343"
       x2="119.14142"
       y2="98.890343"
       gradientUnits="userSpaceOnUse"
       gradientTransform="matrix(0.87861598,-0.75143759,0.23665622,2.3190647,-9.6238489,-75.309822)" />
    <linearGradient
       inkscape:collect="always"
       xlink:href="#linearGradient6562"
       id="linearGradient6580"
       x1="17.761438"
       y1="230.02711"
       x2="119.06144"
       y2="230.02711"
       gradientUnits="userSpaceOnUse" />
    <linearGradient
       inkscape:collect="always"
       xlink:href="#linearGradient6718"
       id="linearGradient6822"
       x1="25.060455"
       y1="55.468498"
       x2="124.35416"
       y2="114.3"
       gradientUnits="userSpaceOnUse"
       gradientTransform="matrix(0.95368279,-0.11320142,-0.21495379,1.0155393,24.278271,8.2529213)" />
    <radialGradient
       inkscape:collect="always"
       xlink:href="#linearGradient6666"
       id="radialGradient850"
       cx="52.916668"
       cy="246.72916"
       fx="52.916668"
       fy="246.72916"
       r="50"
       gradientUnits="userSpaceOnUse"
       gradientTransform="matrix(1.1316034,0,0,1.1316034,-11.848909,-38.822832)" />
    <radialGradient
       inkscape:collect="always"
       xlink:href="#linearGradient861"
       id="radialGradient865"
       cx="68.142578"
       cy="230.29597"
       fx="68.142578"
       fy="230.29597"
       r="50"
       gradientUnits="userSpaceOnUse"
       gradientTransform="matrix(1.1316034,0,0,1.1316034,-11.848909,-38.822832)" />
    <linearGradient
       inkscape:collect="always"
       xlink:href="#linearGradient871"
       id="linearGradient873"
       x1="-60.854168"
       y1="61.383335"
       x2="-60.762787"
       y2="61.529644"
       gradientUnits="userSpaceOnUse"
       gradientTransform="matrix(0.97561685,0.22273725,-0.22257704,0.97491509,16.639543,-13.519968)" />
    <filter
       inkscape:collect="always"
       style="color-interpolation-filters:sRGB"
       id="filter2177"
       x="-0.092445418"
       width="1.1848907"
       y="-0.10292154"
       height="1.2058431">
      <feGaussianBlur
         inkscape:collect="always"
         stdDeviation="3.3419793"
         id="feGaussianBlur2179" />
    </filter>
    <linearGradient
       inkscape:collect="always"
       xlink:href="#linearGradient6666-3"
       id="linearGradient2803"
       gradientUnits="userSpaceOnUse"
       gradientTransform="translate(0.53772379,0.26886189)"
       x1="95.25"
       y1="270.54166"
       x2="79.375"
       y2="254.66666" />
    <filter
       inkscape:collect="always"
       style="color-interpolation-filters:sRGB"
       id="filter3261"
       x="-0.054000001"
       width="1.108"
       y="-0.054000001"
       height="1.108">
      <feGaussianBlur
         inkscape:collect="always"
         stdDeviation="2.25"
         id="feGaussianBlur3263" />
    </filter>
    <radialGradient
       inkscape:collect="always"
       xlink:href="#linearGradient6666-3"
       id="radialGradient3273"
       gradientUnits="userSpaceOnUse"
       gradientTransform="matrix(0.80192049,-0.4528703,0.21871605,1.9486225,-2.4603639,-55.807307)"
       cx="96.064423"
       cy="98.890343"
       fx="96.064423"
       fy="98.890343"
       r="23.077003" />
    <linearGradient
       inkscape:collect="always"
       xlink:href="#linearGradient6666-3"
       id="linearGradient3275"
       gradientUnits="userSpaceOnUse"
       gradientTransform="matrix(0.80192049,-0.4528703,0.21853193,1.9469824,-2.442157,-55.645083)"
       x1="72.987419"
       y1="98.890343"
       x2="119.14142"
       y2="98.890343" />
    <filter
       inkscape:collect="always"
       style="color-interpolation-filters:sRGB"
       id="filter3477"
       x="-0.089388959"
       width="1.1787779"
       y="-0.052312292"
       height="1.1046246">
      <feGaussianBlur
         inkscape:collect="always"
         stdDeviation="1.6785131"
         id="feGaussianBlur3479" />
    </filter>
    <linearGradient
       inkscape:collect="always"
       xlink:href="#linearGradient4286"
       id="linearGradient3527"
       x1="31.622992"
       y1="198.3031"
       x2="104.5653"
       y2="279.00595"
       gradientUnits="userSpaceOnUse"
       gradientTransform="matrix(1.1316034,0,0,1.1316034,-11.848909,-38.822832)" />
    <linearGradient
       inkscape:collect="always"
       xlink:href="#linearGradient3533"
       id="linearGradient3535"
       x1="30.381393"
       y1="197.78996"
       x2="31.622992"
       y2="198.3031"
       gradientUnits="userSpaceOnUse"
       gradientTransform="matrix(1.1316034,0,0,1.1316034,-11.848909,-38.822832)" />
    <linearGradient
       inkscape:collect="always"
       xlink:href="#linearGradient3525"
       id="linearGradient3543"
       x1="13.549165"
       y1="230.29597"
       x2="124.34917"
       y2="230.29597"
       gradientUnits="userSpaceOnUse" />
    <linearGradient
       inkscape:collect="always"
       xlink:href="#linearGradient4304"
       id="linearGradient3551"
       x1="79.250237"
       y1="58.339306"
       x2="112.8799"
       y2="93.473427"
       gradientUnits="userSpaceOnUse"
       gradientTransform="matrix(1.0948826,-0.24863117,-0.00134083,1.2190139,-4.5937189,5.0310398)" />
    <linearGradient
       inkscape:collect="always"
       xlink:href="#linearGradient4310"
       id="linearGradient3597"
       x1="26.007996"
       y1="58.661015"
       x2="115.5861"
       y2="58.661015"
       gradientUnits="userSpaceOnUse"
       gradientTransform="matrix(1.1316034,0,0,1.1316034,-11.848909,-17.564497)" />
    <linearGradient
       inkscape:collect="always"
       xlink:href="#linearGradient4304"
       id="linearGradient3855"
       x1="125.03535"
       y1="85.858704"
       x2="429.39377"
       y2="85.858704"
       gradientUnits="userSpaceOnUse"
       gradientTransform="matrix(0.87866715,0,0,0.87866714,30.274024,-23.62728)" />
    <linearGradient
       inkscape:collect="always"
       xlink:href="#linearGradient4304"
       id="linearGradient3867"
       x1="125.16413"
       y1="80.093681"
       x2="430.62256"
       y2="80.093681"
       gradientUnits="userSpaceOnUse"
       gradientTransform="matrix(0.87866715,0,0,0.87866714,29.677608,-18.561747)" />
    <linearGradient
       inkscape:collect="always"
       xlink:href="#linearGradient861"
       id="linearGradient3905"
       gradientUnits="userSpaceOnUse"
       x1="125.16413"
       y1="80.093681"
       x2="430.62256"
       y2="80.093681" />
    <linearGradient
       inkscape:collect="always"
       xlink:href="#linearGradient3525"
       id="linearGradient3907"
       gradientUnits="userSpaceOnUse"
       gradientTransform="translate(0.67877471,-5.7650197)"
       x1="125.03535"
       y1="85.858704"
       x2="429.39377"
       y2="85.858704" />
    <filter
       inkscape:collect="always"
       style="color-interpolation-filters:sRGB"
       id="filter3993"
       x="-0.044666141"
       width="1.0893323"
       y="-0.23589519"
       height="1.4717904">
      <feGaussianBlur
         inkscape:collect="always"
         stdDeviation="5.6420487"
         id="feGaussianBlur3995" />
    </filter>
    <filter
       inkscape:collect="always"
       style="color-interpolation-filters:sRGB"
       id="filter4264"
       x="-0.43123624"
       width="1.8624725"
       y="-0.27288064"
       height="1.5457613">
      <feGaussianBlur
         inkscape:collect="always"
         stdDeviation="7.5396864"
         id="feGaussianBlur4266" />
    </filter>
    <linearGradient
       inkscape:collect="always"
       xlink:href="#linearGradient4304"
       id="linearGradient4292"
       gradientUnits="userSpaceOnUse"
       gradientTransform="matrix(1.1316034,0,0,1.1316034,-11.848909,-38.822832)"
       x1="30.553368"
       y1="200.44235"
       x2="104.5653"
       y2="279.00595" />
    <linearGradient
       inkscape:collect="always"
       xlink:href="#linearGradient4304"
       id="linearGradient4332"
       x1="354.74832"
       y1="19.567757"
       x2="396.63629"
       y2="19.567757"
       gradientUnits="userSpaceOnUse" />
  </defs>
  <sodipodi:namedview
     id="base"
     pagecolor="#ffffff"
     bordercolor="#666666"
     borderopacity="1.0"
     inkscape:pageopacity="0.0"
     inkscape:pageshadow="2"
     inkscape:zoom="0.46640478"
     inkscape:cx="730.66727"
     inkscape:cy="358.09664"
     inkscape:document-units="mm"
     inkscape:current-layer="layer4"
     showgrid="false"
     units="mm"
     inkscape:window-width="1366"
     inkscape:window-height="704"
     inkscape:window-x="0"
     inkscape:window-y="27"
     inkscape:window-maximized="1"
     width="5000mm"
     inkscape:snap-text-baseline="true"
     showguides="true">
    <inkscape:grid
       type="xygrid"
       id="grid3721" />
  </sodipodi:namedview>
  <metadata
     id="metadata5">
    <rdf:RDF>
      <cc:Work
         rdf:about="">
        <dc:format>image/svg+xml</dc:format>
        <dc:type
           rdf:resource="http://purl.org/dc/dcmitype/StillImage" />
        <dc:title></dc:title>
      </cc:Work>
    </rdf:RDF>
  </metadata>
  <g
     id="g846"
     inkscape:groupmode="layer"
     inkscape:label="Circle copy"
     style="display:inline;opacity:0.27600002"
     transform="translate(0,-147)"
     sodipodi:insensitive="true">
    <circle
       cy="221.78087"
       cx="65.261459"
       id="circle844"
       style="opacity:1;fill:url(#radialGradient865);fill-opacity:1;stroke:url(#radialGradient850);stroke-width:6.22381878;stroke-miterlimit:4;stroke-dasharray:0, 68.46200572;stroke-dashoffset:55;stroke-opacity:1"
       r="56.58017" />
  </g>
  <g
     inkscape:label="Q copy"
     id="g3271"
     inkscape:groupmode="layer"
     transform="translate(0,14.5333)"
     sodipodi:insensitive="true">
    <path
       inkscape:connector-curvature="0"
       d="m 73.542723,65.35843 c 1.780775,-3.226592 3.483719,-7.055156 5.646256,-8.741087 0.536704,-0.714633 1.11461,-1.249865 1.745368,-1.181009 0.688093,0.03027 1.345788,0.432467 1.976152,1.117171 0.804444,0.964788 1.480301,2.360685 2.126647,3.832183 0.739322,2.076243 1.347886,4.380432 1.892856,6.754483 0.620412,2.801031 1.163306,5.684498 1.788442,8.48156 0.565451,2.914861 1.216514,5.717235 1.922411,8.460767 0.649387,2.957795 1.372604,5.811157 2.115195,8.64705 0.816995,3.233864 1.803108,6.206809 2.828928,9.087872 1.053544,3.10898 2.259128,5.88965 3.495574,8.58521 1.304868,2.85344 2.671188,5.53117 4.115228,7.97323 1.41401,2.25492 2.88421,3.98537 4.4752,5.34622 1.37663,1.08207 2.79365,1.58739 4.22455,1.73926 1.13281,0.12052 2.23315,-0.48559 3.27321,-1.41248 0.98889,-1.07594 1.92814,-2.38432 2.86119,-3.69901 0.19302,-0.29246 0.38606,-0.58482 0.57911,-0.87725 0,0 -3.26867,7.38746 -3.26867,7.38746 v 0 c -0.20774,0.30887 -0.41546,0.61772 -0.62318,0.92658 -0.94859,1.30321 -1.8992,2.64766 -2.93451,3.55424 -1.08937,0.77625 -2.20771,1.27741 -3.36632,1.03566 -1.45128,-0.26634 -2.89204,-0.89972 -4.27954,-2.06058 -1.60109,-1.45322 -3.11754,-3.30885 -4.544588,-5.60615 -1.443549,-2.51127 -2.819667,-5.22387 -4.142267,-8.08943 -1.254815,-2.72114 -2.483016,-5.52148 -3.547352,-8.67438 -1.042957,-2.91736 -2.041322,-5.93685 -2.877189,-9.205764 -0.753333,-2.823392 -1.511946,-5.630906 -2.144265,-8.615109 -0.713966,-2.758718 -1.361887,-5.593145 -1.930381,-8.528977 -0.630841,-2.781991 -1.181006,-5.649884 -1.805859,-8.436516 -0.529507,-2.257272 -1.110754,-4.460132 -1.832371,-6.41643 -0.616423,-1.357884 -1.271075,-2.638888 -2.046232,-3.444268 -0.598057,-0.518504 -1.217473,-0.806751 -1.848689,-0.689766 -0.579134,0.265825 -1.097919,0.860532 -1.634541,1.401697 -1.493815,1.556771 -3.161139,4.940127 2.790895,-4.891205 0.199328,-0.329234 -0.396013,0.667211 -0.591299,1.009444 -0.07332,0.128491 -0.151607,0.24067 -0.227412,0.361021 0,0 -4.212546,4.868311 -4.212546,4.868311 z"
       id="path3269"
       style="opacity:0.98999999;fill:url(#radialGradient3273);fill-opacity:1;stroke:url(#linearGradient3275);stroke-width:1.25631011;stroke-miterlimit:4;stroke-dasharray:0, 13.81941177;stroke-dashoffset:0;stroke-opacity:1;filter:url(#filter3477)"
       transform="matrix(1.2768646,-0.18954947,-0.04895744,1.1426328,-18.643917,-7.7910551)" />
  </g>
  <g
     inkscape:groupmode="layer"
     id="layer5"
     inkscape:label="Q"
     style="display:inline"
     transform="translate(0,14.5333)"
     sodipodi:insensitive="true">
    <path
       style="opacity:1;fill:url(#linearGradient3551);fill-opacity:1;stroke:url(#linearGradient4818);stroke-width:1;stroke-miterlimit:4;stroke-dasharray:none;stroke-dashoffset:0;stroke-opacity:1"
       id="path4810"
       d="m 73.408434,53.302933 c 1.954065,-4.376018 3.823723,-9.466496 6.193708,-12.059344 0.588587,-1.004588 1.222042,-1.80073 1.912555,-1.87362 0.753342,-0.13418 1.472902,0.19258 2.162157,0.870517 0.87948,0.976079 1.617592,2.509656 2.323291,4.142732 0.806687,2.347151 1.469902,5.004682 2.063396,7.763185 0.67552,3.260243 1.26607,6.640249 1.94676,9.894479 0.6152,3.412666 1.32428,6.666927 2.09347,9.835821 0.70704,3.444136 1.49505,6.74261 2.3043,10.014971 0.89018,3.738997 1.96587,7.11788 3.08516,10.374881 1.14934,3.527945 2.465574,6.617875 3.815689,9.596355 1.42486,3.15399 2.91724,6.07847 4.49502,8.69632 1.54514,2.39722 3.15253,4.14113 4.89263,5.40446 1.5058,0.97678 3.05659,1.24045 4.62305,1.06982 1.24015,-0.13474 2.44571,-1.14719 3.5857,-2.53565 1.08414,-1.55745 2.11429,-3.38592 3.13764,-5.22053 0.21169,-0.40452 0.42347,-0.80891 0.63523,-1.21336 0,0 -3.58874,9.81811 -3.58874,9.81811 v 0 c -0.22787,0.42816 -0.45569,0.85629 -0.68355,1.28444 -1.04033,1.8245 -2.08296,3.69975 -3.21769,5.06229 -1.19379,1.21711 -2.4189,2.10608 -3.68712,2.09944 -1.5886,0.0362 -3.16525,-0.37771 -4.68283,-1.44784 -1.75105,-1.37342 -3.4089,-3.25841 -4.96829,-5.70405 -1.57714,-2.70235 -3.080159,-5.66692 -4.524409,-8.83123 -1.37023,-3.00511 -2.71121,-6.11341 -3.8723,-9.6922 -1.13801,-3.29699 -2.22705,-6.72958 -3.13785,-10.506591 -0.82102,-3.254454 -1.64785,-6.488239 -2.33616,-9.96881 -0.778014,-3.185401 -1.483609,-6.479512 -2.102108,-9.91699 -0.686968,-3.234439 -1.28549,-6.593651 -1.965892,-9.835236 -0.576722,-2.619994 -1.210165,-5.160795 -1.99763,-7.366134 -0.673087,-1.502017 -1.388135,-2.900812 -2.235764,-3.689853 -0.654106,-0.483367 -1.331907,-0.680737 -2.023173,-0.381192 -0.63444,0.468034 -1.203245,1.321975 -1.79151,2.115087 -1.637639,2.269134 -3.4677,6.808041 3.062261,-6.656352 0.21868,-0.450898 -0.434482,0.911802 -0.648757,1.377542 -0.08043,0.174861 -0.166314,0.331073 -0.249472,0.496632 0,0 -4.618772,6.981909 -4.618772,6.981909 z"
       inkscape:connector-curvature="0" />
  </g>
  <g
     inkscape:groupmode="layer"
     id="layer3"
     inkscape:label="4"
     transform="translate(0,14.5333)"
     style="display:inline"
     sodipodi:insensitive="true">
    <path
       style="fill:url(#linearGradient873);fill-opacity:1;stroke:url(#linearGradient6822);stroke-width:5.81399965;stroke-linecap:butt;stroke-linejoin:bevel;stroke-miterlimit:4;stroke-dasharray:none;stroke-opacity:1;paint-order:normal;filter:url(#filter2177)"
       d="M 80.0378,20.494273 29.104167,98.425 115.86618,86.901974 v 0 0 0"
       id="path4793"
       inkscape:connector-curvature="0"
       sodipodi:nodetypes="cccccc"
       transform="matrix(1.1316034,0,0,1.1316034,-11.848909,-17.564497)" />
    <path
       style="opacity:0.61000001;fill:#ffffff;fill-opacity:0.02577317;stroke:#e27600;stroke-width:24.10315132;stroke-linecap:butt;stroke-linejoin:bevel;stroke-miterlimit:4;stroke-dasharray:0, 265.13468186;stroke-dashoffset:213;stroke-opacity:1;paint-order:normal"
       id="path875"
       d="m 33.500107,69.420214 c -0.175475,0.455889 -0.346083,0.916807 -0.558736,1.352739 -0.156142,0.335241 -0.299588,0.679989 -0.475244,1.00325 -0.152113,0.229776 -0.289257,0.482784 -0.388499,0.745451 -0.08875,0.301333 -0.181259,0.602132 -0.293118,0.893384 -0.151854,0.337377 -0.279143,0.68743 -0.432146,1.024232 -0.188206,0.397406 -0.345931,0.811119 -0.527523,1.212038 -0.199886,0.394123 -0.340845,0.820959 -0.543167,1.213606 -0.206512,0.435282 -0.442023,0.853605 -0.618781,1.30524 -0.199122,0.444656 -0.398034,0.888234 -0.613226,1.323594 -0.205047,0.421497 -0.457521,0.813122 -0.674892,1.226568 -0.201423,0.424163 -0.381027,0.86228 -0.594603,1.279357 -0.259319,0.484923 -0.459351,1.002981 -0.663364,1.518331 -0.194105,0.503696 -0.339701,1.028209 -0.589499,1.502037 -0.286318,0.476503 -0.493809,1.000063 -0.741046,1.499893 -0.239588,0.482881 -0.446227,0.983732 -0.686047,1.466475 -0.177205,0.491917 -0.359525,0.98007 -0.555117,1.463062 -0.213174,0.487665 -0.454843,0.958221 -0.65977,1.450681 -0.22866,0.60663 -0.480793,1.2015 -0.759702,1.7811 -0.295052,0.57511 -0.537743,1.1792 -0.780801,1.78282 -0.229578,0.46455 -0.414167,0.95244 -0.609941,1.43508 -0.210803,0.53688 -0.40249,1.08313 -0.592094,1.63028 -0.172898,0.56728 -0.398746,1.10694 -0.634288,1.6427 -0.198858,0.50163 -0.440985,0.979188 -0.668061,1.465178 -0.217045,0.41576 -0.428281,0.83717 -0.587708,1.28481 -0.137006,0.54535 -0.376675,1.04156 -0.589446,1.54966 -0.137346,0.43371 -0.387922,0.80278 -0.557925,1.21802 -0.165767,0.35513 -0.318783,0.71412 -0.51952,1.04826 -0.183843,0.36899 -0.431818,0.69364 -0.644036,1.04359 -0.269492,0.44685 -0.45366,0.94641 -0.672927,1.42365 -0.232155,0.56402 -0.577963,1.05742 -0.856031,1.59379 -0.231309,0.50913 -0.489558,1.00237 -0.714176,1.51526 -0.26341,0.49898 -0.558443,0.97514 -0.799472,1.48836 -0.216416,0.56171 -0.520995,1.07179 -0.79444,1.59997 -0.230086,0.49741 -0.489013,0.9775 -0.711853,1.47905 -0.225798,0.50621 -0.472595,1.00067 -0.723122,1.49254 -0.291962,0.57348 -0.576629,1.15032 -0.842607,1.73899 -0.229918,0.51191 -0.513628,0.98922 -0.808156,1.45977 -0.2540404,0.41308 -0.5049064,0.82844 -0.7597904,1.2411 -0.237299,0.44493 -0.478326,0.88691 -0.699737,1.34149 -0.241266,0.44722 -0.456824,0.90956 -0.696147,1.35798 -0.220783,0.42666 -0.4601709,0.84234 -0.7065949,1.2526 -0.198382,0.39804 -0.483152,0.73566 -0.672159,1.13869 -0.164722,0.33389 -0.342832,0.66388 -0.480837,1.01275 -0.21511,0.39827 -0.403491,0.80768 -0.6512101,1.18458 -0.248006,0.37666 -0.499337,0.75034 -0.705562,1.1554 -0.228738,0.40599 -0.472866,0.80289 -0.688917,1.21698 -0.248931,0.46004 -0.488667,0.92358 -0.693663,1.4094 -0.286317,0.58007 -0.523153,1.18745 -0.790226,1.77805 -0.234053,0.5028 -0.517959,0.97497 -0.794132,1.45117 -0.237439,0.41199 -0.487105,0.81542 -0.72682795,1.22576 -0.233399,0.4323 -0.457865,0.87028 -0.700483,1.29686 -0.1989,0.34386 -0.42326,0.67251 -0.569106,1.04808 -0.160113,0.34863 -0.345029,0.68191 -0.53019,1.01561 -0.128422,0.28422 -0.31813305,0.52631 -0.44640905,0.80992 -0.177574,0.36026 -0.383073,0.70066 -0.6211806,1.01908 -0.2791383,0.37982 -0.5346249,0.77698 -0.7970121,1.1695 -0.2333536,0.31931 -0.458692,0.64322 -0.6607794,0.98495 -0.2289231,0.22922 -0.3043661,0.55913 -0.4846691,0.82081 -0.159372,0.30501 -0.339792,0.60096 -0.517055,0.89639 -0.191829,0.23759 -0.295915,0.52832 -0.424762,0.80634 -0.141044,0.27439 -0.310694,0.5265 -0.457738,0.79677 -0.184792,0.31735 -0.303484,0.67119 -0.459161,1.00549 -0.134003,0.32583 -0.279614,0.64899 -0.450012,0.95456 -0.144919,0.30853 -0.291777,0.61911 -0.460791,0.91396 -0.06201,0.27667 -0.299886,0.4289 -0.367436,0.69496 -0.0918,0.18958 -0.251345,0.16318 -0.258516,0.40114 -0.143128,0.0538 -0.128155,0.20839 -0.196563,0.31216 -0.03613,0.0548 -0.106473,0.0782 -0.15065,0.12643 -0.123311,0.17362 -0.235627,0.36537 -0.320021,0.56959 -0.158711,0.21188 -0.322559,0.41678 -0.466533,0.64295 -0.112697,0.24752 -0.206377,0.51076 -0.334254,0.74874 -0.09452,0.0944 -0.189691,0.14874 -0.245688,0.28141 -0.06409,0.0918 -0.03515,0.11338 0.0087,0.27333 -0.403522,1.48346 -2.2902804,2.0054 -3.7370424,2.49849 -1.011527,-0.74583 3.0638264,-3.88598 3.4474934,-2.21612 0.01987,0.0672 0.03406,0.13453 0.04632,0.20334 0.499322,1.67322 -2.0796794,2.65048 -3.6904774,2.5952 -1.536285,-1.01371 3.1162894,-3.97663 3.4283304,-2.29346 0.0096,0.0507 0.0213,0.10139 0.03342,0.15196 0.0028,0.009 -0.0018,2.6e-4 -0.0024,2.9e-4 -1.1581404,0.83189 -3.4435844,0.98359 -3.4744184,2.49565 -0.02908,1.42585 4.6693794,-2.71794 3.4110254,-2.17893 -0.04736,0.0782 -0.158606,0.0463 -0.165998,0.0951 1.01e-4,0.0611 0.01132,0.12295 0.02157,0.18454 -0.116643,-0.0815 -0.165927,-0.22982 -0.246434,-0.3462 0.124169,0.0631 0.249166,0.0673 0.375961,0.0704 0.09571,0.11715 0.152759,-0.13248 0.118338,-0.11203 -2.4152224,1.4379 -6.9445504,4.38576 0.224884,-0.14656 0.224487,-0.0698 0.475268,-0.0463 0.719415,-0.0407 0.301254,-0.22579 0.732815,-0.17335 1.070339,-0.33248 0.515215,-0.12564 1.006807,-0.30609 1.533144,-0.40357 0.674928,-0.19696 1.336429,-0.42078 2.028455,-0.57665 0.7400471,-0.10795 1.4552443,-0.28467 2.1955082,-0.39282 0.82565405,0.0429 1.65430405,0.12097 2.48020205,0.1646 0.83789495,0.0347 1.67231195,0.0427 2.50563395,0.0452 0.870023,0.0585 1.694395,-0.0617 2.5311401,-0.1556 0.862137,-0.099 1.7416099,-0.12543 2.6214719,-0.14319 0.779399,-0.0147 1.5619874,-0.0102 2.3435244,-0.0127 0.673357,0.06 1.287055,-0.0604 1.918227,-0.17005 0.61563,-0.035 1.18559,-0.18375 1.774683,-0.30037 0.613265,-0.0437 1.184563,-0.19031 1.774246,-0.30601 0.614076,-0.0428 1.18606,-0.18888 1.776359,-0.30442 0.621784,-0.11572 1.21551,-0.31407 1.818672,-0.48114 0.62837,-0.16336 1.226296,-0.38999 1.874219,-0.50818 0.493774,-0.21824 1.047668,-0.29049 1.605759,-0.33594 0.571836,-0.0328 1.149677,-0.0367 1.727166,-0.0394 0.552393,0.0337 1.067545,-0.003 1.584209,-0.11101 0.569778,-0.14388 1.197532,-0.0931 1.765804,-0.23134 0.579031,-0.14988 1.188579,-0.20575 1.802109,-0.23832 0.481247,-0.17747 0.999255,-0.25128 1.528029,-0.29257 0.545828,-0.17751 1.128874,-0.25367 1.718465,-0.30035 0.568355,-0.172 1.167706,-0.25585 1.776678,-0.3042 0.588728,-0.0622 1.156674,-0.20115 1.741819,-0.28669 0.498122,-0.054 1.008372,-0.0577 1.516955,-0.0617 0.502447,0.002 1.004429,0.002 1.506383,0.002 0.544514,0.035 1.050862,-0.006 1.559616,-0.11203 0.59155,-0.0884 1.17775,-0.15358 1.752213,-0.28987 0.586075,-0.13474 1.202464,-0.16995 1.819183,-0.19135 0.602932,-0.0387 1.175092,-0.19004 1.775124,-0.25364 0.53099,-0.0552 1.071724,-0.063 1.613593,-0.0646 0.590565,0.0416 1.124474,-0.12762 1.686612,-0.20615 0.60818,-0.044 1.20151,-0.0834 1.785028,-0.20791 0.58767,-0.12396 1.201653,-0.15861 1.816443,-0.17958 0.602732,-0.0387 1.174611,-0.19042 1.77443,-0.25421 0.594786,0.007 1.128087,-0.1766 1.689885,-0.28083 0.52333,-0.11796 1.030836,-0.26301 1.576574,-0.32824 0.554746,-0.19361 1.150705,-0.27806 1.755095,-0.328 0.500274,-0.16532 1.017349,-0.2663 1.559884,-0.31028 0.493595,-0.0457 0.999042,-0.0364 1.501723,-0.0352 0.586363,0.0405 1.124305,-0.1101 1.675328,-0.21143 0.540725,-0.0172 1.031162,-0.1573 1.54551,-0.25768 0.574243,-0.0643 1.065472,-0.10727 1.609943,-0.25715 0.417132,-0.13903 0.877864,-0.16395 1.332576,-0.1823 0.453162,-0.0427 0.863629,-0.20132 1.320785,-0.25357 0.429738,-0.0543 0.872399,-0.0587 1.313747,-0.0586 0.408203,-0.002 0.816927,-0.002 1.226001,10e-4 0.412956,0.14017 0.830122,0.22492 1.248906,0.27661 0.391229,0.0311 0.778894,0.0292 1.166604,0.0325 0.414268,-0.002 0.829307,-6e-4 1.243134,-0.006 0.32864,-0.002 0.657971,-6e-4 0.986509,-0.003 0.288525,0.003 0.575353,-0.003 0.863515,-0.001 0.273554,2.3e-4 0.546938,-6e-4 0.820832,0.002 0.343769,6e-4 0.687562,10e-4 1.031705,0.005 0.358639,-3e-5 0.716622,-0.005 1.07551,-0.002 0.281837,-0.002 0.563968,-0.002 0.84576,-0.005 1.895764,-0.1481 -4.720846,3.11058 -3.166305,1.97446 0.04956,-0.0367 0.09868,-0.0739 0.14824,-0.11067 0.246553,0.36451 0.06427,-0.10841 0.03723,-0.1857 0.657654,7.84393 2.233424,-2.9047 3.817136,-2.31759 0.117212,0.0378 0.240704,0.0267 0.357474,0.0276 0.184779,6e-4 0.369729,0.002 0.554372,0.002 0.256931,0.006 0.512062,-1.7e-4 0.76845,0.002 0.173078,-0.002 0.346214,-0.005 0.519711,-0.005 1.579809,-0.0144 2.088363,-1.21445 -3.327129,2.39501 -0.05307,-0.0682 -0.03259,-0.0762 -0.06439,-0.0378 -0.168054,0.0242 -0.357938,0.002 -0.533562,-0.002 0,0 3.22619,-2.62153 3.22619,-2.62153 v 0 c 0.266945,0.0194 0.511643,0.0346 0.75582,0.20127 1.396716,1.30368 -1.698978,2.81446 -3.301159,2.73513 -0.169672,5e-5 -0.339424,-10e-4 -0.509606,-0.005 -0.257621,0.002 -0.516554,-0.003 -0.773666,0.002 -0.187597,-6e-4 -0.374787,0.001 -0.562701,-0.001 -0.110558,-0.001 -0.244166,-0.0225 -0.340986,0.0164 -0.0079,0.0545 -0.05601,0.0768 -0.09924,0.10943 1.144131,-0.74934 2.288272,-1.49868 3.432403,-2.24801 -0.308396,-0.29607 0.0045,0.17374 0.02093,0.26659 -0.05386,0.0418 -0.108294,0.0826 -0.163041,0.12327 -1.229046,0.92401 -2.337112,2.42107 -4.03179,2.34098 -0.278782,-0.002 -0.557269,-0.002 -0.835961,-0.005 -0.355878,0.001 -0.712616,-0.002 -1.068697,-0.002 -0.347086,0.002 -0.694477,0.003 -1.041936,0.005 -0.274719,0.002 -0.549993,0.001 -0.82504,0.002 -0.28633,0.002 -0.574085,-0.006 -0.860098,-0.001 -0.326728,-0.002 -0.65263,-3e-4 -0.979165,-0.002 -0.412741,-0.003 -0.824113,9.1e-4 -1.237194,-0.006 -0.405589,-0.003 -0.813702,-0.009 -1.225232,-0.0806 -0.396593,-0.0759 -0.796388,-0.20652 -1.191001,-0.22396 -0.406506,0.001 -0.813691,-10e-4 -1.21954,0.005 -0.426321,0.0129 -0.852505,0.0298 -1.263752,0.10377 -0.447663,0.0906 -0.877208,0.2337 -1.354745,0.22733 -0.43655,0.0411 -0.859781,0.11448 -1.269715,0.23469 -0.527622,0.11422 -1.092371,0.10705 -1.614855,0.24021 -0.511802,0.11316 -1.035344,0.17441 -1.559457,0.24989 -0.566764,0.093 -1.129253,0.19016 -1.727781,0.15246 -0.49296,0.007 -0.986056,0.0159 -1.467837,0.0742 -0.52701,0.0785 -1.024214,0.23502 -1.555041,0.30125 -0.595622,0.0777 -1.162964,0.2252 -1.743686,0.34563 -0.530802,0.0982 -1.033651,0.26489 -1.569365,0.34938 -0.557788,0.11774 -1.120598,0.20996 -1.702546,0.24836 -0.597021,0.0859 -1.178901,0.22876 -1.799142,0.2275 -0.601489,0.0363 -1.195371,0.10196 -1.771319,0.22744 -0.59038,0.0989 -1.206991,0.0952 -1.797084,0.19688 -0.570272,0.0958 -1.135879,0.19752 -1.7384,0.16311 -0.527776,0.0114 -1.05483,0.0315 -1.57027,0.0974 -0.597122,0.0857 -1.179125,0.22803 -1.799208,0.22756 -0.601398,0.0378 -1.195256,0.1057 -1.765328,0.24823 -0.581302,0.11862 -1.188227,0.15472 -1.768156,0.27908 -0.530118,0.0788 -1.079749,0.058 -1.626982,0.0588 -0.501449,-0.002 -1.003188,-0.006 -1.50264,0.005 -0.494418,0.009 -0.989073,0.0231 -1.467187,0.1023 -0.583809,0.0871 -1.148512,0.23554 -1.749356,0.26459 -0.602482,0.0736 -1.179982,0.21482 -1.77681,0.30487 -0.585032,0.0726 -1.144197,0.21311 -1.721844,0.30706 -0.519358,0.0719 -1.009908,0.22201 -1.534223,0.27475 -0.602188,0.0525 -1.189062,0.15055 -1.77,0.27253 -0.593286,0.0642 -1.19175,0.11056 -1.767205,0.23533 -0.536563,0.0788 -1.092977,0.0549 -1.646143,0.0582 -0.565864,0.002 -1.133199,0.005 -1.685691,0.0707 -0.545857,0.078 -1.057709,0.22952 -1.578958,0.37211 -0.620944,0.15059 -1.216948,0.35639 -1.834534,0.51517 -0.607875,0.17859 -1.218092,0.35589 -1.85304,0.46598 -0.585338,0.12571 -1.184695,0.19756 -1.776183,0.30465 -0.584667,0.12606 -1.183314,0.19867 -1.774045,0.30643 -0.586396,0.12657 -1.185632,0.20073 -1.7850914,0.28743 -0.639605,0.10546 -1.291105,0.12912 -1.960376,0.10207 -0.7759309,-0.003 -1.5512129,-0.002 -2.324446,0.0114 -0.869753,0.0223 -1.736378,0.0642 -2.586794,0.17113 -0.846009,0.10196 -1.69911,0.15435 -2.57425695,0.11701 -0.838964,-0.007 -1.67793805,-0.0102 -2.52288715,-0.062 -0.8091134,-0.0462 -1.6340401,-0.15883 -2.4235911,-0.0811 -0.726924,0.12433 -1.446155,0.27352 -2.165636,0.41887 -0.683953,0.18646 -1.353559,0.40679 -2.042719,0.58144 -0.511789,0.14678 -1.028462,0.28172 -1.5309494,0.44914 -0.392255,0.0781 -0.764695,0.21983 -1.167817,0.25 -0.222557,0.0226 -0.426288,0.0635 -0.597629,0.19247 8.5872864,-5.48707 0.382261,-0.22247 -0.234831,0.14375 -0.03775,0.0224 -0.210129,-0.0835 -0.271397,-0.0487 -0.09303,-0.005 -0.238218,-0.0413 -0.264908,0.0638 -0.081,-0.0812 -0.277211,-0.21678 -0.327284,-0.36164 -0.01598,-0.0789 -0.02779,-0.15779 -0.04186,-0.23671 -0.03566,-0.16238 -0.102512,-0.2547 -0.01498,-0.39478 0.01018,-0.0256 0.0077,-0.0617 0.03038,-0.0766 7.1897324,-4.73329 2.35247,-1.45685 0.235511,0.11271 -0.0087,-0.0557 -0.01704,-0.11147 -0.02632,-0.16715 -0.281324,-1.64724 4.5783644,-1.09519 3.4387714,-2.56654 1.127661,-1.13326 -4.8709294,1.41211 -3.1816054,2.26244 -0.0098,-0.062 -0.006,-0.10637 -0.02727,-0.16374 -0.454169,-1.67087 2.711993,-1.20493 3.3684914,-2.72132 1.205286,-0.9257 -5.0252814,2.43888 -3.2508804,2.15199 0.213031,0.13989 0.02428,-0.0566 0.04847,-0.1705 0.01189,-0.16344 0.01,-0.40898 0.144352,-0.48685 0.06116,-0.0372 0.143172,-0.053 0.184125,-0.11101 0.101878,-0.14446 0.06357,-0.39724 0.247953,-0.49509 0.02484,-0.15509 0.06728,-0.33322 0.160095,-0.45685 0.02549,-0.034 0.0777,-0.0422 0.101562,-0.0774 0.199504,-0.29419 -0.10464,-0.0159 0.135394,-0.21391 0.196453,-0.14437 0.0077,0.0269 0.123904,-0.20496 0.02933,-0.0586 0.124924,-0.0645 0.148254,-0.12638 0.01624,-0.043 2.36e-4,-0.0965 3.42e-4,-0.14474 0.01505,-0.0277 0.03011,-0.0555 0.04516,-0.0832 0.03618,-0.0673 0.03826,-0.16268 0.100169,-0.20715 0.02544,-0.0182 0.07404,0.018 0.101652,0.002 0.07008,-0.0389 0.06818,-0.21667 0.111825,-0.27586 0.234627,0.0583 0.0058,-0.37235 0.288063,-0.36779 0.155675,-0.0639 0.08284,-0.16285 0.154369,-0.29946 0.06371,-0.1217 0.223733,-0.18759 0.281319,-0.31627 0.09417,-0.32813 0.292927,-0.62912 0.4621214,-0.91246 0.09708,-0.33715 0.301631,-0.6399 0.462442,-0.94085 0.09809,-0.36469 0.290297,-0.69724 0.426435,-1.04253 0.127335,-0.28743 0.267968,-0.54857 0.449727,-0.79925 0.153672,-0.27829 0.256169,-0.58047 0.412617,-0.85134 0.194767,-0.27085 0.331524,-0.58851 0.53958,-0.84072 0.05109,-0.1656 0.160891,-0.23748 0.226351,-0.38814 0.07401,-0.17037 0.09284,-0.3733 0.223296,-0.51643 0.282459,-0.27973 0.401332,-0.68132 0.678483,-0.97123 0.276054,-0.38288 0.508668,-0.80022 0.80956,-1.16078 0.190349,-0.3394 0.45907,-0.61159 0.621499,-0.97023 0.07436,-0.13148 0.102455,-0.29013 0.177616,-0.41827 0.08772,-0.14954 0.118097,-0.0741 0.202357,-0.23493 0.02934,-0.056 0.03852,-0.12254 0.05778,-0.18382 0.202115,-0.31933 0.386031,-0.65367 0.551721,-0.99062 0.213522,-0.34238 0.296154,-0.77078 0.562322,-1.08478 0.26628,-0.40957 0.4980007,-0.84714 0.7058117,-1.2909 0.2405529,-0.41401 0.4765363,-0.82265 0.730175,-1.22793 0.2806671,-0.47645 0.5634145,-0.94551 0.8305545,-1.4313 0.291156,-0.57055 0.48829805,-1.1914 0.78841705,-1.75676 0.209732,-0.48582 0.386622,-0.98857 0.669694,-1.43168 0.213719,-0.41868 0.442591,-0.82379 0.661627,-1.23964 0.26996795,-0.35889 0.39379395,-0.8314 0.71944595,-1.15312 0.210044,-0.39333 0.497728,-0.72747 0.634737,-1.16686 0.226905,-0.28487 0.316882,-0.69027 0.490542,-1.0164 0.244053,-0.36516 0.381247,-0.80458 0.687365,-1.13078 0.195302,-0.43784 0.477121,-0.83225 0.717109,-1.24141 0.198245,-0.4711 0.471875,-0.90509 0.689399,-1.36497 0.232446,-0.4502 0.442836,-0.91024 0.694309,-1.34883 0.2020311,-0.44653 0.4943291,-0.84968 0.7611001,-1.25272 0.250386,-0.4988 0.624161,-0.91956 0.823798,-1.45172 0.323018,-0.549 0.5186499,-1.17979 0.8506609,-1.72573 0.219954,-0.50674 0.490785,-0.98462 0.723055,-1.4844 0.228921,-0.50406 0.460962,-1.0044 0.700745,-1.50024 0.273264,-0.52246 0.574043,-1.02742 0.8133314,-1.57031 0.198712,-0.5357 0.457924,-1.04529 0.793133,-1.49559 0.232123,-0.51521 0.46659,-1.02767 0.705512,-1.53721 0.27345,-0.53672 0.576168,-1.04961 0.872356,-1.56932 0.196474,-0.49284 0.433754,-0.96287 0.612298,-1.46505 0.219767,-0.34275 0.417094,-0.6934 0.667453,-1.01061 0.148454,-0.36388 0.41175,-0.66155 0.516426,-1.05261 0.23422,-0.36715 0.354358,-0.81198 0.599953,-1.17666 0.158784,-0.52871 0.464214,-0.97785 0.601678,-1.51862 0.09692,-0.48991 0.315417,-0.93321 0.548611,-1.35519 0.241511,-0.47497 0.462229,-0.9603 0.690701,-1.44281 0.201899,-0.55024 0.495123,-1.049998 0.656897,-1.620348 0.165733,-0.55579 0.367799,-1.09659 0.568945,-1.63541 0.162818,-0.51001 0.388917,-0.99104 0.602772,-1.47519 0.310668,-0.56978 0.475321,-1.22674 0.785454,-1.79951 0.300114,-0.55586 0.554506,-1.14429 0.762392,-1.74994 0.210384,-0.48783 0.391061,-0.99029 0.653724,-1.44845 0.211856,-0.47405 0.417117,-0.95639 0.548366,-1.469544 0.204697,-0.502219 0.479767,-0.969536 0.683016,-1.473034 0.230116,-0.51225 0.471655,-1.020256 0.731947,-1.515299 0.08088,-0.154741 0.187444,-0.292945 0.267232,-0.448353 0.161222,-0.314029 0.203363,-0.697494 0.34335,-1.022783 0.22187,-0.50774 0.389353,-1.043612 0.643343,-1.532755 0.190149,-0.425254 0.395377,-0.843168 0.605645,-1.257152 0.145328,-0.465543 0.444036,-0.835182 0.662437,-1.260782 0.226895,-0.42594 0.437089,-0.854845 0.611906,-1.310213 0.239011,-0.41215 0.364549,-0.897186 0.617249,-1.304509 0.180624,-0.407046 0.404357,-0.787958 0.53822,-1.223462 0.216607,-0.374796 0.333719,-0.797174 0.539833,-1.177584 0.127738,-0.353438 0.288364,-0.684282 0.41769,-1.03142 0.135969,-0.269216 0.226473,-0.554532 0.314109,-0.843933 0.07245,-0.310803 0.21218,-0.567729 0.323491,-0.861134 0.240178,-0.27422 0.364751,-0.620906 0.531759,-0.94978 0.187824,-0.434337 0.421682,-0.844363 0.561865,-1.305542 0,0 3.816059,-1.862188 3.816059,-1.862188 z"
       inkscape:connector-curvature="0" />
    <path
       style="opacity:0.61000001;fill:#ffffff;fill-opacity:0.02577317;stroke:#e27600;stroke-width:3.62113094;stroke-linecap:butt;stroke-linejoin:bevel;stroke-miterlimit:4;stroke-dasharray:0, 39.83243981;stroke-dashoffset:0;stroke-opacity:1;paint-order:normal"
       id="path877"
       d="m -0.39178868,2.197693 c 0.06419,0.820949 0.204896,1.6300208 0.343211,2.4407038 0.09899,0.924643 0.269694,1.838809 0.374775,2.762493 0.117913,1.043915 0.120836,2.096045 0.128433,3.1451982 0.0095,1.122769 0.0075,2.245531 0.004,3.368324 0.01435,1.111463 -0.03806,2.225881 0.03329,3.335599 0.10041795,1.009498 0.19494795,2.018994 0.24092395,3.032591 -0.0093,0.927375 0.124537,1.843619 0.21643,2.763846 0.05135,0.88449 0.13356903,1.761862 0.25451203,2.639517 0.07177,0.717341 0.169421,1.42616 0.306405,2.133675 0.04849,0.491258 0.200428,0.953087 0.355749,1.417606 0.0822,0.221197 0.123814,0.454824 0.164544,0.686529 0.02218,0.09976 0.01439,0.202691 0.01628,0.304242 1.41e-4,0.03768 0.0026,0.07527 0.0049,0.112843 -0.335649,-0.548373 -3.29e-4,-0.247867 0.140442,-0.03823 0,0 -3.90994,2.319301 -3.90994,2.319301 v 0 c 0.08608,0.244539 -0.282836,-0.05521 -0.300179,-0.219202 0.0037,-0.03764 0.0076,-0.07532 0.0084,-0.113211 0.0035,-0.08739 0.0022,-0.174887 0.0089,-0.262041 -0.0023,-0.210653 -0.03004,-0.421365 -0.08967,-0.62371 -0.136971,-0.490269 -0.3154541,-0.966896 -0.344751,-1.480791 -0.130886,-0.720191 -0.2495243,-1.435382 -0.2920181,-2.167765 -0.1148841,-0.884585 -0.2242382,-1.764594 -0.2522267,-2.65752 -0.092672,-0.928617 -0.2431278,-1.852723 -0.2226333,-2.788832 -0.041082,-1.011591 -0.1092206,-2.02126 -0.2259906,-3.027279 -0.082888,-1.120904 -0.014883,-2.245834 -0.035928,-3.368973 -0.00147,-1.121246 0.00165,-2.242506 -0.00266,-3.363721 -0.012734,-1.032174 -0.027479,-2.065804 -0.1267766,-3.0940762 -0.1061783,-0.91529 -0.2843961,-1.819037 -0.377084,-2.735862 -0.1299073,-0.799203 -0.2734883,-1.595146 -0.3995903,-2.394294 0,0 3.97826222,-2.1269608 3.97826222,-2.1269608 z"
       inkscape:connector-curvature="0" />
    <path
       style="opacity:0.61000001;fill:#ffffff;fill-opacity:0.02577317;stroke:#e27600;stroke-width:3.62113094;stroke-linecap:butt;stroke-linejoin:bevel;stroke-miterlimit:4;stroke-dasharray:0, 39.83243981;stroke-dashoffset:0;stroke-opacity:1;paint-order:normal"
       id="path879"
       d="m -1.7148127,24.739955 c -0.210382,-0.417266 -0.392316,-0.840497 -0.489819,-1.298413 -0.083626,-0.471157 -0.086192,-0.949288 -0.087212,-1.426056 0.00227,-0.579247 0.00581,-1.158488 0.00762,-1.73774 -0.011408,-0.66955 0.143963,-1.325441 0.218629,-1.988326 0.06824,-0.698763 0.08662,-1.401094 0.09366,-2.102735 -0.02105,-0.677375 0.122024,-1.343306 0.205291,-2.012298 0.024,-0.579253 0.132509,-1.143791 0.25056,-1.709295 0.04559,-0.48333 0.186698,-0.944883 0.294442,-1.415687 0.05653,-0.437973 0.189292,-0.854897 0.29947902,-1.2803482 0.08754,-0.325325 0.123833,-0.661087 0.135897,-0.996918 -0.01825,-0.376813 0.06145,-0.731371 0.16929,-1.088773 0.08734,-0.293355 0.114402,-0.596378 0.134186,-0.900087 0.0084,-0.26319 -0.0015,-0.526437 0.01052,-0.789399 0.04532,-0.205117 0.165822,-0.371469 0.228421,-0.570887 0.04994,-0.09751 0.05196,-0.209472 0.05617,-0.316801 0,0 4.06198998,-2.0504027 4.06198998,-2.0504027 v 0 c -0.0051,0.1398402 -0.017,0.279497 -0.01446,0.4195182 -0.0554,0.2071627 -0.08407,0.4247035 -0.235917,0.5854195 -0.164328,0.133899 -0.02613,0.490879 -0.07323,0.686099 -0.0035,0.331493 -0.01946,0.666618 -0.09643,0.990069 -0.07435,0.339888 -0.253266,0.642083 -0.205304,0.997705 -0.0136,0.36577 -0.02862,0.731546 -0.106189,1.090845 -0.1098,0.427541 -0.274511,0.831505 -0.309935,1.27298 -0.109868,0.469107 -0.269602,0.9231092 -0.309409,1.4047182 -0.10078,0.563245 -0.290776,1.106959 -0.280038,1.686721 -0.07308,0.659988 -0.231973,1.311601 -0.239269,1.975667 -0.0064,0.713673 -0.0042,1.428357 -0.07286,2.139602 -0.06299,0.649423 -0.190678,1.29183 -0.224938,1.940221 -3.29e-4,0.576286 -0.0014,1.15258 0.0021,1.728857 0.0044,0.449332 0.0035,0.900581 0.05779,1.347294 0.07225,0.421617 0.219627,0.817449 0.444671,1.183141 0,0 -3.925839,2.235309 -3.925839,2.235309 z"
       inkscape:connector-curvature="0" />
  </g>
  <g
     inkscape:label="4 copy"
     id="g1475"
     inkscape:groupmode="layer"
     style="display:inline"
     transform="translate(0,14.5333)"
     sodipodi:insensitive="true">
    <path
       sodipodi:nodetypes="cccccc"
       inkscape:connector-curvature="0"
       id="path1467"
       d="M 77.972113,3.9925478 20.335439,92.179226 118.51563,79.13973 v 0 0 0"
       style="fill:#ffffff;fill-opacity:0.04500002;stroke:url(#linearGradient3597);stroke-width:6.57914209;stroke-linecap:butt;stroke-linejoin:bevel;stroke-miterlimit:4;stroke-dasharray:none;stroke-opacity:1;paint-order:normal" />
    <path
       inkscape:connector-curvature="0"
       d="m 31.941159,70.074581 c -0.175474,0.455889 -0.346083,0.916807 -0.558736,1.352739 -0.156142,0.335241 -0.299587,0.679988 -0.475244,1.00325 -0.152112,0.229775 -0.289257,0.482784 -0.388499,0.745451 -0.08875,0.301333 -0.181259,0.602131 -0.293118,0.893383 -0.151854,0.337378 -0.279143,0.68743 -0.432146,1.024233 -0.188206,0.397405 -0.345931,0.811118 -0.527523,1.212038 -0.199886,0.394122 -0.340845,0.820959 -0.543167,1.213606 -0.206512,0.435281 -0.442022,0.853604 -0.618781,1.30524 -0.199122,0.444656 -0.398034,0.888234 -0.613226,1.323593 -0.205047,0.421498 -0.457521,0.813123 -0.674892,1.226569 -0.201423,0.424162 -0.381027,0.86228 -0.594603,1.279357 -0.259318,0.484923 -0.459351,1.002981 -0.663364,1.518331 -0.194105,0.503696 -0.339701,1.028209 -0.589499,1.502036 -0.286318,0.476504 -0.493809,1.000064 -0.741046,1.499894 -0.239588,0.48288 -0.446226,0.983731 -0.686047,1.466474 -0.177205,0.491917 -0.359525,0.980071 -0.555117,1.463063 -0.213174,0.487664 -0.454843,0.958224 -0.65977,1.450684 -0.22866,0.60662 -0.480793,1.2015 -0.759702,1.7811 -0.295052,0.57511 -0.537743,1.1792 -0.780801,1.78282 -0.229577,0.46455 -0.414167,0.95244 -0.609941,1.43508 -0.210803,0.53688 -0.40249,1.08314 -0.592093,1.63028 -0.172899,0.56728 -0.398747,1.10694 -0.634289,1.6427 -0.198858,0.501628 -0.440985,0.979188 -0.668061,1.465178 -0.217045,0.41576 -0.42828,0.83717 -0.587708,1.28481 -0.137006,0.54536 -0.376675,1.04156 -0.589446,1.54966 -0.137346,0.43371 -0.387922,0.80279 -0.557925,1.21802 -0.165766,0.35513 -0.318782,0.71412 -0.519519,1.04826 -0.183843,0.36899 -0.431818,0.69364 -0.644036,1.0436 -0.269492,0.44684 -0.45366,0.9464 -0.672927,1.42364 -0.232156,0.56402 -0.577964,1.05742 -0.856031,1.59379 -0.23131,0.50913 -0.489559,1.00237 -0.714177,1.51526 -0.26341,0.49898 -0.558443,0.97514 -0.799472,1.48837 -0.216416,0.5617 -0.520995,1.07178 -0.79444,1.59996 -0.230085,0.49742 -0.489013,0.9775 -0.711853,1.47905 -0.225798,0.50621 -0.472595,1.00068 -0.723122,1.49254 -0.2919614,0.57348 -0.5766294,1.15032 -0.8426064,1.73899 -0.229918,0.51191 -0.513628,0.98923 -0.808156,1.45977 -0.254041,0.41308 -0.504907,0.82845 -0.759791,1.24111 -0.237299,0.44492 -0.4783259,0.8869 -0.6997369,1.34148 -0.241266,0.44722 -0.456824,0.90956 -0.696146,1.35798 -0.220784,0.42666 -0.460172,0.84234 -0.706596,1.25261 -0.1983821,0.39804 -0.4831521,0.73565 -0.6721591,1.13868 -0.164722,0.33389 -0.342832,0.66388 -0.480837,1.01275 -0.215109,0.39827 -0.403491,0.80769 -0.65121,1.18458 -0.248006,0.37666 -0.499337,0.75034 -0.705562,1.1554 -0.228737,0.406 -0.472866,0.80289 -0.688916,1.21698 -0.248932,0.46004 -0.488668,0.92358 -0.693664,1.4094 -0.286316,0.58007 -0.523153,1.18745 -0.79022595,1.77806 -0.234053,0.50279 -0.517959,0.97496 -0.794132,1.45117 -0.237439,0.41198 -0.487104,0.81542 -0.726828,1.22575 -0.233398,0.4323 -0.45786405,0.87028 -0.70048305,1.29686 -0.198899,0.34386 -0.42326,0.67251 -0.5691055,1.04808 -0.1601128,0.34864 -0.3450293,0.68192 -0.5301902,1.01561 -0.1284222,0.28422 -0.3181333,0.52631 -0.4464096,0.80993 -0.1775735,0.36025 -0.3830726,0.70065 -0.6211801,1.01907 -0.2791378,0.37983 -0.5346248,0.77699 -0.7970118,1.1695 -0.233354,0.31931 -0.458692,0.64322 -0.66078,0.98495 -0.228923,0.22922 -0.304366,0.55913 -0.484669,0.82081 -0.159371,0.30501 -0.339792,0.60096 -0.517054,0.89639 -0.19183,0.23759 -0.295916,0.52832 -0.424762,0.80635 -0.141045,0.27439 -0.310695,0.5265 -0.457738,0.79676 -0.184792,0.31736 -0.303485,0.6712 -0.459162,1.0055 -0.134002,0.32582 -0.279614,0.64898 -0.450012,0.95455 -0.144918,0.30853 -0.291777,0.61911 -0.460791,0.91396 -0.06201,0.27668 -0.299886,0.4289 -0.367436,0.69496 -0.0918,0.18958 -0.251345,0.16318 -0.258516,0.40115 -0.143127,0.0538 -0.128155,0.20838 -0.196563,0.31215 -0.03613,0.0548 -0.106472,0.0782 -0.15065,0.12643 -0.123311,0.17362 -0.235627,0.36537 -0.320021,0.56959 -0.158711,0.21189 -0.322559,0.41679 -0.466533,0.64295 -0.1126964,0.24752 -0.2063774,0.51076 -0.3342544,0.74875 -0.09452,0.0944 -0.189691,0.14873 -0.245688,0.2814 -0.06409,0.0918 -0.03515,0.11338 0.0087,0.27333 -0.403522,1.48346 -2.29028,2.00541 -3.737041,2.49849 -1.011528,-0.74583 3.063825,-3.88598 3.447492,-2.21612 0.01987,0.0672 0.03406,0.13454 0.04632,0.20334 0.499322,1.67322 -2.079679,2.65048 -3.690477,2.59521 -1.536285,-1.01372 3.116289,-3.97664 3.428331,-2.29347 0.0096,0.0507 0.0213,0.10139 0.03342,0.15196 0.0028,0.009 -0.0018,2.6e-4 -0.0024,3e-4 -1.158141,0.83188 -3.443585,0.98359 -3.474419,2.49565 -0.02908,1.42584 4.6693804,-2.71795 3.411025,-2.17894 -0.04736,0.0782 -0.158605,0.0463 -0.165998,0.0951 1.02e-4,0.0611 0.01132,0.12295 0.02157,0.18455 -0.116642,-0.0815 -0.165927,-0.22983 -0.246433,-0.34621 0.124169,0.0632 0.249166,0.0673 0.375961,0.0704 0.09571,0.11715 0.152759,-0.13248 0.118338,-0.11203 -2.415222,1.43791 -6.94455,4.38577 0.224885,-0.14655 0.224486,-0.0698 0.475267,-0.0463 0.719414,-0.0407 0.3012544,-0.22579 0.7328154,-0.17335 1.0703394,-0.33248 0.515215,-0.12564 1.006807,-0.30608 1.533144,-0.40357 0.674928,-0.19696 1.336429,-0.42078 2.028455,-0.57665 0.740047,-0.10795 1.455244,-0.28467 2.1955076,-0.39282 0.825654,0.0429 1.6543046,0.12097 2.48020365,0.1646 0.837894,0.0347 1.672311,0.0427 2.50563295,0.0452 0.870023,0.0585 1.694395,-0.0617 2.53114,-0.1556 0.862137,-0.099 1.7416101,-0.12543 2.6214731,-0.14318 0.7793979,-0.0147 1.5619859,-0.0102 2.3435229,-0.0127 0.673357,0.06 1.2870554,-0.0604 1.9182284,-0.17004 0.615629,-0.035 1.185589,-0.18375 1.774682,-0.30038 0.613266,-0.0437 1.184563,-0.19031 1.774247,-0.30601 0.614077,-0.0428 1.18606,-0.18888 1.776358,-0.30442 0.621784,-0.11572 1.215511,-0.31406 1.818672,-0.48113 0.628371,-0.16336 1.226296,-0.39 1.874219,-0.50818 0.493774,-0.21825 1.047668,-0.2905 1.605759,-0.33594 0.571836,-0.0328 1.149678,-0.0367 1.727167,-0.0394 0.552392,0.0337 1.067544,-0.003 1.584208,-0.11101 0.569778,-0.14389 1.197532,-0.0931 1.765804,-0.23135 0.579031,-0.14988 1.18858,-0.20575 1.802109,-0.23831 0.481247,-0.17747 0.999256,-0.25129 1.528029,-0.29258 0.545828,-0.1775 1.128874,-0.25367 1.718465,-0.30035 0.568355,-0.17199 1.167706,-0.25585 1.776678,-0.3042 0.588728,-0.0622 1.156674,-0.20115 1.741819,-0.28669 0.498122,-0.054 1.008372,-0.0577 1.516955,-0.0617 0.502447,0.002 1.00443,0.002 1.506383,0.002 0.544514,0.035 1.050862,-0.006 1.559616,-0.11203 0.591551,-0.0884 1.177751,-0.15358 1.752214,-0.28987 0.586074,-0.13474 1.202463,-0.16994 1.819182,-0.19134 0.602932,-0.0387 1.175092,-0.19004 1.775124,-0.25365 0.53099,-0.0552 1.071725,-0.063 1.613593,-0.0646 0.590566,0.0417 1.124474,-0.12762 1.686612,-0.20615 0.60818,-0.044 1.20151,-0.0834 1.785028,-0.20791 0.58767,-0.12396 1.201653,-0.15861 1.816443,-0.17958 0.602732,-0.0387 1.174611,-0.19042 1.77443,-0.25421 0.594786,0.007 1.128087,-0.1766 1.689885,-0.28083 0.52333,-0.11796 1.030836,-0.26301 1.576575,-0.32823 0.554746,-0.19362 1.150704,-0.27807 1.755094,-0.32801 0.500274,-0.16532 1.017349,-0.2663 1.559885,-0.31027 0.493594,-0.0457 0.999041,-0.0364 1.501722,-0.0352 0.586363,0.0405 1.124305,-0.1101 1.675328,-0.21143 0.540725,-0.0172 1.031162,-0.1573 1.54551,-0.25767 0.574243,-0.0643 1.065472,-0.10728 1.609943,-0.25716 0.417132,-0.13903 0.877864,-0.16395 1.332577,-0.1823 0.453161,-0.0427 0.863628,-0.20131 1.320784,-0.25357 0.429738,-0.0543 0.872399,-0.0587 1.313747,-0.0586 0.408203,-0.002 0.816927,-0.002 1.226001,0.001 0.412957,0.14018 0.830122,0.22492 1.248906,0.27661 0.391229,0.0311 0.778894,0.0292 1.166604,0.0325 0.414269,-0.002 0.829307,-6e-4 1.243134,-0.006 0.32864,-0.002 0.657971,-6e-4 0.986509,-0.003 0.288525,0.003 0.575353,-0.003 0.863516,-10e-4 0.273553,2.2e-4 0.546937,-6e-4 0.820831,0.002 0.34377,6e-4 0.687562,0.001 1.031705,0.005 0.358639,-4e-5 0.716622,-0.005 1.07551,-0.002 0.281837,-0.002 0.563969,-0.002 0.84576,-0.005 1.895764,-0.14811 -4.720845,3.11057 -3.166305,1.97445 0.04956,-0.0367 0.09868,-0.0739 0.14824,-0.11067 0.246554,0.36451 0.06427,-0.10841 0.03723,-0.1857 0.657654,7.84393 2.233423,-2.9047 3.817136,-2.31759 0.117211,0.0378 0.240703,0.0267 0.357473,0.0276 0.18478,6e-4 0.369729,0.002 0.554373,0.002 0.25693,0.006 0.512062,-1.7e-4 0.768449,0.002 0.173079,-0.002 0.346214,-0.005 0.519711,-0.005 1.579809,-0.0144 2.088363,-1.21444 -3.327129,2.39501 -0.05307,-0.0682 -0.03259,-0.0762 -0.06439,-0.0378 -0.168054,0.0242 -0.357937,0.002 -0.533562,-0.002 0,0 3.22619,-2.62153 3.22619,-2.62153 v 0 c 0.266945,0.0194 0.511643,0.0346 0.75582,0.20127 1.396716,1.30368 -1.698978,2.81446 -3.301158,2.73513 -0.169673,5e-5 -0.339425,-0.001 -0.509607,-0.005 -0.25762,0.002 -0.516554,-0.003 -0.773666,0.002 -0.187597,-5.9e-4 -0.374787,0.001 -0.562701,-0.001 -0.110557,-0.001 -0.244166,-0.0225 -0.340986,0.0164 -0.0079,0.0545 -0.05601,0.0768 -0.09924,0.10943 1.14413,-0.74934 2.288271,-1.49868 3.432402,-2.24801 -0.308396,-0.29606 0.0045,0.17374 0.02093,0.26659 -0.05386,0.0418 -0.108294,0.0826 -0.163041,0.12327 -1.229046,0.92401 -2.337112,2.42108 -4.03179,2.34098 -0.278782,-0.002 -0.557269,-0.002 -0.835961,-0.005 -0.355878,0.001 -0.712615,-0.002 -1.068697,-0.002 -0.347086,0.002 -0.694476,0.003 -1.041935,0.005 -0.27472,0.002 -0.549994,0.001 -0.825041,0.002 -0.28633,0.002 -0.574085,-0.006 -0.860098,-10e-4 -0.326728,-0.002 -0.652629,-3e-4 -0.979165,-0.002 -0.412741,-0.003 -0.824113,9e-4 -1.237193,-0.006 -0.40559,-0.003 -0.813702,-0.009 -1.225233,-0.0806 -0.396593,-0.0759 -0.796388,-0.20653 -1.191001,-0.22397 -0.406506,0.001 -0.813691,-0.001 -1.21954,0.005 -0.42632,0.0129 -0.852505,0.0298 -1.263752,0.10376 -0.447663,0.0907 -0.877208,0.2337 -1.354745,0.22733 -0.43655,0.0411 -0.859781,0.11449 -1.269715,0.2347 -0.527622,0.11421 -1.092371,0.10705 -1.614855,0.2402 -0.511801,0.11316 -1.035343,0.17442 -1.559457,0.24989 -0.566763,0.093 -1.129253,0.19016 -1.727781,0.15247 -0.49296,0.007 -0.986056,0.0158 -1.467836,0.0742 -0.527011,0.0785 -1.024215,0.23502 -1.555042,0.30125 -0.595622,0.0777 -1.162963,0.2252 -1.743685,0.34563 -0.530803,0.0982 -1.033652,0.2649 -1.569366,0.34938 -0.557787,0.11775 -1.120598,0.20996 -1.702546,0.24837 -0.597021,0.0859 -1.178901,0.22875 -1.799142,0.22749 -0.601489,0.0363 -1.195371,0.10196 -1.771319,0.22745 -0.59038,0.0989 -1.206991,0.0952 -1.797083,0.19687 -0.570273,0.0958 -1.13588,0.19752 -1.738401,0.16311 -0.527776,0.0114 -1.05483,0.0315 -1.57027,0.0974 -0.597122,0.0857 -1.179125,0.22803 -1.799207,0.22757 -0.601399,0.0378 -1.195256,0.10569 -1.765329,0.24823 -0.581302,0.11861 -1.188226,0.15471 -1.768156,0.27907 -0.530118,0.0788 -1.079749,0.058 -1.626982,0.0588 -0.501449,-0.002 -1.003188,-0.006 -1.502639,0.005 -0.494418,0.009 -0.989074,0.0231 -1.467188,0.1023 -0.583809,0.0871 -1.148512,0.23554 -1.749356,0.26459 -0.602482,0.0736 -1.179981,0.21482 -1.776809,0.30488 -0.585033,0.0726 -1.144197,0.2131 -1.721845,0.30706 -0.519358,0.0719 -1.009908,0.22201 -1.534223,0.27474 -0.602187,0.0525 -1.189062,0.15055 -1.77,0.27253 -0.593286,0.0642 -1.19175,0.11056 -1.767205,0.23533 -0.536563,0.0788 -1.092977,0.0549 -1.646143,0.0582 -0.565864,0.002 -1.133199,0.005 -1.685691,0.0707 -0.545857,0.078 -1.057708,0.22953 -1.578958,0.37211 -0.620943,0.15059 -1.216947,0.3564 -1.834533,0.51517 -0.607876,0.17859 -1.218093,0.35589 -1.853041,0.46598 -0.585338,0.12571 -1.184695,0.19756 -1.776183,0.30465 -0.584667,0.12607 -1.183314,0.19867 -1.7740454,0.30643 -0.586396,0.12657 -1.185632,0.20074 -1.785091,0.28743 -0.6396049,0.10546 -1.2911049,0.12913 -1.9603759,0.10207 -0.7759301,-0.003 -1.5512121,-0.002 -2.3244461,0.0114 -0.869753,0.0223 -1.736378,0.0642 -2.586793,0.17113 -0.84600995,0.10196 -1.69910995,0.15435 -2.574257,0.11701 -0.8389649,-0.007 -1.677939,-0.0102 -2.5228882,-0.062 -0.809113,-0.0462 -1.63404,-0.15883 -2.423591,-0.0811 -0.726924,0.12433 -1.446155,0.27352 -2.165636,0.41888 -0.683953,0.18645 -1.353559,0.40678 -2.0427194,0.58144 -0.511789,0.14678 -1.028462,0.28171 -1.530949,0.44913 -0.392255,0.0781 -0.764695,0.21984 -1.167817,0.25 -0.222557,0.0226 -0.426288,0.0635 -0.597629,0.19247 8.5872864,-5.48707 0.382261,-0.22246 -0.234831,0.14376 -0.03775,0.0224 -0.210129,-0.0835 -0.271397,-0.0487 -0.09303,-0.005 -0.238218,-0.0413 -0.264908,0.0638 -0.081,-0.0812 -0.277211,-0.21678 -0.327284,-0.36164 -0.01598,-0.0789 -0.02779,-0.15779 -0.04186,-0.23671 -0.03566,-0.16238 -0.102512,-0.2547 -0.01498,-0.39478 0.01018,-0.0256 0.0077,-0.0617 0.03038,-0.0766 7.1897324,-4.73329 2.35247,-1.45685 0.235511,0.11271 -0.0087,-0.0557 -0.01704,-0.11146 -0.02632,-0.16715 -0.281324,-1.64724 4.578364,-1.09519 3.438771,-2.56653 1.127661,-1.13327 -4.870929,1.4121 -3.181605,2.26243 -0.0098,-0.062 -0.006,-0.10637 -0.02727,-0.16374 -0.454169,-1.67087 2.711993,-1.20493 3.368491,-2.72131 1.2052864,-0.92571 -5.025281,2.43887 -3.25088,2.15198 0.213031,0.13989 0.02428,-0.0566 0.04847,-0.1705 0.01189,-0.16344 0.01,-0.40897 0.144352,-0.48685 0.06116,-0.0372 0.143173,-0.053 0.184126,-0.11101 0.101878,-0.14446 0.06357,-0.39724 0.247952,-0.49509 0.02484,-0.15508 0.06729,-0.33322 0.160096,-0.45685 0.02549,-0.034 0.0777,-0.0422 0.101561,-0.0774 0.199504,-0.29418 -0.104639,-0.0158 0.135394,-0.21391 0.196453,-0.14437 0.0077,0.0269 0.123904,-0.20495 0.02933,-0.0586 0.124925,-0.0645 0.148255,-0.12639 0.01624,-0.043 2.35e-4,-0.0965 3.42e-4,-0.14473 0.01505,-0.0277 0.03011,-0.0555 0.04516,-0.0832 0.03618,-0.0673 0.03826,-0.16268 0.100169,-0.20715 0.02544,-0.0182 0.07404,0.018 0.101652,0.002 0.07008,-0.0389 0.06818,-0.21666 0.111825,-0.27586 0.234627,0.0583 0.0058,-0.37235 0.288063,-0.36779 0.155675,-0.0639 0.08284,-0.16285 0.154369,-0.29946 0.06371,-0.1217 0.223733,-0.18758 0.281319,-0.31627 0.09417,-0.32813 0.292927,-0.62911 0.462121,-0.91246 0.09708,-0.33715 0.301631,-0.6399 0.462442,-0.94085 0.09809,-0.36469 0.290297,-0.69723 0.426435,-1.04253 0.127336,-0.28743 0.267968,-0.54857 0.449727,-0.79925 0.153672,-0.27829 0.2561694,-0.58047 0.4126174,-0.85134 0.194767,-0.27085 0.331524,-0.5885 0.53958,-0.84071 0.05109,-0.1656 0.160891,-0.23748 0.226351,-0.38814 0.07401,-0.17038 0.09284,-0.37331 0.223296,-0.51643 0.28246,-0.27974 0.401332,-0.68133 0.678483,-0.97124 0.276054,-0.38288 0.508669,-0.80022 0.80956,-1.16077 0.190349,-0.33941 0.45907,-0.6116 0.621499,-0.97024 0.07436,-0.13148 0.102455,-0.29013 0.177616,-0.41826 0.08772,-0.14954 0.118097,-0.0741 0.202357,-0.23494 0.02934,-0.056 0.03852,-0.12254 0.05778,-0.18381 0.202115,-0.31934 0.386031,-0.65367 0.551721,-0.99063 0.213522,-0.34238 0.296154,-0.77078 0.562322,-1.08478 0.26628,-0.40957 0.498001,-0.84714 0.705812,-1.2909 0.240553,-0.41401 0.476536,-0.82265 0.730175,-1.22792 0.2806669,-0.47645 0.5634139,-0.94552 0.8305537,-1.43131 0.291156,-0.57055 0.4882982,-1.1914 0.7884176,-1.75676 0.2097314,-0.48582 0.3866219,-0.98857 0.6696949,-1.43168 0.213719,-0.41867 0.44259005,-0.82379 0.66162705,-1.23964 0.269967,-0.35889 0.393793,-0.8314 0.719446,-1.15311 0.210043,-0.39334 0.497728,-0.72748 0.634736,-1.16687 0.226905,-0.28487 0.316882,-0.69027 0.49054295,-1.01639 0.244052,-0.36517 0.381246,-0.80459 0.687364,-1.13079 0.195302,-0.43784 0.477121,-0.83225 0.717109,-1.24141 0.198245,-0.47109 0.471876,-0.90509 0.689399,-1.36497 0.232446,-0.4502 0.442836,-0.91024 0.694309,-1.34883 0.202031,-0.44653 0.49433,-0.84968 0.761101,-1.25271 0.250385,-0.4988 0.62416,-0.91957 0.8237971,-1.45173 0.323018,-0.54899 0.51865,-1.17978 0.850661,-1.72573 0.219954,-0.50674 0.490786,-0.98462 0.723055,-1.4844 0.228921,-0.50406 0.4609619,-1.0044 0.7007459,-1.50023 0.273264,-0.52247 0.574043,-1.02743 0.81333,-1.57032 0.198712,-0.5357 0.457924,-1.04528 0.793133,-1.49558 0.232123,-0.51522 0.46659,-1.02768 0.7055124,-1.53722 0.27345,-0.53672 0.576168,-1.04961 0.872357,-1.56932 0.196473,-0.49283 0.433753,-0.96287 0.612298,-1.46505 0.219766,-0.34275 0.417093,-0.6934 0.667452,-1.01061 0.148454,-0.36388 0.41175,-0.66155 0.516427,-1.05261 0.234219,-0.36715 0.354357,-0.81198 0.599952,-1.17666 0.158784,-0.52871 0.464214,-0.97784 0.601678,-1.51861 0.09692,-0.48992 0.315418,-0.93322 0.548612,-1.3552 0.24151,-0.47497 0.462229,-0.9603 0.690701,-1.44281 0.201899,-0.55024 0.495123,-1.05 0.656897,-1.62035 0.165733,-0.555788 0.367799,-1.096578 0.568945,-1.635408 0.162818,-0.51001 0.388917,-0.99103 0.602771,-1.47519 0.310669,-0.56977 0.475321,-1.22674 0.785454,-1.79951 0.300114,-0.55585 0.554506,-1.14429 0.762392,-1.74993 0.210384,-0.48784 0.391061,-0.9903 0.653724,-1.44846 0.211857,-0.47405 0.417117,-0.95639 0.548366,-1.46955 0.204697,-0.502216 0.479767,-0.969534 0.683017,-1.473032 0.230116,-0.512249 0.471654,-1.020255 0.731947,-1.515298 0.08087,-0.154741 0.187443,-0.292945 0.267231,-0.448354 0.161222,-0.314029 0.203363,-0.697493 0.34335,-1.022782 0.22187,-0.507741 0.389353,-1.043613 0.643343,-1.532755 0.190149,-0.425254 0.395378,-0.843168 0.605645,-1.257153 0.145329,-0.465542 0.444036,-0.835182 0.662438,-1.260781 0.226894,-0.42594 0.437088,-0.854845 0.611905,-1.310214 0.239012,-0.412149 0.364549,-0.897186 0.617249,-1.304509 0.180624,-0.407045 0.404357,-0.787958 0.53822,-1.223461 0.216607,-0.374796 0.333719,-0.797174 0.539834,-1.177584 0.127737,-0.353438 0.288363,-0.684283 0.417689,-1.03142 0.135969,-0.269217 0.226474,-0.554532 0.31411,-0.843933 0.07245,-0.310803 0.21218,-0.567729 0.32349,-0.861134 0.240178,-0.274221 0.364751,-0.620907 0.53176,-0.94978 0.187823,-0.434338 0.421681,-0.844363 0.561864,-1.305542 0,0 3.816059,-1.862188 3.816059,-1.862188 z"
       id="path1469"
       style="opacity:0.61000001;fill:#ffffff;fill-opacity:0.02577317;stroke:#e27600;stroke-width:24.10315132;stroke-linecap:butt;stroke-linejoin:bevel;stroke-miterlimit:4;stroke-dasharray:0, 265.13468186;stroke-dashoffset:213;stroke-opacity:1;paint-order:normal" />
    <path
       inkscape:connector-curvature="0"
       d="m -0.39178868,2.197693 c 0.06419,0.820949 0.204896,1.6300208 0.343211,2.4407038 0.09899,0.924643 0.269694,1.838809 0.374775,2.762493 0.117913,1.043915 0.120836,2.096045 0.128433,3.1451982 0.0095,1.122769 0.0075,2.245531 0.004,3.368324 0.01435,1.111463 -0.03806,2.225881 0.03329,3.335599 0.10041795,1.009498 0.19494795,2.018994 0.24092395,3.032591 -0.0093,0.927375 0.124537,1.843619 0.21643,2.763846 0.05135,0.88449 0.13356903,1.761862 0.25451203,2.639517 0.07177,0.717341 0.169421,1.42616 0.306405,2.133675 0.04849,0.491258 0.200428,0.953087 0.355749,1.417606 0.0822,0.221197 0.123814,0.454824 0.164544,0.686529 0.02218,0.09976 0.01439,0.202691 0.01628,0.304242 1.41e-4,0.03768 0.0026,0.07527 0.0049,0.112843 -0.335649,-0.548373 -3.29e-4,-0.247867 0.140442,-0.03823 0,0 -3.90994,2.319301 -3.90994,2.319301 v 0 c 0.08608,0.244539 -0.282836,-0.05521 -0.300179,-0.219202 0.0037,-0.03764 0.0076,-0.07532 0.0084,-0.113211 0.0035,-0.08739 0.0022,-0.174887 0.0089,-0.262041 -0.0023,-0.210653 -0.03004,-0.421365 -0.08967,-0.62371 -0.136971,-0.490269 -0.3154541,-0.966896 -0.344751,-1.480791 -0.130886,-0.720191 -0.2495243,-1.435382 -0.2920181,-2.167765 -0.1148841,-0.884585 -0.2242382,-1.764594 -0.2522267,-2.65752 -0.092672,-0.928617 -0.2431278,-1.852723 -0.2226333,-2.788832 -0.041082,-1.011591 -0.1092206,-2.02126 -0.2259906,-3.027279 -0.082888,-1.120904 -0.014883,-2.245834 -0.035928,-3.368973 -0.00147,-1.121246 0.00165,-2.242506 -0.00266,-3.363721 -0.012734,-1.032174 -0.027479,-2.065804 -0.1267766,-3.0940762 -0.1061783,-0.91529 -0.2843961,-1.819037 -0.377084,-2.735862 -0.1299073,-0.799203 -0.2734883,-1.595146 -0.3995903,-2.394294 0,0 3.97826222,-2.1269608 3.97826222,-2.1269608 z"
       id="path1471"
       style="opacity:0.61000001;fill:#ffffff;fill-opacity:0.02577317;stroke:#e27600;stroke-width:3.62113094;stroke-linecap:butt;stroke-linejoin:bevel;stroke-miterlimit:4;stroke-dasharray:0, 39.83243981;stroke-dashoffset:0;stroke-opacity:1;paint-order:normal" />
    <path
       inkscape:connector-curvature="0"
       d="m -1.7148127,24.739955 c -0.210382,-0.417266 -0.392316,-0.840497 -0.489819,-1.298413 -0.083626,-0.471157 -0.086192,-0.949288 -0.087212,-1.426056 0.00227,-0.579247 0.00581,-1.158488 0.00762,-1.73774 -0.011408,-0.66955 0.143963,-1.325441 0.218629,-1.988326 0.06824,-0.698763 0.08662,-1.401094 0.09366,-2.102735 -0.02105,-0.677375 0.122024,-1.343306 0.205291,-2.012298 0.024,-0.579253 0.132509,-1.143791 0.25056,-1.709295 0.04559,-0.48333 0.186698,-0.944883 0.294442,-1.415687 0.05653,-0.437973 0.189292,-0.854897 0.29947902,-1.2803482 0.08754,-0.325325 0.123833,-0.661087 0.135897,-0.996918 -0.01825,-0.376813 0.06145,-0.731371 0.16929,-1.088773 0.08734,-0.293355 0.114402,-0.596378 0.134186,-0.900087 0.0084,-0.26319 -0.0015,-0.526437 0.01052,-0.789399 0.04532,-0.205117 0.165822,-0.371469 0.228421,-0.570887 0.04994,-0.09751 0.05196,-0.209472 0.05617,-0.316801 0,0 4.06198998,-2.0504027 4.06198998,-2.0504027 v 0 c -0.0051,0.1398402 -0.017,0.279497 -0.01446,0.4195182 -0.0554,0.2071627 -0.08407,0.4247035 -0.235917,0.5854195 -0.164328,0.133899 -0.02613,0.490879 -0.07323,0.686099 -0.0035,0.331493 -0.01946,0.666618 -0.09643,0.990069 -0.07435,0.339888 -0.253266,0.642083 -0.205304,0.997705 -0.0136,0.36577 -0.02862,0.731546 -0.106189,1.090845 -0.1098,0.427541 -0.274511,0.831505 -0.309935,1.27298 -0.109868,0.469107 -0.269602,0.9231092 -0.309409,1.4047182 -0.10078,0.563245 -0.290776,1.106959 -0.280038,1.686721 -0.07308,0.659988 -0.231973,1.311601 -0.239269,1.975667 -0.0064,0.713673 -0.0042,1.428357 -0.07286,2.139602 -0.06299,0.649423 -0.190678,1.29183 -0.224938,1.940221 -3.29e-4,0.576286 -0.0014,1.15258 0.0021,1.728857 0.0044,0.449332 0.0035,0.900581 0.05779,1.347294 0.07225,0.421617 0.219627,0.817449 0.444671,1.183141 0,0 -3.925839,2.235309 -3.925839,2.235309 z"
       id="path1473"
       style="opacity:0.61000001;fill:#ffffff;fill-opacity:0.02577317;stroke:#e27600;stroke-width:3.62113094;stroke-linecap:butt;stroke-linejoin:bevel;stroke-miterlimit:4;stroke-dasharray:0, 39.83243981;stroke-dashoffset:0;stroke-opacity:1;paint-order:normal" />
  </g>
  <g
     style="display:inline;opacity:1"
     id="g2801"
     inkscape:groupmode="layer"
     inkscape:label="Circle copy 1"
     transform="translate(0,-147)"
     sodipodi:insensitive="true">
    <path
       sodipodi:open="true"
       d="m 95.716325,272.52771 a 50,50 0 0 1 -68.115352,-14.11898 50,50 0 0 1 11.918981,-68.53455 50,50 0 0 1 68.882716,9.70663 50,50 0 0 1 -7.48422,69.15948"
       sodipodi:end="0.8770974"
       sodipodi:start="1.0058823"
       sodipodi:ry="50"
       sodipodi:rx="50"
       sodipodi:cy="230.29597"
       sodipodi:cx="68.949165"
       sodipodi:type="arc"
       id="path2799"
       style="opacity:1;fill:#5f2ad8;fill-opacity:0.00952382;stroke:url(#linearGradient3543);stroke-width:3.70000005;stroke-miterlimit:4;stroke-dasharray:none;stroke-opacity:1;filter:url(#filter3261)"
       transform="matrix(1.1316034,0,0,1.1316034,-11.848909,-38.822832)" />
  </g>
  <g
     inkscape:label="Circle copy 1 copy"
     inkscape:groupmode="layer"
     id="g2939"
     style="display:none;opacity:1"
     transform="translate(0,-147)"
     sodipodi:insensitive="true">
    <path
       style="opacity:1;fill:url(#linearGradient3535);fill-opacity:1;stroke:url(#linearGradient3527);stroke-width:8.10000038;stroke-miterlimit:4;stroke-dasharray:none;stroke-opacity:1"
       id="path2937"
       sodipodi:type="arc"
       sodipodi:cx="66.174202"
       sodipodi:cy="221.78087"
       sodipodi:rx="56.58017"
       sodipodi:ry="56.58017"
       sodipodi:start="1.00613"
       sodipodi:end="0.8870985"
       d="m 96.452173,269.57794 a 56.58017,56.58017 0 0 1 -77.153007,-16.11038 56.58017,56.58017 0 0 1 13.807674,-77.59818 56.58017,56.58017 0 0 1 77.97466,11.49274 56.58017,56.58017 0 0 1 -9.16764,78.28209"
       sodipodi:open="true" />
    <text
       xml:space="preserve"
       style="font-style:normal;font-weight:normal;font-size:10.58333302px;line-height:1.25;font-family:sans-serif;letter-spacing:0px;word-spacing:0px;fill:#000000;fill-opacity:1;stroke:none;stroke-width:0.26458332"
       x="187.8327"
       y="262.01901"
       id="text3650"><tspan
         sodipodi:role="line"
         id="tspan3648"
         x="187.8327"
         y="271.38278"
         style="stroke-width:0.26458332" /></text>
  </g>
  <g
     transform="translate(0,-147)"
     style="display:inline;opacity:1"
     id="g4280"
     inkscape:groupmode="layer"
     inkscape:label="Circle copy 1 copy copy"
     sodipodi:insensitive="true">
    <path
       sodipodi:open="true"
       d="m 96.452173,269.57794 a 56.58017,56.58017 0 0 1 -77.153007,-16.11038 56.58017,56.58017 0 0 1 13.807674,-77.59818 56.58017,56.58017 0 0 1 77.97466,11.49274 56.58017,56.58017 0 0 1 -9.16764,78.28209"
       sodipodi:end="0.8870985"
       sodipodi:start="1.00613"
       sodipodi:ry="56.58017"
       sodipodi:rx="56.58017"
       sodipodi:cy="221.78087"
       sodipodi:cx="66.174202"
       sodipodi:type="arc"
       id="path4274"
       style="opacity:1;fill:#00c4d8;fill-opacity:0;stroke:url(#linearGradient4292);stroke-width:6.5;stroke-miterlimit:4;stroke-dasharray:none;stroke-opacity:1" />
    <text
       id="text4278"
       y="262.01901"
       x="187.8327"
       style="font-style:normal;font-weight:normal;font-size:10.58333302px;line-height:1.25;font-family:sans-serif;letter-spacing:0px;word-spacing:0px;fill:#000000;fill-opacity:1;stroke:none;stroke-width:0.26458332"
       xml:space="preserve"><tspan
         style="stroke-width:0.26458332"
         y="271.38278"
         x="187.8327"
         id="tspan4276"
         sodipodi:role="line" /></text>
  </g>
  <g
     inkscape:groupmode="layer"
     id="layer2"
     inkscape:label="Countours"
     transform="translate(0,14.5333)"
     style="display:inline"
     sodipodi:insensitive="true" />
  <g
     inkscape:label="uantum copy"
     id="g3903"
     inkscape:groupmode="layer"
     transform="translate(0,20)"
     style="opacity:0.49300005"
     sodipodi:insensitive="true">
    <text
       transform="matrix(0.82667394,0,0,0.93213224,28.163272,-19.691743)"
       id="text3877"
       y="107.02518"
       x="117.24479"
       style="font-style:normal;font-weight:normal;font-size:110.60166168px;line-height:1.25;font-family:sans-serif;letter-spacing:0px;word-spacing:0px;opacity:1;fill:url(#linearGradient3905);fill-opacity:1;stroke:url(#linearGradient3907);stroke-width:2.29999995;stroke-miterlimit:4;stroke-dasharray:none;stroke-opacity:1;filter:url(#filter3993)"
       xml:space="preserve"><tspan
         style="font-style:normal;font-variant:normal;font-weight:normal;font-stretch:normal;font-family:Z003;-inkscape-font-specification:Z003;fill:url(#linearGradient3905);fill-opacity:1;stroke:url(#linearGradient3907);stroke-width:2.29999995;stroke-miterlimit:4;stroke-dasharray:none;stroke-opacity:1"
         y="107.02518"
         x="117.24479"
         id="tspan3875"
         sodipodi:role="line">uantum</tspan></text>
    <flowRoot
       style="font-style:normal;font-weight:normal;font-size:40px;line-height:1.25;font-family:sans-serif;letter-spacing:0px;word-spacing:0px;fill:#000000;fill-opacity:1;stroke:none"
       id="flowRoot3885"
       xml:space="preserve"><flowRegion
         id="flowRegion3881"><rect
           y="334.84827"
           x="462.13605"
           height="65.932487"
           width="64.240509"
           id="rect3879" /></flowRegion><flowPara
         id="flowPara3883"></flowPara></flowRoot>    <flowRoot
       style="font-style:normal;font-weight:normal;font-size:40px;line-height:1.25;font-family:sans-serif;letter-spacing:0px;word-spacing:0px;fill:#000000;fill-opacity:1;stroke:none"
       id="flowRoot3893"
       xml:space="preserve"><flowRegion
         id="flowRegion3889"><rect
           y="334.84827"
           x="501.98843"
           height="77.228989"
           width="28.452785"
           id="rect3887" /></flowRegion><flowPara
         id="flowPara3891"></flowPara></flowRoot>    <flowRoot
       style="font-style:normal;font-weight:normal;font-size:40px;line-height:1.25;font-family:sans-serif;letter-spacing:0px;word-spacing:0px;fill:#000000;fill-opacity:1;stroke:none"
       id="flowRoot3901"
       xml:space="preserve"><flowRegion
         id="flowRegion3897"><rect
           y="546.15533"
           x="218.78784"
           height="71.188454"
           width="12.899134"
           id="rect3895" /></flowRegion><flowPara
         id="flowPara3899"></flowPara></flowRoot>  </g>
  <g
     inkscape:groupmode="layer"
     id="layer6"
     inkscape:label="^4"
     sodipodi:insensitive="true">
    <text
       xml:space="preserve"
       style="font-style:normal;font-weight:normal;font-size:108.70811462px;line-height:1.25;font-family:sans-serif;letter-spacing:0px;word-spacing:0px;opacity:0.253;fill:#1417cd;fill-opacity:0.6752451;stroke:#150ecf;stroke-width:2.26062274;stroke-miterlimit:4;stroke-dasharray:none;stroke-opacity:0.83518515;filter:url(#filter4264)"
       x="345.73395"
       y="69.70903"
       id="text3807-1-9"
       transform="scale(1.0654645,0.93855779)"><tspan
         sodipodi:role="line"
         id="tspan3805-3-9"
         x="345.73395"
         y="69.70903"
         style="font-style:normal;font-variant:normal;font-weight:normal;font-stretch:normal;font-family:Z003;-inkscape-font-specification:Z003;fill:#1417cd;fill-opacity:0.6752451;stroke:#150ecf;stroke-width:2.26062274;stroke-miterlimit:4;stroke-dasharray:none;stroke-opacity:0.83518515">4</tspan></text>
  </g>
  <g
     inkscape:groupmode="layer"
     id="layer4"
     inkscape:label="uantum"
     transform="translate(0,20)">
    <text
       xml:space="preserve"
       style="font-style:normal;font-weight:normal;font-size:97.18205261px;line-height:1.25;font-family:sans-serif;letter-spacing:0px;word-spacing:0px;opacity:1;fill:url(#linearGradient3867);fill-opacity:1;stroke:url(#linearGradient3855);stroke-width:2.0999999;stroke-miterlimit:4;stroke-dasharray:none;stroke-opacity:1"
       x="132.69684"
       y="75.477745"
       id="text3807"
       transform="scale(0.94264851,1.0608408)"><tspan
         sodipodi:role="line"
         id="tspan3805"
         x="132.69684"
         y="75.477745"
         style="font-style:normal;font-variant:normal;font-weight:normal;font-stretch:normal;font-family:Z003;-inkscape-font-specification:Z003;fill:url(#linearGradient3867);fill-opacity:1;stroke:url(#linearGradient3855);stroke-width:2.0999999;stroke-miterlimit:4;stroke-dasharray:none;stroke-opacity:1">uantum</tspan></text>
    <flowRoot
       xml:space="preserve"
       id="flowRoot3809"
       style="font-style:normal;font-weight:normal;font-size:40px;line-height:1.25;font-family:sans-serif;letter-spacing:0px;word-spacing:0px;fill:#000000;fill-opacity:1;stroke:none"
       transform="scale(0.26458333)"><flowRegion
         id="flowRegion3811"><rect
           id="rect3813"
           width="64.240509"
           height="65.932487"
           x="462.13605"
           y="334.84827" /></flowRegion><flowPara
         id="flowPara3815"></flowPara></flowRoot>    <flowRoot
       xml:space="preserve"
       id="flowRoot3817"
       style="font-style:normal;font-weight:normal;font-size:40px;line-height:1.25;font-family:sans-serif;letter-spacing:0px;word-spacing:0px;fill:#000000;fill-opacity:1;stroke:none"
       transform="scale(0.26458333)"><flowRegion
         id="flowRegion3819"><rect
           id="rect3821"
           width="28.452785"
           height="77.228989"
           x="501.98843"
           y="334.84827" /></flowRegion><flowPara
         id="flowPara3823"></flowPara></flowRoot>    <flowRoot
       xml:space="preserve"
       id="flowRoot3833"
       style="font-style:normal;font-weight:normal;font-size:40px;line-height:1.25;font-family:sans-serif;letter-spacing:0px;word-spacing:0px;fill:#000000;fill-opacity:1;stroke:none"
       transform="scale(0.26458333)"><flowRegion
         id="flowRegion3835"><rect
           id="rect3837"
           width="12.899134"
           height="71.188454"
           x="218.78784"
           y="546.15533" /></flowRegion><flowPara
         id="flowPara3839"></flowPara></flowRoot>    <text
       xml:space="preserve"
       style="font-style:normal;font-weight:normal;font-size:102.97137451px;line-height:1.25;font-family:sans-serif;letter-spacing:0px;word-spacing:0px;opacity:1;fill:#150369;fill-opacity:1;stroke:#150369;stroke-width:2.14100003;stroke-miterlimit:4;stroke-dasharray:none;stroke-opacity:1"
       x="352.68695"
       y="48.399742"
       id="text3807-1"
       transform="scale(1.0654645,0.93855779)"><tspan
         sodipodi:role="line"
         id="tspan3805-3"
         x="352.68695"
         y="48.399742"
         style="font-style:normal;font-variant:normal;font-weight:normal;font-stretch:normal;font-family:Z003;-inkscape-font-specification:Z003;fill:#150369;fill-opacity:1;stroke:#150369;stroke-width:2.14100003;stroke-miterlimit:4;stroke-dasharray:none;stroke-opacity:1">4</tspan></text>
    <flowRoot
       xml:space="preserve"
       id="flowRoot4116"
       style="font-style:normal;font-weight:normal;font-size:40px;line-height:1.25;font-family:sans-serif;letter-spacing:0px;word-spacing:0px;fill:#000000;fill-opacity:1;stroke:none"
       transform="matrix(0.26458333,0,0,0.26458333,0,-20)"><flowRegion
         id="flowRegion4118"><rect
           id="rect4120"
           width="504.02078"
           height="483.69736"
           x="1308.8281"
           y="201.1076" /></flowRegion><flowPara
         id="flowPara4122"></flowPara></flowRoot>  </g>
</svg>
