<?xml version="1.0" encoding="UTF-8" standalone="no"?>
<svg
   xmlns:osb="http://www.openswatchbook.org/uri/2009/osb"
   xmlns:dc="http://purl.org/dc/elements/1.1/"
   xmlns:cc="http://creativecommons.org/ns#"
   xmlns:rdf="http://www.w3.org/1999/02/22-rdf-syntax-ns#"
   xmlns:svg="http://www.w3.org/2000/svg"
   xmlns="http://www.w3.org/2000/svg"
   xmlns:xlink="http://www.w3.org/1999/xlink"
   xmlns:sodipodi="http://sodipodi.sourceforge.net/DTD/sodipodi-0.dtd"
   xmlns:inkscape="http://www.inkscape.org/namespaces/inkscape"
   width="422.0831mm"
   height="147.72063mm"
   viewBox="0 0 422.0831 147.72063"
   version="1.1"
   id="svg8"
   inkscape:version="1.0.2 (e86c870879, 2021-01-15)"
   sodipodi:docname="Title.svg">
  <defs
     id="defs2">
    <linearGradient
       id="linearGradient4310"
       inkscape:collect="always">
      <stop
         id="stop4306"
         offset="0"
         style="stop-color:#c71122;stop-opacity:1;" />
      <stop
         id="stop4308"
         offset="1"
         style="stop-color:#1504d4;stop-opacity:1" />
    </linearGradient>
    <linearGradient
       inkscape:collect="always"
       id="linearGradient4304">
      <stop
         style="stop-color:#c71122;stop-opacity:1;"
         offset="0"
         id="stop4300" />
      <stop
         style="stop-color:#0b026d;stop-opacity:1"
         offset="1"
         id="stop4302" />
    </linearGradient>
    <linearGradient
       inkscape:collect="always"
       id="linearGradient3525">
      <stop
         style="stop-color:#c71122;stop-opacity:1;"
         offset="0"
         id="stop3521" />
      <stop
         style="stop-color:#1504d4;stop-opacity:0.78500003"
         offset="1"
         id="stop3523" />
    </linearGradient>
    <linearGradient
       inkscape:collect="always"
       id="linearGradient871">
      <stop
         style="stop-color:#ffffff;stop-opacity:1;"
         offset="0"
         id="stop867" />
      <stop
         style="stop-color:#ffffff;stop-opacity:0;"
         offset="1"
         id="stop869" />
    </linearGradient>
    <linearGradient
       inkscape:collect="always"
       id="linearGradient861">
      <stop
         style="stop-color:#f80000;stop-opacity:0.61"
         offset="0"
         id="stop857" />
      <stop
         style="stop-color:#002ad8;stop-opacity:0.71"
         offset="1"
         id="stop859" />
    </linearGradient>
    <linearGradient
       inkscape:collect="always"
       id="linearGradient6666">
      <stop
         style="stop-color:#e27600;stop-opacity:1"
         offset="0"
         id="stop852" />
      <stop
         style="stop-color:#05008d;stop-opacity:1"
         offset="1"
         id="stop854" />
    </linearGradient>
    <linearGradient
       inkscape:collect="always"
       id="linearGradient6718">
      <stop
         style="stop-color:#fe0000;stop-opacity:1"
         offset="0"
         id="stop6714" />
      <stop
         style="stop-color:#0500d2;stop-opacity:1"
         offset="1"
         id="stop6716" />
    </linearGradient>
    <linearGradient
       id="linearGradient6666-3"
       inkscape:collect="always">
      <stop
         id="stop6662"
         offset="0"
         style="stop-color:#e20000;stop-opacity:1" />
      <stop
         id="stop6664"
         offset="1"
         style="stop-color:#05008d;stop-opacity:1" />
    </linearGradient>
    <linearGradient
       id="linearGradient6298"
       osb:paint="solid">
      <stop
         style="stop-color:#3e4a18;stop-opacity:1;"
         offset="0"
         id="stop6296" />
    </linearGradient>
    <linearGradient
       id="linearGradient4758"
       osb:paint="solid">
      <stop
         style="stop-color:#ff0000;stop-opacity:1;"
         offset="0"
         id="stop4756" />
    </linearGradient>
    <linearGradient
       inkscape:collect="always"
       xlink:href="#linearGradient6718"
       id="linearGradient4818"
       x1="72.987419"
       y1="98.890343"
       x2="119.14142"
       y2="98.890343"
       gradientUnits="userSpaceOnUse"
       gradientTransform="matrix(0.87861598,-0.75143759,0.23665622,2.3190647,-9.6238489,-75.309822)" />
    <linearGradient
       inkscape:collect="always"
       xlink:href="#linearGradient6718"
       id="linearGradient6822"
       x1="25.060455"
       y1="55.468498"
       x2="124.35416"
       y2="114.3"
       gradientUnits="userSpaceOnUse"
       gradientTransform="matrix(0.95368279,-0.11320142,-0.21495379,1.0155393,24.278271,8.2529213)" />
    <radialGradient
       inkscape:collect="always"
       xlink:href="#linearGradient6666"
       id="radialGradient850"
       cx="52.916668"
       cy="246.72916"
       fx="52.916668"
       fy="246.72916"
       r="50"
       gradientUnits="userSpaceOnUse"
       gradientTransform="matrix(1.1316034,0,0,1.1316034,-11.848909,-38.822832)" />
    <radialGradient
       inkscape:collect="always"
       xlink:href="#linearGradient861"
       id="radialGradient865"
       cx="68.142578"
       cy="230.29597"
       fx="68.142578"
       fy="230.29597"
       r="50"
       gradientUnits="userSpaceOnUse"
       gradientTransform="matrix(1.1316034,0,0,1.1316034,-11.848909,-38.822832)" />
    <linearGradient
       inkscape:collect="always"
       xlink:href="#linearGradient871"
       id="linearGradient873"
       x1="-60.854168"
       y1="61.383335"
       x2="-60.762787"
       y2="61.529644"
       gradientUnits="userSpaceOnUse"
       gradientTransform="matrix(0.97561685,0.22273725,-0.22257704,0.97491509,16.639543,-13.519968)" />
    <filter
       inkscape:collect="always"
       style="color-interpolation-filters:sRGB"
       id="filter2177"
       x="-0.092445418"
       width="1.1848907"
       y="-0.10292154"
       height="1.2058431">
      <feGaussianBlur
         inkscape:collect="always"
         stdDeviation="3.3419793"
         id="feGaussianBlur2179" />
    </filter>
    <filter
       inkscape:collect="always"
       style="color-interpolation-filters:sRGB"
       id="filter3261"
       x="-0.054000001"
       width="1.108"
       y="-0.054000001"
       height="1.108">
      <feGaussianBlur
         inkscape:collect="always"
         stdDeviation="2.25"
         id="feGaussianBlur3263" />
    </filter>
    <radialGradient
       inkscape:collect="always"
       xlink:href="#linearGradient6666-3"
       id="radialGradient3273"
       gradientUnits="userSpaceOnUse"
       gradientTransform="matrix(0.80192049,-0.4528703,0.21871605,1.9486225,-2.4603639,-55.807307)"
       cx="96.064423"
       cy="98.890343"
       fx="96.064423"
       fy="98.890343"
       r="23.077003" />
    <linearGradient
       inkscape:collect="always"
       xlink:href="#linearGradient6666-3"
       id="linearGradient3275"
       gradientUnits="userSpaceOnUse"
       gradientTransform="matrix(0.80192049,-0.4528703,0.21853193,1.9469824,-2.442157,-55.645083)"
       x1="72.987419"
       y1="98.890343"
       x2="119.14142"
       y2="98.890343" />
    <filter
       inkscape:collect="always"
       style="color-interpolation-filters:sRGB"
       id="filter3477"
       x="-0.089388959"
       width="1.1787779"
       y="-0.052312292"
       height="1.1046246">
      <feGaussianBlur
         inkscape:collect="always"
         stdDeviation="1.6785131"
         id="feGaussianBlur3479" />
    </filter>
    <linearGradient
       inkscape:collect="always"
       xlink:href="#linearGradient3525"
       id="linearGradient3543"
       x1="13.549165"
       y1="230.29597"
       x2="124.34917"
       y2="230.29597"
       gradientUnits="userSpaceOnUse" />
    <linearGradient
       inkscape:collect="always"
       xlink:href="#linearGradient4304"
       id="linearGradient3551"
       x1="79.250237"
       y1="58.339306"
       x2="112.8799"
       y2="93.473427"
       gradientUnits="userSpaceOnUse"
       gradientTransform="matrix(1.0948826,-0.24863117,-0.00134083,1.2190139,-4.5937189,5.0310398)" />
    <linearGradient
       inkscape:collect="always"
       xlink:href="#linearGradient4310"
       id="linearGradient3597"
       x1="26.007996"
       y1="58.661015"
       x2="115.5861"
       y2="58.661015"
       gradientUnits="userSpaceOnUse"
       gradientTransform="matrix(1.1316034,0,0,1.1316034,-11.848909,-17.564497)" />
    <linearGradient
       inkscape:collect="always"
       xlink:href="#linearGradient4304"
       id="linearGradient3855"
       x1="125.03535"
       y1="85.858704"
       x2="429.39377"
       y2="85.858704"
       gradientUnits="userSpaceOnUse"
       gradientTransform="matrix(0.87866715,0,0,0.87866714,30.274024,-23.62728)" />
    <linearGradient
       inkscape:collect="always"
       xlink:href="#linearGradient4304"
       id="linearGradient3867"
       x1="125.16413"
       y1="80.093681"
       x2="430.62256"
       y2="80.093681"
       gradientUnits="userSpaceOnUse"
       gradientTransform="matrix(0.87866715,0,0,0.87866714,29.677608,-18.561747)" />
    <linearGradient
       inkscape:collect="always"
       xlink:href="#linearGradient861"
       id="linearGradient3905"
       gradientUnits="userSpaceOnUse"
       x1="125.16413"
       y1="80.093681"
       x2="430.62256"
       y2="80.093681" />
    <linearGradient
       inkscape:collect="always"
       xlink:href="#linearGradient3525"
       id="linearGradient3907"
       gradientUnits="userSpaceOnUse"
       gradientTransform="translate(0.67877471,-5.7650197)"
       x1="125.03535"
       y1="85.858704"
       x2="429.39377"
       y2="85.858704" />
    <filter
       inkscape:collect="always"
       style="color-interpolation-filters:sRGB"
       id="filter3993"
       x="-0.046384551"
       width="1.0927691"
       y="-0.2449706"
       height="1.4899412">
      <feGaussianBlur
         inkscape:collect="always"
         stdDeviation="5.859129"
         id="feGaussianBlur3995" />
    </filter>
    <filter
       inkscape:collect="always"
       style="color-interpolation-filters:sRGB"
       id="filter4264"
       x="-0.10063212"
       width="1.2012641"
       y="-0.063678689"
       height="1.1273574">
      <feGaussianBlur
         inkscape:collect="always"
         stdDeviation="1.759439"
         id="feGaussianBlur4266" />
    </filter>
    <linearGradient
       inkscape:collect="always"
       xlink:href="#linearGradient4304"
       id="linearGradient4292"
       gradientUnits="userSpaceOnUse"
       gradientTransform="matrix(1.1316034,0,0,1.1316034,-11.848909,-38.822832)"
       x1="30.553368"
       y1="200.44235"
       x2="104.5653"
       y2="279.00595" />
  </defs>
  <sodipodi:namedview
     id="base"
     pagecolor="#ffffff"
     bordercolor="#666666"
     borderopacity="1.0"
     inkscape:pageopacity="0.0"
     inkscape:pageshadow="2"
     inkscape:zoom="0.46640478"
     inkscape:cx="926.08285"
     inkscape:cy="258.97413"
     inkscape:document-units="mm"
     inkscape:current-layer="g3903"
     showgrid="false"
     units="mm"
     inkscape:window-width="1366"
     inkscape:window-height="704"
     inkscape:window-x="0"
     inkscape:window-y="27"
     inkscape:window-maximized="1"
     width="5000mm"
     inkscape:snap-text-baseline="true"
     showguides="true"
     inkscape:document-rotation="0"
     fit-margin-top="0"
     fit-margin-left="0"
     fit-margin-right="0"
     fit-margin-bottom="0">
    <inkscape:grid
       type="xygrid"
       id="grid3721"
       originx="-3.4833725"
       originy="-1.7759356" />
  </sodipodi:namedview>
  <metadata
     id="metadata5">
    <rdf:RDF>
      <cc:Work
         rdf:about="">
        <dc:format>image/svg+xml</dc:format>
        <dc:type
           rdf:resource="http://purl.org/dc/dcmitype/StillImage" />
        <dc:title></dc:title>
      </cc:Work>
    </rdf:RDF>
  </metadata>
  <g
     id="g846"
     inkscape:groupmode="layer"
     inkscape:label="Circle bg"
     style="display:inline;opacity:0.276"
     transform="translate(-3.4833724,-148.77594)">
    <circle
       cy="221.78087"
       cx="65.261459"
       id="circle844"
       style="opacity:1;fill:url(#radialGradient865);fill-opacity:1;stroke:url(#radialGradient850);stroke-width:6.22382;stroke-miterlimit:4;stroke-dasharray:0, 68.462;stroke-dashoffset:55;stroke-opacity:1"
       r="56.58017" />
  </g>
  <g
     inkscape:label="Q halo"
     id="g3271"
     inkscape:groupmode="layer"
     transform="translate(-3.4833724,12.757364)"
     style="display:inline">
    <path
       inkscape:connector-curvature="0"
       d="m 73.542723,65.35843 c 1.780775,-3.226592 3.483719,-7.055156 5.646256,-8.741087 0.536704,-0.714633 1.11461,-1.249865 1.745368,-1.181009 0.688093,0.03027 1.345788,0.432467 1.976152,1.117171 0.804444,0.964788 1.480301,2.360685 2.126647,3.832183 0.739322,2.076243 1.347886,4.380432 1.892856,6.754483 0.620412,2.801031 1.163306,5.684498 1.788442,8.48156 0.565451,2.914861 1.216514,5.717235 1.922411,8.460767 0.649387,2.957795 1.372604,5.811157 2.115195,8.64705 0.816995,3.233864 1.803108,6.206809 2.828928,9.087872 1.053544,3.10898 2.259128,5.88965 3.495574,8.58521 1.304868,2.85344 2.671188,5.53117 4.115228,7.97323 1.41401,2.25492 2.88421,3.98537 4.4752,5.34622 1.37663,1.08207 2.79365,1.58739 4.22455,1.73926 1.13281,0.12052 2.23315,-0.48559 3.27321,-1.41248 0.98889,-1.07594 1.92814,-2.38432 2.86119,-3.69901 0.19302,-0.29246 0.38606,-0.58482 0.57911,-0.87725 0,0 -3.26867,7.38746 -3.26867,7.38746 v 0 c -0.20774,0.30887 -0.41546,0.61772 -0.62318,0.92658 -0.94859,1.30321 -1.8992,2.64766 -2.93451,3.55424 -1.08937,0.77625 -2.20771,1.27741 -3.36632,1.03566 -1.45128,-0.26634 -2.89204,-0.89972 -4.27954,-2.06058 -1.60109,-1.45322 -3.11754,-3.30885 -4.544588,-5.60615 -1.443549,-2.51127 -2.819667,-5.22387 -4.142267,-8.08943 -1.254815,-2.72114 -2.483016,-5.52148 -3.547352,-8.67438 -1.042957,-2.91736 -2.041322,-5.93685 -2.877189,-9.205764 -0.753333,-2.823392 -1.511946,-5.630906 -2.144265,-8.615109 -0.713966,-2.758718 -1.361887,-5.593145 -1.930381,-8.528977 -0.630841,-2.781991 -1.181006,-5.649884 -1.805859,-8.436516 -0.529507,-2.257272 -1.110754,-4.460132 -1.832371,-6.41643 -0.616423,-1.357884 -1.271075,-2.638888 -2.046232,-3.444268 -0.598057,-0.518504 -1.217473,-0.806751 -1.848689,-0.689766 -0.579134,0.265825 -1.097919,0.860532 -1.634541,1.401697 -1.493815,1.556771 -3.161139,4.940127 2.790895,-4.891205 0.199328,-0.329234 -0.396013,0.667211 -0.591299,1.009444 -0.07332,0.128491 -0.151607,0.24067 -0.227412,0.361021 0,0 -4.212546,4.868311 -4.212546,4.868311 z"
       id="path3269"
       style="opacity:0.99;fill:url(#radialGradient3273);fill-opacity:1;stroke:url(#linearGradient3275);stroke-width:1.25631;stroke-miterlimit:4;stroke-dasharray:0, 13.8194;stroke-dashoffset:0;stroke-opacity:1;filter:url(#filter3477)"
       transform="matrix(1.2768646,-0.18954947,-0.04895744,1.1426328,-18.643917,-7.7910551)" />
  </g>
  <g
     inkscape:groupmode="layer"
     id="layer5"
     inkscape:label="Q solid"
     style="display:inline"
     transform="translate(-3.4833724,12.757364)">
    <path
       style="opacity:1;fill:url(#linearGradient3551);fill-opacity:1;stroke:url(#linearGradient4818);stroke-width:1;stroke-miterlimit:4;stroke-dasharray:none;stroke-dashoffset:0;stroke-opacity:1"
       id="path4810"
       d="m 73.408434,53.302933 c 1.954065,-4.376018 3.823723,-9.466496 6.193708,-12.059344 0.588587,-1.004588 1.222042,-1.80073 1.912555,-1.87362 0.753342,-0.13418 1.472902,0.19258 2.162157,0.870517 0.87948,0.976079 1.617592,2.509656 2.323291,4.142732 0.806687,2.347151 1.469902,5.004682 2.063396,7.763185 0.67552,3.260243 1.26607,6.640249 1.94676,9.894479 0.6152,3.412666 1.32428,6.666927 2.09347,9.835821 0.70704,3.444136 1.49505,6.74261 2.3043,10.014971 0.89018,3.738997 1.96587,7.11788 3.08516,10.374881 1.14934,3.527945 2.465574,6.617875 3.815689,9.596355 1.42486,3.15399 2.91724,6.07847 4.49502,8.69632 1.54514,2.39722 3.15253,4.14113 4.89263,5.40446 1.5058,0.97678 3.05659,1.24045 4.62305,1.06982 1.24015,-0.13474 2.44571,-1.14719 3.5857,-2.53565 1.08414,-1.55745 2.11429,-3.38592 3.13764,-5.22053 0.21169,-0.40452 0.42347,-0.80891 0.63523,-1.21336 0,0 -3.58874,9.81811 -3.58874,9.81811 v 0 c -0.22787,0.42816 -0.45569,0.85629 -0.68355,1.28444 -1.04033,1.8245 -2.08296,3.69975 -3.21769,5.06229 -1.19379,1.21711 -2.4189,2.10608 -3.68712,2.09944 -1.5886,0.0362 -3.16525,-0.37771 -4.68283,-1.44784 -1.75105,-1.37342 -3.4089,-3.25841 -4.96829,-5.70405 -1.57714,-2.70235 -3.080159,-5.66692 -4.524409,-8.83123 -1.37023,-3.00511 -2.71121,-6.11341 -3.8723,-9.6922 -1.13801,-3.29699 -2.22705,-6.72958 -3.13785,-10.506591 -0.82102,-3.254454 -1.64785,-6.488239 -2.33616,-9.96881 -0.778014,-3.185401 -1.483609,-6.479512 -2.102108,-9.91699 -0.686968,-3.234439 -1.28549,-6.593651 -1.965892,-9.835236 -0.576722,-2.619994 -1.210165,-5.160795 -1.99763,-7.366134 -0.673087,-1.502017 -1.388135,-2.900812 -2.235764,-3.689853 -0.654106,-0.483367 -1.331907,-0.680737 -2.023173,-0.381192 -0.63444,0.468034 -1.203245,1.321975 -1.79151,2.115087 -1.637639,2.269134 -3.4677,6.808041 3.062261,-6.656352 0.21868,-0.450898 -0.434482,0.911802 -0.648757,1.377542 -0.08043,0.174861 -0.166314,0.331073 -0.249472,0.496632 0,0 -4.618772,6.981909 -4.618772,6.981909 z"
       inkscape:connector-curvature="0" />
  </g>
  <g
     inkscape:groupmode="layer"
     id="layer3"
     inkscape:label="Q4 halo"
     transform="translate(-3.4833724,12.757364)"
     style="display:inline">
    <path
       style="fill:url(#linearGradient873);fill-opacity:1;stroke:url(#linearGradient6822);stroke-width:5.814;stroke-linecap:butt;stroke-linejoin:bevel;stroke-miterlimit:4;stroke-dasharray:none;stroke-opacity:1;paint-order:normal;filter:url(#filter2177)"
       d="M 80.0378,20.494273 29.104167,98.425 115.86618,86.901974 v 0 0 0"
       id="path4793"
       inkscape:connector-curvature="0"
       sodipodi:nodetypes="cccccc"
       transform="matrix(1.1316034,0,0,1.1316034,-11.848909,-17.564497)" />
  </g>
  <g
     inkscape:label="Q4"
     id="g1475"
     inkscape:groupmode="layer"
     style="display:inline"
     transform="translate(-3.4833724,12.757364)">
    <path
       sodipodi:nodetypes="cccccc"
       inkscape:connector-curvature="0"
       id="path1467"
       d="M 77.972113,3.9925478 20.335439,92.179226 118.51563,79.13973 v 0 0 0"
       style="fill:#ffffff;fill-opacity:0;stroke:url(#linearGradient3597);stroke-width:6.57914;stroke-linecap:butt;stroke-linejoin:bevel;stroke-miterlimit:4;stroke-dasharray:none;stroke-opacity:1;paint-order:normal" />
  </g>
  <g
     style="display:inline;opacity:1"
     id="g2801"
     inkscape:groupmode="layer"
     inkscape:label="Circle halo"
     transform="translate(-3.4833724,-148.77594)">
    <path
       sodipodi:open="true"
       d="m 95.716325,272.52771 a 50,50 0 0 1 -68.115352,-14.11898 50,50 0 0 1 11.918981,-68.53455 50,50 0 0 1 68.882716,9.70663 50,50 0 0 1 -7.48422,69.15948"
       sodipodi:end="0.8770974"
       sodipodi:start="1.0058823"
       sodipodi:ry="50"
       sodipodi:rx="50"
       sodipodi:cy="230.29597"
       sodipodi:cx="68.949165"
       sodipodi:type="arc"
       id="path2799"
       style="opacity:1;fill:#5f2ad8;fill-opacity:0.00952382;stroke:url(#linearGradient3543);stroke-width:3.7;stroke-miterlimit:4;stroke-dasharray:none;stroke-opacity:1;filter:url(#filter3261)"
       transform="matrix(1.1316034,0,0,1.1316034,-11.848909,-38.822832)"
       sodipodi:arc-type="arc" />
  </g>
  <g
     transform="translate(-3.4833724,-148.77594)"
     style="display:inline;opacity:1"
     id="g4280"
     inkscape:groupmode="layer"
     inkscape:label="Circle solid">
    <path
       sodipodi:open="true"
       d="m 96.452173,269.57794 a 56.58017,56.58017 0 0 1 -77.153007,-16.11038 56.58017,56.58017 0 0 1 13.807674,-77.59818 56.58017,56.58017 0 0 1 77.97466,11.49274 56.58017,56.58017 0 0 1 -9.16764,78.28209"
       sodipodi:end="0.8870985"
       sodipodi:start="1.00613"
       sodipodi:ry="56.58017"
       sodipodi:rx="56.58017"
       sodipodi:cy="221.78087"
       sodipodi:cx="66.174202"
       sodipodi:type="arc"
       id="path4274"
       style="opacity:1;fill:#00c4d8;fill-opacity:0;stroke:url(#linearGradient4292);stroke-width:6.5;stroke-miterlimit:4;stroke-dasharray:none;stroke-opacity:1"
       sodipodi:arc-type="arc" />
    <text
       id="text4278"
       y="262.01901"
       x="187.8327"
       style="font-style:normal;font-weight:normal;font-size:10.5833px;line-height:1.25;font-family:sans-serif;letter-spacing:0px;word-spacing:0px;fill:#000000;fill-opacity:1;stroke:none;stroke-width:0.264583"
       xml:space="preserve" />
  </g>
  <g
     inkscape:label="halo uantum "
     id="g3903"
     inkscape:groupmode="layer"
     transform="translate(-3.4833724,18.224064)"
     style="display:inline;opacity:1">
    <g
       aria-label="uantum"
       transform="matrix(0.82667394,0,0,0.93213224,28.163272,-19.691743)"
       id="text3877"
       style="font-style:normal;font-weight:normal;font-size:110.602px;line-height:1.25;font-family:sans-serif;letter-spacing:0px;word-spacing:0px;opacity:1;fill:url(#linearGradient3905);fill-opacity:1;stroke:url(#linearGradient3907);stroke-width:2.3;stroke-miterlimit:4;stroke-dasharray:none;stroke-opacity:1;filter:url(#filter3993)"
       inkscape:label="text_uantum_as_path">
      <path
         d="m 153.74345,92.425713 c -8.40575,5.751304 -12.27682,8.073947 -13.71465,8.073947 -1.21662,0 -2.10144,-1.548429 -2.10144,-3.649867 0,-2.543846 0.88482,-6.967926 2.76505,-14.046453 1.10602,-4.202876 2.21204,-8.405752 2.32264,-9.069364 0.99542,-4.202876 1.76964,-6.967926 1.99084,-7.74214 0.33181,-1.216622 0.55301,-2.322642 0.55301,-2.986254 0,-0.884816 -0.55301,-1.437826 -1.32722,-1.437826 -1.10602,0 -9.06937,4.313478 -17.14331,9.290568 l -0.77422,2.986254 c 4.75589,-2.433244 6.74672,-3.207458 8.07395,-3.207458 0.88481,0 1.54843,0.774214 1.54843,2.101438 0,1.548428 -0.99542,5.861906 -3.09686,13.714647 -2.76505,10.396588 -3.42866,13.382842 -3.42866,16.590305 0,3.09685 1.32722,5.41949 3.09685,5.41949 1.65903,0 3.53927,-0.99542 9.17997,-4.64528 8.62696,-5.530101 8.62696,-5.530101 11.39201,-7.410335 -0.99542,3.760465 -1.54843,7.520935 -1.54843,9.511775 0,1.54842 0.77421,2.54384 1.99083,2.54384 2.21204,0 12.60863,-6.08311 20.24017,-11.834411 l 0.77421,-3.31806 c -7.85274,4.645284 -11.5026,6.63612 -12.71923,6.63612 -0.77421,0 -1.21662,-0.774214 -1.21662,-2.654448 0,-5.640702 3.98167,-22.009797 8.84816,-36.166853 -1.43782,0.774214 -2.43324,1.327224 -2.87565,1.548428 -1.32722,0.663612 -2.65445,1.327224 -4.09227,1.880234 -0.33181,0.221204 -0.99542,0.55301 -2.21204,1.216622 -0.77422,2.76505 -2.54385,10.175384 -5.4195,22.231001 z"
         style="font-style:normal;font-variant:normal;font-weight:normal;font-stretch:normal;font-family:Z003;-inkscape-font-specification:Z003;fill:url(#linearGradient3905);fill-opacity:1;stroke:url(#linearGradient3907);stroke-width:2.3;stroke-miterlimit:4;stroke-dasharray:none;stroke-opacity:1"
         id="path1049" />
      <path
         d="m 222.53779,92.536315 c -8.07395,5.5301 -9.95418,6.63612 -11.0602,6.63612 -0.77422,0 -1.32723,-0.884816 -1.32723,-2.21204 0,-2.986254 2.54385,-14.599463 6.63612,-29.751937 1.21663,-1.769632 1.43783,-1.990836 3.20746,-3.981672 -5.30889,-1.216622 -9.06936,-1.65903 -13.93585,-1.65903 -4.53468,0 -6.74672,0.442408 -9.51177,2.21204 -3.98167,2.322642 -8.62696,5.751304 -10.06478,7.299732 -4.20288,4.645284 -8.73756,19.576553 -8.73756,28.535315 0,5.308897 1.76963,8.848157 4.53468,8.848157 2.43324,0 6.08311,-2.21204 19.90836,-12.166217 -1.21662,5.640707 -1.65903,8.405757 -1.65903,9.843577 0,1.54843 0.66361,2.32264 1.76963,2.32264 1.43783,0 2.32264,-0.44241 10.17539,-5.6407 3.76046,-2.54384 5.8619,-3.981671 9.95418,-6.967925 z m -19.46595,-0.774214 c -3.87107,2.875652 -5.86191,4.313478 -5.97251,4.42408 -3.64987,2.322642 -6.52552,3.760468 -7.96335,3.760468 -1.88023,0 -2.87565,-1.990836 -2.87565,-5.5301 0,-5.640702 1.65903,-12.940433 4.53468,-19.355349 2.65445,-6.08311 5.0877,-8.405752 8.84816,-8.405752 1.99084,0 5.75131,0.55301 9.40117,1.437826 -2.21204,7.963344 -2.98625,10.949598 -3.09685,11.502608 -0.66361,2.76505 -1.21662,5.5301 -1.88024,8.405751 -0.1106,0.55301 -0.4424,1.880234 -0.99541,3.760468 z"
         style="font-style:normal;font-variant:normal;font-weight:normal;font-stretch:normal;font-family:Z003;-inkscape-font-specification:Z003;fill:url(#linearGradient3905);fill-opacity:1;stroke:url(#linearGradient3907);stroke-width:2.3;stroke-miterlimit:4;stroke-dasharray:none;stroke-opacity:1"
         id="path1051" />
      <path
         d="m 232.71297,104.92374 6.52552,-25.99147 2.76505,-1.769632 c 10.28598,-6.414916 11.5026,-7.078528 13.05103,-7.078528 0.66361,0 1.10602,0.55301 1.10602,1.437826 0,1.769632 -0.77421,4.97709 -4.09227,18.470533 -2.43325,9.732976 -2.87565,11.723811 -2.87565,13.825251 0,1.54843 0.4424,2.87565 1.65903,4.97709 4.97709,-2.21204 12.71923,-7.07853 20.46137,-12.829833 l 0.77421,-3.096856 c -10.72839,6.193712 -11.50261,6.525518 -12.60863,6.525518 -1.10602,0 -1.76963,-1.10602 -1.76963,-2.986254 0,-2.986254 0.44241,-4.866488 5.3089,-22.452205 2.76505,-9.843578 2.76505,-9.843578 2.76505,-10.50719 0,-1.216622 -0.77422,-1.880234 -2.10144,-1.880234 -2.43325,0 -2.76505,0.221204 -14.71007,7.520936 -4.42408,2.76505 -7.29973,4.534682 -8.62695,5.419498 1.10602,-3.87107 2.65444,-10.617792 2.65444,-11.502608 0,-0.884816 -0.55301,-1.437826 -1.43782,-1.437826 -1.21662,0 -8.73756,3.87107 -17.36451,8.958762 L 223.533,73.40217 c 7.07853,-3.207458 7.52094,-3.31806 8.51636,-3.31806 0.77421,0 1.32722,0.663612 1.32722,1.548428 0,2.433244 -1.99083,11.281404 -4.86649,21.567389 l -2.54384,8.958763 c -0.22121,0.77421 -0.77422,2.87565 -1.54843,5.97251 z"
         style="font-style:normal;font-variant:normal;font-weight:normal;font-stretch:normal;font-family:Z003;-inkscape-font-specification:Z003;fill:url(#linearGradient3905);fill-opacity:1;stroke:url(#linearGradient3907);stroke-width:2.3;stroke-miterlimit:4;stroke-dasharray:none;stroke-opacity:1"
         id="path1053" />
      <path
         d="m 305.59958,93.089325 c -8.40575,5.087692 -11.94501,6.857324 -13.49344,6.857324 -1.43783,0 -3.20746,-2.76505 -3.20746,-5.198294 0,-1.548428 0.1106,-1.880234 2.54385,-12.387423 0.55301,-1.990836 0.99541,-4.092274 1.43782,-6.193712 0.1106,-0.331806 0.55301,-2.101438 0.77422,-3.096856 3.76046,-0.110602 7.18913,-0.331806 10.94959,-0.55301 l 4.20288,-3.207458 h -14.15706 c 0.55301,-2.543846 0.77422,-3.31806 1.10602,-4.97709 0.33181,-1.10602 1.10602,-4.092274 2.65445,-10.064782 l 0.66361,-2.875652 -1.88023,0.995418 c -0.66361,0.221204 -1.54843,0.663612 -2.76505,1.216622 -0.77421,0.442408 -1.65903,0.774214 -2.54385,1.216622 -0.4424,0.221204 -0.88481,0.442408 -1.54842,0.663612 l -0.99542,4.534682 -1.21662,5.308896 -0.88482,3.981672 c -0.99542,0.110602 -1.65903,0.110602 -1.99084,0.110602 h -2.65444 c -0.22121,0 -0.77422,0 -1.65903,0.110602 -0.55301,0.331806 -0.99542,0.663612 -1.10602,0.663612 -0.33181,0.221204 -0.99542,0.774214 -2.10144,1.65903 -0.2212,0.110602 -0.77421,0.663612 -1.65903,1.216622 h 2.65445 5.08769 2.43324 l -1.10602,4.866488 c -4.75588,19.576553 -4.75588,19.576553 -4.75588,23.115818 0,3.53926 2.32264,7.41033 4.42408,7.41033 2.43324,0 9.95418,-4.53468 20.57197,-12.608625 z"
         style="font-style:normal;font-variant:normal;font-weight:normal;font-stretch:normal;font-family:Z003;-inkscape-font-specification:Z003;fill:url(#linearGradient3905);fill-opacity:1;stroke:url(#linearGradient3907);stroke-width:2.3;stroke-miterlimit:4;stroke-dasharray:none;stroke-opacity:1"
         id="path1055" />
      <path
         d="m 338.44816,92.425713 c -8.40575,5.751304 -12.27682,8.073947 -13.71465,8.073947 -1.21662,0 -2.10144,-1.548429 -2.10144,-3.649867 0,-2.543846 0.88482,-6.967926 2.76505,-14.046453 1.10602,-4.202876 2.21204,-8.405752 2.32265,-9.069364 0.99541,-4.202876 1.76963,-6.967926 1.99083,-7.74214 0.33181,-1.216622 0.55301,-2.322642 0.55301,-2.986254 0,-0.884816 -0.55301,-1.437826 -1.32722,-1.437826 -1.10602,0 -9.06937,4.313478 -17.14331,9.290568 l -0.77422,2.986254 c 4.75589,-2.433244 6.74673,-3.207458 8.07395,-3.207458 0.88482,0 1.54843,0.774214 1.54843,2.101438 0,1.548428 -0.99542,5.861906 -3.09686,13.714647 -2.76505,10.396588 -3.42866,13.382842 -3.42866,16.590305 0,3.09685 1.32722,5.41949 3.09686,5.41949 1.65903,0 3.53926,-0.99542 9.17996,-4.64528 8.62696,-5.530101 8.62696,-5.530101 11.39201,-7.410335 -0.99542,3.760465 -1.54843,7.520935 -1.54843,9.511775 0,1.54842 0.77421,2.54384 1.99084,2.54384 2.21204,0 12.60862,-6.08311 20.24016,-11.834411 l 0.77422,-3.31806 c -7.85275,4.645284 -11.50261,6.63612 -12.71923,6.63612 -0.77422,0 -1.21663,-0.774214 -1.21663,-2.654448 0,-5.640702 3.98168,-22.009797 8.84816,-36.166853 -1.43782,0.774214 -2.43324,1.327224 -2.87565,1.548428 -1.32722,0.663612 -2.65445,1.327224 -4.09227,1.880234 -0.33181,0.221204 -0.99542,0.55301 -2.21204,1.216622 -0.77422,2.76505 -2.54385,10.175384 -5.4195,22.231001 z"
         style="font-style:normal;font-variant:normal;font-weight:normal;font-stretch:normal;font-family:Z003;-inkscape-font-specification:Z003;fill:url(#linearGradient3905);fill-opacity:1;stroke:url(#linearGradient3907);stroke-width:2.3;stroke-miterlimit:4;stroke-dasharray:none;stroke-opacity:1"
         id="path1057" />
      <path
         d="m 363.0017,108.1312 7.85274,-2.98626 7.07853,-26.876282 c 7.18913,-4.97709 11.94502,-7.631538 13.38284,-7.631538 0.88482,0 1.43783,0.884816 1.43783,2.433244 0,3.31806 -4.20288,20.018961 -8.84816,35.060836 l 8.40575,-2.98626 6.85732,-27.650496 c 6.30432,-4.092274 12.27683,-7.410334 13.60405,-7.410334 0.99542,0 1.43783,0.774214 1.43783,2.101438 0,2.433244 -0.99542,7.410334 -3.98168,18.802339 -1.65903,6.857324 -2.21204,9.622373 -2.21204,12.166223 0,2.32264 0.55301,3.53926 2.65445,4.97709 6.41492,-3.20746 12.60863,-7.18913 18.69174,-12.055621 l 0.1106,-2.543846 c -9.40117,5.751304 -9.40117,5.751304 -10.9496,5.751304 -1.21662,0 -1.99083,-1.10602 -1.99083,-2.875652 0,-2.543846 1.32722,-8.405752 3.64986,-16.590299 3.53927,-12.276822 4.20288,-14.820668 4.20288,-16.5903 0,-1.10602 -0.55301,-1.65903 -1.76963,-1.65903 -1.99084,0 -8.84816,3.539264 -22.34161,11.502608 0.44241,-1.990836 0.44241,-1.990836 1.43783,-6.304314 0.44241,-1.65903 0.77421,-3.539264 0.77421,-3.981672 0,-0.774214 -0.55301,-1.216622 -1.43782,-1.216622 -1.88024,0 -6.08311,2.322642 -22.0098,12.387424 1.76963,-7.520936 2.32264,-10.064782 2.32264,-10.838996 0,-0.995418 -0.66361,-1.548428 -1.65903,-1.548428 -1.10602,0 -2.32264,0.663612 -7.85274,3.760468 -7.29973,4.202876 -7.29973,4.202876 -9.29057,5.5301 l -0.77421,3.096856 c 5.8619,-2.986254 6.85732,-3.31806 8.18455,-3.31806 0.88481,0 1.54842,0.884816 1.54842,2.101438 0,1.65903 -0.3318,3.096856 -4.75588,20.682573 -0.99542,3.539264 -1.88024,7.189129 -2.76505,10.838999 z"
         style="font-style:normal;font-variant:normal;font-weight:normal;font-stretch:normal;font-family:Z003;-inkscape-font-specification:Z003;fill:url(#linearGradient3905);fill-opacity:1;stroke:url(#linearGradient3907);stroke-width:2.3;stroke-miterlimit:4;stroke-dasharray:none;stroke-opacity:1"
         id="path1059" />
    </g>
    <flowRoot
       style="font-style:normal;font-weight:normal;font-size:40px;line-height:1.25;font-family:sans-serif;letter-spacing:0px;word-spacing:0px;fill:#000000;fill-opacity:1;stroke:none"
       id="flowRoot3885"
       xml:space="preserve"><flowRegion
         id="flowRegion3881"><rect
           y="334.84827"
           x="462.13605"
           height="65.932487"
           width="64.240509"
           id="rect3879" /></flowRegion><flowPara
         id="flowPara3883" /></flowRoot>
    <flowRoot
       style="font-style:normal;font-weight:normal;font-size:40px;line-height:1.25;font-family:sans-serif;letter-spacing:0px;word-spacing:0px;fill:#000000;fill-opacity:1;stroke:none"
       id="flowRoot3893"
       xml:space="preserve"><flowRegion
         id="flowRegion3889"><rect
           y="334.84827"
           x="501.98843"
           height="77.228989"
           width="28.452785"
           id="rect3887" /></flowRegion><flowPara
         id="flowPara3891" /></flowRoot>
    <flowRoot
       style="font-style:normal;font-weight:normal;font-size:40px;line-height:1.25;font-family:sans-serif;letter-spacing:0px;word-spacing:0px;fill:#000000;fill-opacity:1;stroke:none"
       id="flowRoot3901"
       xml:space="preserve"><flowRegion
         id="flowRegion3897"><rect
           y="546.15533"
           x="218.78784"
           height="71.188454"
           width="12.899134"
           id="rect3895" /></flowRegion><flowPara
         id="flowPara3899" /></flowRoot>
    <g
       aria-label="4"
       transform="matrix(1.0654645,0,0,0.93855778,0,-20)"
       id="text3807-1-9"
       style="font-style:normal;font-weight:normal;font-size:108.708px;line-height:1.25;font-family:sans-serif;letter-spacing:0px;word-spacing:0px;display:inline;opacity:0.685853;fill:#1417cd;fill-opacity:0.675245;stroke:#150ecf;stroke-width:2.26062;stroke-miterlimit:4;stroke-dasharray:none;stroke-opacity:0.835185;filter:url(#filter4264)"
       inkscape:label="text_4_as_path">
      <path
         d="m 372.14999,71.230942 c 0.97837,0.760956 1.19579,0.978372 2.28287,1.195788 3.04382,-1.304496 6.63119,-2.608992 9.02276,-3.26124 l 0.21742,-0.869664 c -0.97837,-1.521912 -1.19579,-2.391576 -1.19579,-3.913488 0,-2.282868 0.43483,-5.217984 1.84804,-11.196924 h 1.95674 2.60899 1.73933 l 4.0222,-5.652816 c -1.84804,0.108708 -3.26124,0.108708 -4.0222,0.108708 -1.19579,0 -2.39157,0 -5.00057,-0.108708 l 1.63062,-6.848604 5.3267,-24.4593 c 1.19578,-4.783152 1.52191,-6.087648 2.60899,-10.109844 -0.76096,0.326124 -1.41321,0.54354 -1.73933,0.652248 l -1.73933,0.978372 c -0.86966,0.326124 -1.63062,0.760956 -2.50028,1.195788 l -1.63062,0.8696641 c -0.43483,0.6522479 -2.39158,2.8264079 -2.60899,3.0438239 -3.47866,3.913488 -6.95732,7.826976 -10.32726,11.631756 -4.34832,5.109276 -6.19636,7.392144 -17.6107,21.632892 -1.4132,1.739328 -2.17416,3.152532 -3.80478,6.739896 l 4.23961,0.108708 7.50085,0.108708 7.93569,0.108708 h 3.80478 z m 3.04383,-23.698344 -5.3267,-0.108708 c -2.06545,-0.108708 -3.36994,-0.108708 -9.02276,-0.326124 4.0222,-5.652816 5.87023,-7.935684 24.56801,-30.43824 l -0.86967,3.478656 -0.97837,4.130904 c -1.30449,5.544108 -2.39157,9.892428 -3.04382,13.153668 -0.97837,3.913488 -1.3045,5.544108 -2.39158,10.109844 z"
         style="font-style:normal;font-variant:normal;font-weight:normal;font-stretch:normal;font-family:Z003;-inkscape-font-specification:Z003;fill:#1417cd;fill-opacity:0.675245;stroke:#150ecf;stroke-width:2.26062;stroke-miterlimit:4;stroke-dasharray:none;stroke-opacity:0.835185"
         id="path1042" />
    </g>
    <g
       id="g1066"
       inkscape:label="text_group"
       style="display:none;opacity:0">
      <text
         xml:space="preserve"
         style="font-style:normal;font-weight:normal;font-size:108.708px;line-height:1.25;font-family:sans-serif;letter-spacing:0px;word-spacing:0px;display:inline;opacity:0.685853;fill:#1417cd;fill-opacity:0.675245;stroke:#150ecf;stroke-width:2.26062;stroke-miterlimit:4;stroke-dasharray:none;stroke-opacity:0.835185;filter:url(#filter4264)"
         x="345.73395"
         y="69.70903"
         id="text1020"
         transform="matrix(1.0654645,0,0,0.93855778,0,-20)"
         inkscape:label="text_4_as_text"><tspan
           sodipodi:role="line"
           id="tspan1018"
           x="345.73395"
           y="69.70903"
           style="font-style:normal;font-variant:normal;font-weight:normal;font-stretch:normal;font-family:Z003;-inkscape-font-specification:Z003;fill:#1417cd;fill-opacity:0.675245;stroke:#150ecf;stroke-width:2.26062;stroke-miterlimit:4;stroke-dasharray:none;stroke-opacity:0.835185">4</tspan></text>
      <text
         transform="matrix(0.82667394,0,0,0.93213224,28.163272,-19.691743)"
         id="text1047"
         y="107.02518"
         x="117.24479"
         style="font-style:normal;font-weight:normal;font-size:110.602px;line-height:1.25;font-family:sans-serif;letter-spacing:0px;word-spacing:0px;display:inline;opacity:1;fill:url(#linearGradient3905);fill-opacity:1;stroke:url(#linearGradient3907);stroke-width:2.3;stroke-miterlimit:4;stroke-dasharray:none;stroke-opacity:1;filter:url(#filter3993)"
         xml:space="preserve"
         inkscape:label="text_uantum_as_text"><tspan
           style="font-style:normal;font-variant:normal;font-weight:normal;font-stretch:normal;font-family:Z003;-inkscape-font-specification:Z003;fill:url(#linearGradient3905);fill-opacity:1;stroke:url(#linearGradient3907);stroke-width:2.3;stroke-miterlimit:4;stroke-dasharray:none;stroke-opacity:1"
           y="107.02518"
           x="117.24479"
           id="tspan1045"
           sodipodi:role="line">uantum</tspan></text>
    </g>
  </g>
  <g
     id="layer4"
     inkscape:label="uantum"
     transform="translate(-3.4833724,18.224064)"
     style="display:inline;opacity:1">
    <g
       aria-label="uantum"
       transform="scale(0.94264851,1.0608408)"
       id="text3807"
       style="font-style:normal;font-weight:normal;font-size:97.1821px;line-height:1.25;font-family:sans-serif;letter-spacing:0px;word-spacing:0px;opacity:1;fill:url(#linearGradient3867);fill-opacity:1;stroke:url(#linearGradient3855);stroke-width:2.1;stroke-miterlimit:4;stroke-dasharray:none;stroke-opacity:1"
       inkscape:label="text_uantum_as_path">
      <path
         d="m 164.76693,62.649708 c -7.38584,5.053469 -10.78721,7.094293 -12.05058,7.094293 -1.069,0 -1.84646,-1.360549 -1.84646,-3.207009 0,-2.235188 0.77746,-6.122472 2.42955,-12.342126 0.97182,-3.69292 1.94365,-7.38584 2.04083,-7.968933 0.87464,-3.692919 1.55491,-6.122472 1.74928,-6.802746 0.29154,-1.069004 0.48591,-2.040825 0.48591,-2.623917 0,-0.777457 -0.48591,-1.263367 -1.16619,-1.263367 -0.97182,0 -7.96893,3.790101 -15.06322,8.163296 l -0.68028,2.623917 c 4.17883,-2.138007 5.92811,-2.818281 7.09429,-2.818281 0.77746,0 1.36055,0.680274 1.36055,1.84646 0,1.360549 -0.87464,5.150651 -2.7211,12.05058 -2.42955,9.135117 -3.01264,11.759034 -3.01264,14.577315 0,2.721098 1.16618,4.761922 2.7211,4.761922 1.45773,0 3.10983,-0.874639 8.06611,-4.081648 7.58021,-4.859105 7.58021,-4.859105 10.00976,-6.5112 -0.87464,3.304191 -1.36055,6.608382 -1.36055,8.35766 0,1.360549 0.68027,2.235188 1.74928,2.235188 1.94364,0 11.07876,-5.345015 17.78432,-10.398484 l 0.68028,-2.915463 c -6.89993,4.081648 -10.10694,5.830926 -11.17595,5.830926 -0.68027,0 -1.069,-0.680275 -1.069,-2.332371 0,-4.956287 3.49856,-19.339237 7.77457,-31.778546 -1.26337,0.680275 -2.13801,1.166185 -2.52674,1.36055 -1.16618,0.583092 -2.33237,1.166185 -3.59573,1.652095 -0.29155,0.194364 -0.87464,0.485911 -1.94365,1.069003 -0.68027,2.429553 -2.23518,8.940753 -4.76192,19.533602 z"
         style="font-style:normal;font-variant:normal;font-weight:normal;font-stretch:normal;font-family:Z003;-inkscape-font-specification:Z003;fill:url(#linearGradient3867);fill-opacity:1;stroke:url(#linearGradient3855);stroke-width:2.1;stroke-miterlimit:4;stroke-dasharray:none;stroke-opacity:1"
         id="path1005" />
      <path
         d="m 225.21411,62.74689 c -7.09429,4.859105 -8.74639,5.830926 -9.71821,5.830926 -0.68028,0 -1.16619,-0.777457 -1.16619,-1.943642 0,-2.623917 2.23519,-12.828037 5.83093,-26.141984 1.069,-1.554914 1.26337,-1.749278 2.81828,-3.498556 -4.66474,-1.069003 -7.96893,-1.457731 -12.24494,-1.457731 -3.98447,0 -5.92811,0.388728 -8.35766,1.943642 -3.49856,2.040824 -7.58021,5.053469 -8.84358,6.414018 -3.69291,4.081648 -7.67738,17.201231 -7.67738,25.072981 0,4.664741 1.55491,7.774568 3.98447,7.774568 2.138,0 5.34501,-1.943642 17.49277,-10.69003 -1.069,4.956287 -1.45773,7.385839 -1.45773,8.649206 0,1.36055 0.58309,2.040824 1.55491,2.040824 1.26337,0 2.04083,-0.388728 8.94076,-4.956287 3.30419,-2.235188 5.15065,-3.498555 8.74639,-6.122472 z m -17.10405,-0.680275 c -3.40137,2.526735 -5.15065,3.790102 -5.24783,3.887284 -3.20701,2.040824 -5.73375,3.304192 -6.99711,3.304192 -1.6521,0 -2.52674,-1.749278 -2.52674,-4.859105 0,-4.956287 1.45773,-11.370306 3.98447,-17.006867 2.33237,-5.345016 4.47037,-7.38584 7.77456,-7.38584 1.74928,0 5.05347,0.485911 8.26048,1.263367 -1.94364,6.997112 -2.62391,9.621028 -2.7211,10.106939 -0.58309,2.429552 -1.069,4.859105 -1.65209,7.385839 -0.0972,0.485911 -0.38873,1.652096 -0.87464,3.304191 z"
         style="font-style:normal;font-variant:normal;font-weight:normal;font-stretch:normal;font-family:Z003;-inkscape-font-specification:Z003;fill:url(#linearGradient3867);fill-opacity:1;stroke:url(#linearGradient3855);stroke-width:2.1;stroke-miterlimit:4;stroke-dasharray:none;stroke-opacity:1"
         id="path1007" />
      <path
         d="m 234.15468,73.631285 5.73375,-22.837793 2.42955,-1.554914 c 9.03794,-5.636561 10.10694,-6.219654 11.46749,-6.219654 0.58309,0 0.97182,0.485911 0.97182,1.263367 0,1.554914 -0.68028,4.373195 -3.59574,16.229411 -2.13801,8.552025 -2.52673,10.301302 -2.52673,12.147762 0,1.36055 0.38872,2.526735 1.45773,4.373195 4.37319,-1.943642 11.17594,-6.219655 17.97869,-11.273124 l 0.68027,-2.721099 c -9.42666,5.442198 -10.10694,5.733744 -11.07876,5.733744 -0.97182,0 -1.55491,-0.971821 -1.55491,-2.623916 0,-2.623917 0.38873,-4.276013 4.66474,-19.727966 2.42955,-8.649207 2.42955,-8.649207 2.42955,-9.2323 0,-1.069003 -0.68027,-1.652095 -1.84646,-1.652095 -2.138,0 -2.42955,0.194364 -12.92522,6.608382 -3.88728,2.429553 -6.41402,3.984466 -7.5802,4.761923 0.97182,-3.401373 2.33237,-9.329481 2.33237,-10.106938 0,-0.777457 -0.48591,-1.263367 -1.26337,-1.263367 -1.069,0 -7.67738,3.401373 -15.25759,7.87175 l -0.58309,2.526734 c 6.21965,-2.818281 6.60838,-2.915463 7.48302,-2.915463 0.68028,0 1.16619,0.583093 1.16619,1.36055 0,2.138006 -1.74928,9.912574 -4.27602,18.950509 l -2.23518,7.87175 c -0.19437,0.680274 -0.68028,2.526734 -1.36055,5.247833 z"
         style="font-style:normal;font-variant:normal;font-weight:normal;font-stretch:normal;font-family:Z003;-inkscape-font-specification:Z003;fill:url(#linearGradient3867);fill-opacity:1;stroke:url(#linearGradient3855);stroke-width:2.1;stroke-miterlimit:4;stroke-dasharray:none;stroke-opacity:1"
         id="path1009" />
      <path
         d="m 298.1976,63.232801 c -7.38584,4.470376 -10.49566,6.02529 -11.85621,6.02529 -1.26337,0 -2.81828,-2.429553 -2.81828,-4.567559 0,-1.360549 0.0972,-1.652096 2.23518,-10.884395 0.48592,-1.749278 0.87464,-3.595738 1.26337,-5.442197 0.0972,-0.291547 0.48591,-1.84646 0.68028,-2.721099 3.30419,-0.09718 6.31683,-0.291546 9.62102,-0.485911 l 3.69292,-2.81828 h -12.4393 c 0.48591,-2.235189 0.68027,-2.915463 0.97182,-4.373195 0.29154,-0.971821 0.97182,-3.595738 2.33237,-8.843571 l 0.58309,-2.526734 -1.6521,0.874638 c -0.58309,0.194365 -1.36055,0.583093 -2.42955,1.069004 -0.68027,0.388728 -1.45773,0.680274 -2.23519,1.069003 -0.38873,0.194364 -0.77745,0.388728 -1.36055,0.583092 l -0.87464,3.984466 -1.069,4.664741 -0.77745,3.498556 c -0.87464,0.09718 -1.45774,0.09718 -1.74928,0.09718 h -2.33237 c -0.19437,0 -0.68028,0 -1.45773,0.09718 -0.48592,0.291546 -0.87464,0.583092 -0.97183,0.583092 -0.29154,0.194364 -0.87463,0.680275 -1.84646,1.457732 -0.19436,0.09718 -0.68027,0.583092 -1.45773,1.069003 h 2.33237 4.47038 2.13801 l -0.97182,4.276012 c -4.17884,17.201232 -4.17884,17.201232 -4.17884,20.311059 0,3.109827 2.04083,6.5112 3.88729,6.5112 2.13801,0 8.74639,-3.984466 18.07587,-11.078759 z"
         style="font-style:normal;font-variant:normal;font-weight:normal;font-stretch:normal;font-family:Z003;-inkscape-font-specification:Z003;fill:url(#linearGradient3867);fill-opacity:1;stroke:url(#linearGradient3855);stroke-width:2.1;stroke-miterlimit:4;stroke-dasharray:none;stroke-opacity:1"
         id="path1011" />
      <path
         d="m 327.06049,62.649708 c -7.38583,5.053469 -10.78721,7.094293 -12.05058,7.094293 -1.069,0 -1.84646,-1.360549 -1.84646,-3.207009 0,-2.235188 0.77746,-6.122472 2.42956,-12.342126 0.97182,-3.69292 1.94364,-7.38584 2.04082,-7.968933 0.87464,-3.692919 1.55491,-6.122472 1.74928,-6.802746 0.29155,-1.069004 0.48591,-2.040825 0.48591,-2.623917 0,-0.777457 -0.48591,-1.263367 -1.16619,-1.263367 -0.97182,0 -7.96893,3.790101 -15.06322,8.163296 l -0.68028,2.623917 c 4.17883,-2.138007 5.92811,-2.818281 7.0943,-2.818281 0.77745,0 1.36055,0.680274 1.36055,1.84646 0,1.360549 -0.87464,5.150651 -2.7211,12.05058 -2.42955,9.135117 -3.01265,11.759034 -3.01265,14.577315 0,2.721098 1.16619,4.761922 2.7211,4.761922 1.45773,0 3.10983,-0.874639 8.06612,-4.081648 7.5802,-4.859105 7.5802,-4.859105 10.00975,-6.5112 -0.87464,3.304191 -1.36055,6.608382 -1.36055,8.35766 0,1.360549 0.68028,2.235188 1.74928,2.235188 1.94364,0 11.07876,-5.345015 17.78432,-10.398484 l 0.68028,-2.915463 c -6.89993,4.081648 -10.10694,5.830926 -11.17594,5.830926 -0.68028,0 -1.06901,-0.680275 -1.06901,-2.332371 0,-4.956287 3.49856,-19.339237 7.77457,-31.778546 -1.26336,0.680275 -2.138,1.166185 -2.52673,1.36055 -1.16619,0.583092 -2.33237,1.166185 -3.59574,1.652095 -0.29155,0.194364 -0.87464,0.485911 -1.94364,1.069003 -0.68028,2.429553 -2.23519,8.940753 -4.76192,19.533602 z"
         style="font-style:normal;font-variant:normal;font-weight:normal;font-stretch:normal;font-family:Z003;-inkscape-font-specification:Z003;fill:url(#linearGradient3867);fill-opacity:1;stroke:url(#linearGradient3855);stroke-width:2.1;stroke-miterlimit:4;stroke-dasharray:none;stroke-opacity:1"
         id="path1013" />
      <path
         d="m 348.63483,76.449566 6.89993,-2.623917 6.21965,-23.61525 c 6.31684,-4.373194 10.49567,-6.705564 11.75904,-6.705564 0.77745,0 1.26336,0.777456 1.26336,2.138006 0,2.915463 -3.69292,17.58996 -7.77456,30.806725 l 7.38584,-2.623917 6.02529,-24.295524 c 5.53938,-3.595738 10.78721,-6.511201 11.95339,-6.511201 0.87464,0 1.26337,0.680275 1.26337,1.84646 0,2.138006 -0.87464,6.511201 -3.49855,16.520957 -1.45774,6.02529 -1.94365,8.454842 -1.94365,10.690031 0,2.040824 0.48591,3.109827 2.33237,4.373194 5.63657,-2.818281 11.07876,-6.316836 16.42378,-10.592849 l 0.0972,-2.235188 c -8.26048,5.053469 -8.26048,5.053469 -9.62103,5.053469 -1.069,0 -1.74927,-0.971821 -1.74927,-2.526734 0,-2.235189 1.16618,-7.38584 3.207,-14.577315 3.10983,-10.787213 3.69292,-13.022401 3.69292,-14.577315 0,-0.971821 -0.48591,-1.457731 -1.55491,-1.457731 -1.74928,0 -7.77457,3.109827 -19.63078,10.106938 0.38873,-1.749278 0.38873,-1.749278 1.26336,-5.53938 0.38873,-1.457731 0.68028,-3.109827 0.68028,-3.498555 0,-0.680275 -0.48591,-1.069003 -1.26337,-1.069003 -1.65209,0 -5.34501,2.040824 -19.33924,10.884395 1.55492,-6.608383 2.04083,-8.843571 2.04083,-9.523846 0,-0.874639 -0.58309,-1.360549 -1.45773,-1.360549 -0.97182,0 -2.04083,0.583092 -6.89993,3.304191 -6.41402,3.69292 -6.41402,3.69292 -8.1633,4.859105 l -0.68027,2.721099 c 5.15065,-2.623917 6.02529,-2.915463 7.19147,-2.915463 0.77746,0 1.36055,0.777456 1.36055,1.84646 0,1.457731 -0.29155,2.721098 -4.17883,18.173052 -0.87464,3.109827 -1.65209,6.316836 -2.42955,9.523846 z"
         style="font-style:normal;font-variant:normal;font-weight:normal;font-stretch:normal;font-family:Z003;-inkscape-font-specification:Z003;fill:url(#linearGradient3867);fill-opacity:1;stroke:url(#linearGradient3855);stroke-width:2.1;stroke-miterlimit:4;stroke-dasharray:none;stroke-opacity:1"
         id="path1015" />
    </g>
    <flowRoot
       xml:space="preserve"
       id="flowRoot3809"
       style="font-style:normal;font-weight:normal;font-size:40px;line-height:1.25;font-family:sans-serif;letter-spacing:0px;word-spacing:0px;display:inline;fill:#000000;fill-opacity:1;stroke:none"
       transform="scale(0.26458333)"><flowRegion
         id="flowRegion3811"><rect
           id="rect3813"
           width="64.240509"
           height="65.932487"
           x="462.13605"
           y="334.84827" /></flowRegion><flowPara
         id="flowPara3815" /></flowRoot>
    <flowRoot
       xml:space="preserve"
       id="flowRoot3817"
       style="font-style:normal;font-weight:normal;font-size:40px;line-height:1.25;font-family:sans-serif;letter-spacing:0px;word-spacing:0px;display:inline;fill:#000000;fill-opacity:1;stroke:none"
       transform="scale(0.26458333)"><flowRegion
         id="flowRegion3819"><rect
           id="rect3821"
           width="28.452785"
           height="77.228989"
           x="501.98843"
           y="334.84827" /></flowRegion><flowPara
         id="flowPara3823" /></flowRoot>
    <flowRoot
       xml:space="preserve"
       id="flowRoot3833"
       style="font-style:normal;font-weight:normal;font-size:40px;line-height:1.25;font-family:sans-serif;letter-spacing:0px;word-spacing:0px;fill:#000000;fill-opacity:1;stroke:none"
       transform="scale(0.26458333)"><flowRegion
         id="flowRegion3835"><rect
           id="rect3837"
           width="12.899134"
           height="71.188454"
           x="218.78784"
           y="546.15533" /></flowRegion><flowPara
         id="flowPara3839" /></flowRoot>
    <g
       aria-label="4"
       transform="scale(1.0654645,0.93855779)"
       id="text3807-1"
       style="font-style:normal;font-weight:normal;font-size:102.971px;line-height:1.25;font-family:sans-serif;letter-spacing:0px;word-spacing:0px;opacity:1;fill:#150369;fill-opacity:1;stroke:#150369;stroke-width:2.141;stroke-miterlimit:4;stroke-dasharray:none;stroke-opacity:1"
       inkscape:label="text_4_as_path">
      <path
         d="m 373.73576,48.713719 c 0.92674,0.720797 1.13268,0.926739 2.16239,1.132681 2.88319,-1.235652 6.28123,-2.471304 8.54659,-3.08913 l 0.20595,-0.823768 c -0.92674,-1.441594 -1.13269,-2.265362 -1.13269,-3.706956 0,-2.162391 0.41189,-4.942608 1.75051,-10.606013 h 1.85348 2.4713 1.64754 l 3.80993,-5.354492 c -1.75051,0.102971 -3.08913,0.102971 -3.80993,0.102971 -1.13268,0 -2.26536,0 -4.73667,-0.102971 l 1.54457,-6.487173 5.04558,-23.1684751 c 1.13268,-4.530724 1.44159,-5.766376 2.4713,-9.5763029 -0.7208,0.308913 -1.33862,0.514855 -1.64753,0.617826 l -1.64754,0.926739 c -0.82377,0.308913 -1.54457,0.720797 -2.36833,1.132681 l -1.54457,0.8237679 c -0.41188,0.617826 -2.26536,2.677246 -2.4713,2.883188 -3.29507,3.706956 -6.59015,7.41391204 -9.78225,11.0178971 -4.11884,4.839637 -5.86934,7.002028 -16.6813,20.491229 -1.33862,1.647536 -2.05942,2.986159 -3.60398,6.384202 l 4.01586,0.102971 7.105,0.102971 7.51689,0.102971 h 3.60398 z m 2.88319,-22.447678 -5.04558,-0.102971 c -1.95645,-0.102971 -3.1921,-0.102971 -8.54659,-0.308913 3.80992,-5.354492 5.56043,-7.516883 23.27144,-28.8318801 l -0.82377,3.29507204 -0.92674,3.91289806 c -1.23565,5.251521 -2.26536,9.370361 -2.88318,12.459491 -0.92674,3.706956 -1.23566,5.251521 -2.26537,9.576303 z"
         style="font-style:normal;font-variant:normal;font-weight:normal;font-stretch:normal;font-family:Z003;-inkscape-font-specification:Z003;fill:#150369;fill-opacity:1;stroke:#150369;stroke-width:2.141;stroke-miterlimit:4;stroke-dasharray:none;stroke-opacity:1"
         id="path998" />
    </g>
    <flowRoot
       xml:space="preserve"
       id="flowRoot4116"
       style="font-style:normal;font-weight:normal;font-size:40px;line-height:1.25;font-family:sans-serif;letter-spacing:0px;word-spacing:0px;display:inline;fill:#000000;fill-opacity:1;stroke:none"
       transform="matrix(0.26458333,0,0,0.26458333,0,-20)"><flowRegion
         id="flowRegion4118"><rect
           id="rect4120"
           width="504.02078"
           height="483.69736"
           x="1308.8281"
           y="201.1076" /></flowRegion><flowPara
         id="flowPara4122" /></flowRoot>
    <g
       id="g1072"
       inkscape:label="text_group"
       style="display:none;opacity:0">
      <text
         xml:space="preserve"
         style="font-style:normal;font-weight:normal;font-size:102.971px;line-height:1.25;font-family:sans-serif;letter-spacing:0px;word-spacing:0px;display:none;opacity:1;fill:#150369;fill-opacity:1;stroke:#150369;stroke-width:2.141;stroke-miterlimit:4;stroke-dasharray:none;stroke-opacity:1"
         x="348.71381"
         y="47.272125"
         id="text996"
         transform="scale(1.0654645,0.93855779)"
         inkscape:label="text_4_as_text"><tspan
           sodipodi:role="line"
           id="tspan994"
           x="0"
           y="0"
           style="font-style:normal;font-variant:normal;font-weight:normal;font-stretch:normal;font-family:Z003;-inkscape-font-specification:Z003;fill:#150369;fill-opacity:1;stroke:#150369;stroke-width:2.141;stroke-miterlimit:4;stroke-dasharray:none;stroke-opacity:1">4</tspan></text>
      <text
         xml:space="preserve"
         style="font-style:normal;font-weight:normal;font-size:97.1821px;line-height:1.25;font-family:sans-serif;letter-spacing:0px;word-spacing:0px;display:none;opacity:1;fill:url(#linearGradient3867);fill-opacity:1;stroke:url(#linearGradient3855);stroke-width:2.1;stroke-miterlimit:4;stroke-dasharray:none;stroke-opacity:1"
         x="132.69684"
         y="75.477745"
         id="text1003"
         transform="scale(0.94264851,1.0608408)"
         inkscape:label="text_uantum_as_text"><tspan
           sodipodi:role="line"
           id="tspan1001"
           x="0"
           y="0"
           style="font-style:normal;font-variant:normal;font-weight:normal;font-stretch:normal;font-family:Z003;-inkscape-font-specification:Z003;fill:url(#linearGradient3867);fill-opacity:1;stroke:url(#linearGradient3855);stroke-width:2.1;stroke-miterlimit:4;stroke-dasharray:none;stroke-opacity:1">uantum</tspan></text>
    </g>
  </g>
</svg>
